<svg width="651" height="74" viewBox="0 0 651 74" fill="none" xmlns="http://www.w3.org/2000/svg">
<path d="M29 73.5C23.9333 73.5 19.2333 72.2333 14.9 69.7C10.6333 67.1667 7.23333 63.7667 4.7 59.5C2.16667 55.1667 0.9 50.4667 0.9 45.4V2.4H57.1V45.4C57.1 50.4667 55.8333 55.1667 53.3 59.5C50.7667 63.7667 47.3333 67.1667 43 69.7C38.7333 72.2333 34.0667 73.5 29 73.5ZM75.9234 71.9V2.3H79.8234L128.423 49.6V2.3H132.123V71.9H75.9234ZM175.147 26.2L168.747 2.4H210.047L191.347 72H187.447L177.047 33.3L166.647 72H162.747L144.047 2.4H147.847L164.647 65.1L175.147 26.2ZM205.247 6.1H173.547L178.947 26.2L189.447 65.1L205.247 6.1ZM279.87 72H226.37V2.4H253.47C259.27 2.4 264.004 3.43333 267.67 5.5C271.27 7.5 274.07 10.2333 276.07 13.7C278.07 17.1667 279.07 21 279.07 25.2C279.07 30.4 277.47 35.0667 274.27 39.2C271.07 43.2667 267.037 45.9667 262.17 47.3L279.87 72ZM232.67 6.1L259.87 44.1C264.337 43.1667 268.037 40.9333 270.97 37.4C273.904 33.8667 275.37 29.8 275.37 25.2C275.37 21.5333 274.47 18.2 272.67 15.2C270.87 12.2 268.337 9.9 265.07 8.3C262.137 6.83333 258.304 6.1 253.57 6.1H232.67ZM230.07 8.49999V44.4H255.77L230.07 8.49999ZM230.07 68.3H272.87L258.27 48L255.17 48.1H230.07V68.3ZM357.894 72H292.294L325.094 0.899997L357.894 72ZM298.094 68.3H352.094L325.094 9.7L298.094 68.3ZM376.017 72V2.4H405.117C409.984 2.4 414.184 3.3 417.717 5.1C421.784 7.16666 425.017 10.1333 427.417 14C429.817 17.8 431.017 22 431.017 26.6C431.017 31.2 429.817 35.4333 427.417 39.3C425.084 43.1667 421.884 46.1333 417.817 48.2C414.351 50 410.117 50.9 405.117 50.9H394.217V72H376.017ZM450.041 72V2.4H479.141C484.007 2.4 488.207 3.3 491.741 5.1C495.807 7.16666 499.041 10.1333 501.441 14C503.841 17.8 505.041 22 505.041 26.6C505.041 31.2 503.841 35.4333 501.441 39.3C499.107 43.1667 495.907 46.1333 491.841 48.2C488.374 50 484.141 50.9 479.141 50.9H468.241V72H450.041ZM522.164 2.4H572.864V20H540.364V28.8H567.364V45.5H540.364V54.4H572.864V72H522.164V2.4ZM596.188 72V2.4H622.088C627.154 2.4 631.821 3.66666 636.088 6.19999C640.421 8.73333 643.854 12.1667 646.388 16.5C648.921 20.7667 650.188 25.4333 650.188 30.5V43.9C650.188 48.9667 648.921 53.6667 646.388 58C643.854 62.2667 640.421 65.6667 636.088 68.2C631.821 70.7333 627.154 72 622.088 72H596.188Z" fill="white"/>
</svg>
