<svg xmlns="http://www.w3.org/2000/svg" viewBox="0 0 500 500"><g id="freepik--Character--inject-2"><g><g><path d="M279.18529,177.4498s-2.5517-3.1829-6.3339-3.7303c-3.7821-.5472-7.6141,2.3793-7.831,4.0286-.217,1.6494,1.5557,2.0653,1.5557,2.0653,0,0-1.2077,1.1618-.9133,2.081,.2945,.9192,2.362,2.8325,4.3996,2.6984,2.0377-.134,9.1001-5.6691,9.247-5.7876,.1468-.1186-.1241-1.3554-.1241-1.3554Z" style="fill:#7E57C2;"></path><path d="M279.18529,177.4498s-2.5517-3.1829-6.3339-3.7303c-3.7821-.5472-7.6141,2.3793-7.831,4.0286-.217,1.6494,1.5557,2.0653,1.5557,2.0653,0,0-1.2077,1.1618-.9133,2.081,.2945,.9192,2.362,2.8325,4.3996,2.6984,2.0377-.134,9.1001-5.6691,9.247-5.7876,.1468-.1186-.1241-1.3554-.1241-1.3554Z" style="fill:#fff; opacity:.4;"></path><path d="M280.33619,177.9596s3.0457-2.7142,3.3951-6.5197c.3493-3.8056-2.773-7.4798-4.4314-7.6105-1.6584-.1306-1.9813,1.6614-1.9813,1.6614,0,0-1.2233-1.1456-2.1259-.8036-.9026,.3419-2.5486,2.4939-2.4653,4.5343,.3033,7.4339,6.1358,8.7921,6.2619,8.9327,.126,.1404,1.3469-.1946,1.3469-.1946Z" style="fill:#7E57C2;"></path><path d="M280.33619,177.9596s3.0457-2.7142,3.3951-6.5197c.3493-3.8056-2.773-7.4798-4.4314-7.6105-1.6584-.1306-1.9813,1.6614-1.9813,1.6614,0,0-1.2233-1.1456-2.1259-.8036-.9026,.3419-2.5486,2.4939-2.4653,4.5343,.3033,7.4339,6.1358,8.7921,6.2619,8.9327,.126,.1404,1.3469-.1946,1.3469-.1946Z" style="fill:#fff; opacity:.4;"></path><path d="M277.97229,178.602s-6.5712,2.862-6.4445,8.2645,1.2878,5.4538,2.4108,5.0882c1.1229-.3656,1.9569-.442,1.9569-.442,0,0,.3946,2.0138,2.3277,1.3112s2.8373-2.3098,3.987-5.2535c1.1497-2.9438-1.8826-8.5113-2.5698-9.1211,0,0,.0719-.8163-1.6681,.1527Z" style="fill:#7E57C2;"></path><path d="M277.97229,178.602s-6.5712,2.862-6.4445,8.2645,1.2878,5.4538,2.4108,5.0882c1.1229-.3656,1.9569-.442,1.9569-.442,0,0,.3946,2.0138,2.3277,1.3112s2.8373-2.3098,3.987-5.2535c1.1497-2.9438-1.8826-8.5113-2.5698-9.1211,0,0,.0719-.8163-1.6681,.1527Z" style="fill:#fff; opacity:.4;"></path><path d="M280.752,178.0143s.39629-4.0603,3.26389-6.5864,7.6762-2.1709,8.7596-.9084c1.0834,1.2624-.1736,2.5798-.1736,2.5798,0,0,1.6466,.3125,1.9026,1.2431,.256,.9307-.429,3.663-2.20849,4.6648-1.77951,1.002-10.719,.2287-10.90691,.2097-.1877-.019-.63709-1.2026-.63709-1.2026Z" style="fill:#7E57C2;"></path><path d="M280.752,178.0143s.39629-4.0603,3.26389-6.5864,7.6762-2.1709,8.7596-.9084c1.0834,1.2624-.1736,2.5798-.1736,2.5798,0,0,1.6466,.3125,1.9026,1.2431,.256,.9307-.429,3.663-2.20849,4.6648-1.77951,1.002-10.719,.2287-10.90691,.2097-.1877-.019-.63709-1.2026-.63709-1.2026Z" style="fill:#fff; opacity:.4;"></path><path d="M282.19449,178.6126s7.0669-1.1965,9.91451,3.3963c2.84769,4.5928,1.90359,5.2707,.76339,5.5785-1.1401,.3078-1.8802,.6998-1.8802,.6998,0,0,.7706,1.902-1.2321,2.3705-2.0028,.4686-3.6385-.3827-6.2106-2.2189s-3.0772-8.1558-2.8352-9.0421c0,0-.5065-.6442,1.4802-.7841Z" style="fill:#7E57C2;"></path><path d="M282.19449,178.6126s7.0669-1.1965,9.91451,3.3963c2.84769,4.5928,1.90359,5.2707,.76339,5.5785-1.1401,.3078-1.8802,.6998-1.8802,.6998,0,0,.7706,1.902-1.2321,2.3705-2.0028,.4686-3.6385-.3827-6.2106-2.2189s-3.0772-8.1558-2.8352-9.0421c0,0-.5065-.6442,1.4802-.7841Z" style="fill:#fff; opacity:.4;"></path><path d="M283.62089,177.1483c.59,2.0614-1.0497,4.0318-3.184,3.8264-1.1855-.1141-2.2261-.98-2.5538-2.125-.5899-2.0615,1.0498-4.0319,3.184-3.8265,1.1856,.1141,2.2261,.98,2.5538,2.1251Z" style="fill:#7E57C2;"></path><path d="M285.74078,178.52299c2.54735-.28124,5.25707,1.44356,6.06925,3.87675-2.01542-1.58777-3.77875-2.72051-6.06925-3.87675h0Z" style="fill:#fff; opacity:.2;"></path><path d="M280.55658,165.26109c2.23409,1.25579,3.43116,4.23652,2.67337,6.68719-.71266-2.46477-1.48566-4.41284-2.67337-6.68719h0Z" style="fill:#fff; opacity:.2;"></path><path d="M270.1947,174.29089c2.29759-1.13533,5.43379-.4412,7.0291,1.56755-2.43685-.80285-4.48135-1.26423-7.0291-1.56755h0Z" style="fill:#fff; opacity:.2;"></path><path d="M271.7771,187.26109c-.4863-2.51626,1.01368-5.35664,3.37324-6.36293-1.41962,2.13721-2.40597,3.98645-3.37324,6.36293h0Z" style="fill:#fff; opacity:.2;"></path></g><g><path d="M319.59079,136.5968s1.04921-7.9409-3.3103-14.0479c-4.35949-6.1069-13.7132-7.5677-16.3468-5.6357-2.63369,1.9319-.8164,5.0106-.8164,5.0106,0,0-3.2877-.1351-4.1915,1.5306-.90379,1.6657-.80979,7.1957,2.14721,9.9035,2.957,2.7079,20.39649,5.2079,20.76409,5.2552,.3676,.0472,1.7537-2.0163,1.7537-2.0163Z" style="fill:#7E57C2;"></path><path d="M319.59079,136.5968s1.04921-7.9409-3.3103-14.0479c-4.35949-6.1069-13.7132-7.5677-16.3468-5.6357-2.63369,1.9319-.8164,5.0106-.8164,5.0106,0,0-3.2877-.1351-4.1915,1.5306-.90379,1.6657-.80979,7.1957,2.14721,9.9035,2.957,2.7079,20.39649,5.2079,20.76409,5.2552,.3676,.0472,1.7537-2.0163,1.7537-2.0163Z" style="fill:#fff; opacity:.4;"></path><path d="M320.43069,138.9211s7.9848,.6339,13.8561-4.038c5.8714-4.672,6.8425-14.0891,4.7759-16.6185-2.0666-2.5293-5.0464-.554-5.0464-.554,0,0-.0364-3.2903-1.747-4.106-1.7105-.8158-6.9975-.2282-9.7781,2.6605-10.1308,10.5245-4.1375,20.6404-4.1655,21.01-.028,.3694,2.105,1.646,2.105,1.646Z" style="fill:#7E57C2;"></path><path d="M320.43069,138.9211s7.9848,.6339,13.8561-4.038c5.8714-4.672,6.8425-14.0891,4.7759-16.6185-2.0666-2.5293-5.0464-.554-5.0464-.554,0,0-.0364-3.2903-1.747-4.106-1.7105-.8158-6.9975-.2282-9.7781,2.6605-10.1308,10.5245-4.1375,20.6404-4.1655,21.01-.028,.3694,2.105,1.646,2.105,1.646Z" style="fill:#fff; opacity:.4;"></path><path d="M316.30959,136.441s-12.98159-5.4332-20.4713,2.0824c-7.4897,7.5155-5.9859,9.232-3.9426,10.328,2.04331,1.0961,3.2841,2.1752,3.2841,2.1752,0,0-2.3201,3.2942,1.30121,5.0816,3.62139,1.7874,7.12829,.8874,12.86419-1.4793s9.5144-14.227,9.446-16.0296c0,0,1.2554-1.0065-2.4816-2.1583Z" style="fill:#7E57C2;"></path><path d="M316.30959,136.441s-12.98159-5.4332-20.4713,2.0824c-7.4897,7.5155-5.9859,9.232-3.9426,10.328,2.04331,1.0961,3.2841,2.1752,3.2841,2.1752,0,0-2.3201,3.2942,1.30121,5.0816,3.62139,1.7874,7.12829,.8874,12.86419-1.4793s9.5144-14.227,9.446-16.0296c0,0,1.2554-1.0065-2.4816-2.1583Z" style="fill:#fff; opacity:.4;"></path><path d="M320.91769,139.5851s6.29631-4.9512,13.7726-4.3146c7.4763,.6367,13.5019,7.9386,13.1826,11.1893-.3192,3.2506-3.8943,3.2569-3.8943,3.2569,0,0,1.7926,2.7594,.82041,4.3861-.97221,1.6269-5.77731,4.3655-9.61441,3.2023-3.8372-1.1632-14.8793-14.8913-15.1075-15.1834-.2279-.2921,.8406-2.5366,.8406-2.5366Z" style="fill:#7E57C2;"></path><path d="M320.91769,139.5851s6.29631-4.9512,13.7726-4.3146c7.4763,.6367,13.5019,7.9386,13.1826,11.1893-.3192,3.2506-3.8943,3.2569-3.8943,3.2569,0,0,1.7926,2.7594,.82041,4.3861-.97221,1.6269-5.77731,4.3655-9.61441,3.2023-3.8372-1.1632-14.8793-14.8913-15.1075-15.1834-.2279-.2921,.8406-2.5366,.8406-2.5366Z" style="fill:#fff; opacity:.4;"></path><path d="M322.02779,142.4432s11.2927,8.3976,8.6459,18.6725-4.89,9.8564-6.87469,8.6574c-1.98471-1.199-3.54561-1.7162-3.54561-1.7162,0,0-1.651,3.6754-5.035,1.4714s-4.3977-5.6798-5.2861-11.8208c-.8885-6.141,7.388-15.4385,8.9736-16.2988,0,0,.2258-1.5931,3.1219,1.0345Z" style="fill:#7E57C2;"></path><path d="M322.02779,142.4432s11.2927,8.3976,8.6459,18.6725-4.89,9.8564-6.87469,8.6574c-1.98471-1.199-3.54561-1.7162-3.54561-1.7162,0,0-1.651,3.6754-5.035,1.4714s-4.3977-5.6798-5.2861-11.8208c-.8885-6.141,7.388-15.4385,8.9736-16.2988,0,0,.2258-1.5931,3.1219,1.0345Z" style="fill:#fff; opacity:.4;"></path><path d="M325.36939,143.417c-2.1279,2.4467-5.8361,2.7051-8.2828,.5773-2.4465-2.1278-2.705-5.8362-.5772-8.2827,2.1278-2.4467,5.8361-2.7051,8.2827-.5773s2.7051,5.8362,.5773,8.2827Z" style="fill:#7E57C2;"></path><path d="M326.97018,147.35091c3.27424,3.62608,4.3961,9.27202,2.74317,13.87148,.20962-4.88476-.68494-9.43587-2.74317-13.87148h0Z" style="fill:#fff; opacity:.2;"></path><path d="M338.73868,121.9909c.54799,4.85476-1.83022,10.09688-5.85373,12.87153,3.01682-3.84755,4.94177-8.06743,5.85373-12.87153h0Z" style="fill:#fff; opacity:.2;"></path><path d="M311.8627,119.557c4.31683,2.28779,7.30174,7.20967,7.32144,12.09707-1.47356-4.6619-3.87049-8.63272-7.32144-12.09707h0Z" style="fill:#fff; opacity:.2;"></path><path d="M295.6171,139.4128c3.34946-3.55678,8.88617-5.1316,13.60429-3.85596-4.88576,.18602-9.34962,1.44574-13.60429,3.85596h0Z" style="fill:#fff; opacity:.2;"></path></g><g><path d="M128.2795,310.4698s-6.4832-5.6154-14.5122-5.3139c-8.0289,.3016-14.8445,7.8059-14.668,11.299,.1764,3.493,4,3.6812,4,3.6812,0,0-2.0573,2.8605-1.1001,4.6498,.9573,1.7893,5.9579,4.9625,10.121,3.913,4.1633-1.0493,16.6707-15.1724,16.9295-15.4733,.2587-.3009-.7702-2.7558-.7702-2.7558Z" style="fill:#7E57C2;"></path><path d="M128.2795,310.4698s-6.4832-5.6154-14.5122-5.3139c-8.0289,.3016-14.8445,7.8059-14.668,11.299,.1764,3.493,4,3.6812,4,3.6812,0,0-2.0573,2.8605-1.1001,4.6498,.9573,1.7893,5.9579,4.9625,10.121,3.913,4.1633-1.0493,16.6707-15.1724,16.9295-15.4733,.2587-.3009-.7702-2.7558-.7702-2.7558Z" style="fill:#fff; opacity:.4;"></path><path d="M130.8528,311.0878s5.2698-6.7672,4.5501-14.7695c-.7198-8.0022-8.5692-14.4174-12.0483-14.059-3.4791,.3583-3.4677,4.1865-3.4677,4.1865,0,0-2.9639-1.9054-4.7008-.8562-1.737,1.0492-4.3256,6.1233-3.3801,10.3112,3.4446,15.2585,16.0209,15.8571,16.3349,16.0999,.3139,.2426,2.7119-.9129,2.7119-.9129Z" style="fill:#7E57C2;"></path><path d="M130.8528,311.0878s5.2698-6.7672,4.5501-14.7695c-.7198-8.0022-8.5692-14.4174-12.0483-14.059-3.4791,.3583-3.4677,4.1865-3.4677,4.1865,0,0-2.9639-1.9054-4.7008-.8562-1.737,1.0492-4.3256,6.1233-3.3801,10.3112,3.4446,15.2585,16.0209,15.8571,16.3349,16.0999,.3139,.2426,2.7119-.9129,2.7119-.9129Z" style="fill:#fff; opacity:.4;"></path><path d="M126.2076,313.3123s-12.5048,8.4088-10.1953,19.5332,4.7301,10.7906,6.9138,9.6088c2.1837-1.1816,3.8795-1.6557,3.8795-1.6557,0,0,1.5793,4.0151,5.3107,1.8295,3.7314-2.1857,4.9921-5.8519,6.254-12.3753,1.262-6.5233-7.1186-16.888-8.771-17.8885,0,0-.1607-1.7155-3.3917,.948Z" style="fill:#7E57C2;"></path><path d="M126.2076,313.3123s-12.5048,8.4088-10.1953,19.5332,4.7301,10.7906,6.9138,9.6088c2.1837-1.1816,3.8795-1.6557,3.8795-1.6557,0,0,1.5793,4.0151,5.3107,1.8295,3.7314-2.1857,4.9921-5.8519,6.254-12.3753,1.262-6.5233-7.1186-16.888-8.771-17.8885,0,0-.1607-1.7155-3.3917,.948Z" style="fill:#fff; opacity:.4;"></path><path d="M131.7334,311.0433s-.7192-8.5468,4.2536-14.8576c4.9729-6.3107,15.0518-7.3984,17.7706-5.1983,2.719,2.2001,.6189,5.4009,.6189,5.4009,0,0,3.5234,.0222,4.4055,1.8497,.8822,1.8276,.501,7.7377-2.7992,10.4839-3.3003,2.7464-22.0805,4.5351-22.4761,4.5671-.3955,.0318-1.7733-2.2457-1.7733-2.2457Z" style="fill:#7E57C2;"></path><path d="M131.7334,311.0433s-.7192-8.5468,4.2536-14.8576c4.9729-6.3107,15.0518-7.3984,17.7706-5.1983,2.719,2.2001,.6189,5.4009,.6189,5.4009,0,0,3.5234,.0222,4.4055,1.8497,.8822,1.8276,.501,7.7377-2.7992,10.4839-3.3003,2.7464-22.0805,4.5351-22.4761,4.5671-.3955,.0318-1.7733-2.2457-1.7733-2.2457Z" style="fill:#fff; opacity:.4;"></path><path d="M134.9431,311.734s14.161-5.1525,21.7905,3.2663c7.6295,8.4187,5.934,10.1783,3.6928,11.2469-2.2412,1.0687-3.6231,2.1599-3.6231,2.1599,0,0,2.3144,3.6412-1.6497,5.3692-3.9641,1.7281-7.6694,.5874-13.6844-2.2352-6.015-2.8225-9.4546-15.7-9.2899-17.6247,0,0-1.2917-1.1402,2.7638-2.1824Z" style="fill:#7E57C2;"></path><path d="M134.9431,311.734s14.161-5.1525,21.7905,3.2663c7.6295,8.4187,5.934,10.1783,3.6928,11.2469-2.2412,1.0687-3.6231,2.1599-3.6231,2.1599,0,0,2.3144,3.6412-1.6497,5.3692-3.9641,1.7281-7.6694,.5874-13.6844-2.2352-6.015-2.8225-9.4546-15.7-9.2899-17.6247,0,0-1.2917-1.1402,2.7638-2.1824Z" style="fill:#fff; opacity:.4;"></path><path d="M137.7821,309.3193c.9347,3.3439-1.0184,6.8123-4.3622,7.747-3.3439,.9345-6.8123-1.0185-7.7469-4.3623-.9347-3.3439,1.0184-6.8123,4.3623-7.7469,3.3438-.9346,6.8122,1.0184,7.7468,4.3622Z" style="fill:#7E57C2;"></path><path d="M142.24289,310.2048c5.17215-.74005,10.84368,1.56667,14.02053,5.71714-4.20825-3.10174-8.84177-4.9972-14.02053-5.71714h0Z" style="fill:#fff; opacity:.2;"></path><path d="M126.49609,284.7438c4.63453,2.41237,7.89946,7.59183,8.06266,12.81598-1.61247-4.9729-4.27353-9.21324-8.06266-12.81598h0Z" style="fill:#fff; opacity:.2;"></path><path d="M108.4897,307.34439c4.60718-2.46418,10.72558-2.23592,15.1302,.57785-5.0152-1.47565-10.01752-1.67227-15.1302-.57785h0Z" style="fill:#fff; opacity:.2;"></path><path d="M116.6774,333.56711c-1.1559-5.09532,.68467-10.93479,4.56464-14.43682-2.75131,4.44524-4.26583,9.21684-4.56464,14.43682h0Z" style="fill:#fff; opacity:.2;"></path></g><g><path d="M266.16019,345.9038c-1.4234-2.7301-3.9918-4.7135-6.7591-6.0632-2.209-1.0774-4.5654-1.7987-6.9207-2.5143-.8825-.2681-1.7728,.4092-1.7393,1.3309,.1073,2.9526,.4187,5.9022,1.2417,8.7339,.9977,3.4323,2.7971,6.7057,5.53921,8.9983,2.55469,2.1357,6.70619,3.2007,9.98659,2.7357,.3816-2.2321,.04241-4.3481,.058-6.6124,.0156-2.2749-.3547-4.5917-1.4064-6.6089Z" style="fill:#7E57C2;"></path><g><path d="M271.9786,365.68216c-2.87987-6.81995-6.94241-13.08395-11.97058-18.51619-.65716-.70997-1.71594,.35272-1.06066,1.06066,4.94355,5.34082,8.90535,11.50915,11.73603,18.21261,.37424,.88625,1.66667,.12259,1.29521-.75708h0Z" style="fill:#7E57C2;"></path><path d="M271.9786,365.68216c-2.87987-6.81995-6.94241-13.08395-11.97058-18.51619-.65716-.70997-1.71594,.35272-1.06066,1.06066,4.94355,5.34082,8.90535,11.50915,11.73603,18.21261,.37424,.88625,1.66667,.12259,1.29521-.75708h0Z" style="opacity:.3;"></path></g></g><g><path d="M205.06919,313.1221c10.4912-3.8114,20.3233-10.0889,26.90581-19.1035,6.13229-8.3978,9.14669-19.3348,7.02589-29.4617-7.0335-.7322-14.1036-1.46-21.1626-1.0449-7.0921,.4172-14.236,2.0455-20.3065,5.7357-8.216,4.9944-13.8708,13.404-17.5101,22.3035-3.6392,8.8996-5.4896,18.4053-7.7577,27.7489,11.129-.8619,22.3139-2.3666,32.80519-6.178Z" style="fill:#7E57C2;"></path><g><path d="M207.60482,286.96513c13.98318-12.19182,30.07302-21.8926,47.38725-28.55712,.89161-.34319,.50435-1.79404-.39876-1.44642-13.67832,5.26501-26.62284,12.36159-38.37232,21.12825-3.32441,2.48044-6.55057,5.08887-9.67683,7.81463-.72895,.63556,.33564,1.6928,1.06066,1.06066h0Z" style="fill:#7E57C2;"></path><path d="M207.60482,286.96513c13.98318-12.19182,30.07302-21.8926,47.38725-28.55712,.89161-.34319,.50435-1.79404-.39876-1.44642-13.67832,5.26501-26.62284,12.36159-38.37232,21.12825-3.32441,2.48044-6.55057,5.08887-9.67683,7.81463-.72895,.63556,.33564,1.6928,1.06066,1.06066h0Z" style="opacity:.3;"></path></g></g><g><path d="M152.665,249.8831c6.2493-4.5233,13.6537-7.7131,21.3635-7.9825,7.1823-.251,15.8016,2.2933,20.7722,7.4342-2.309,4.3075-5.8283,8.6075-8.8036,12.4845-2.9892,3.8953-6.6914,7.3505-11.1569,9.392-6.0436,2.7629-13.0475,2.7362-19.55,1.3665-6.5025-1.3699-12.658-3.9981-18.8826-6.3244,4.8093-6.0321,10.0081-11.847,16.2574-16.3703Z" style="fill:#7E57C2;"></path><g><path d="M162.01378,258.09721c17.45351-6.5096,35.95959-9.93088,54.58752-10.07201,.96481-.00731,.96704-1.50733,0-1.5-18.75249,.14207-37.41511,3.57211-54.98628,10.12559-.89642,.33434-.50841,1.78476,.39876,1.44642h0Z" style="fill:#7E57C2;"></path><path d="M162.01378,258.09721c17.45351-6.5096,35.95959-9.93088,54.58752-10.07201,.96481-.00731,.96704-1.50733,0-1.5-18.75249,.14207-37.41511,3.57211-54.98628,10.12559-.89642,.33434-.50841,1.78476,.39876,1.44642h0Z" style="opacity:.3;"></path></g></g><g><path d="M128.3369,162.6767c7.6813,.7151,15.3529,3.1944,21.3299,8.0718,5.5682,4.5436,10.3754,12.1367,10.7272,19.279-4.5751,1.7188-10.0558,2.6345-14.8484,3.5906-4.8152,.9605-9.8768,1.1202-14.5809-.2864-6.3667-1.9038-11.6176-6.5387-15.6065-11.8536-3.9888-5.3149-6.8874-11.3478-10.037-17.1992,7.5923-1.3686,15.3344-2.3172,23.0157-1.6022Z" style="fill:#7E57C2;"></path><g><path d="M130.08422,175.06341c17.34836,6.57479,33.48928,16.19018,47.53555,28.30952,.72755,.62774,1.7931-.4287,1.06066-1.06066-11.09471-9.57269-23.46615-17.6344-36.73692-23.85457-3.75622-1.76059-7.58158-3.37064-11.46053-4.84071-.90359-.34245-1.29422,1.10705-.39876,1.44642h0Z" style="fill:#7E57C2;"></path><path d="M130.08422,175.06341c17.34836,6.57479,33.48928,16.19018,47.53555,28.30952,.72755,.62774,1.7931-.4287,1.06066-1.06066-11.09471-9.57269-23.46615-17.6344-36.73692-23.85457-3.75622-1.76059-7.58158-3.37064-11.46053-4.84071-.90359-.34245-1.29422,1.10705-.39876,1.44642h0Z" style="opacity:.3;"></path></g></g><g><path d="M152.7436,142.838c4.3874,2.0549,8.3941,5.1503,10.8898,9.3028,2.325,3.8684,3.5522,9.3772,2.2423,13.6727-3.0689,.0435-6.5023-.58-9.5378-1.0335-3.0497-.4557-6.0748-1.4369-8.5558-3.2678-3.3578-2.478-5.476-6.333-6.7038-10.3215-1.2277-3.9885-1.6586-8.1696-2.2764-12.2969,4.7776,.8046,9.5544,1.8893,13.9417,3.9442Z" style="fill:#7E57C2;"></path><g><path d="M147.41507,147.51383c8.87524,7.60145,16.36222,16.69083,22.11273,26.86391,.47503,.84036,1.77134,.08524,1.29521-.75708-5.80817-10.27508-13.38257-19.48942-22.34727-27.16749-.72952-.62481-1.79531,.43145-1.06066,1.06066h0Z" style="fill:#7E57C2;"></path><path d="M147.41507,147.51383c8.87524,7.60145,16.36222,16.69083,22.11273,26.86391,.47503,.84036,1.77134,.08524,1.29521-.75708-5.80817-10.27508-13.38257-19.48942-22.34727-27.16749-.72952-.62481-1.79531,.43145-1.06066,1.06066h0Z" style="opacity:.3;"></path></g></g><g><g><polygon points="339.02819 326.9364 321.50909 304.5399 336.80089 294.5167 351.71029 324.2986 339.02819 326.9364" style="fill:#7E57C2;"></polygon><polygon points="339.02819 326.9364 321.50909 304.5399 336.80089 294.5167 351.71029 324.2986 339.02819 326.9364" style="fill:#fff; opacity:.7;"></polygon><g><path d="M345.11829,339.6342l6.8846-2.6171s1.1272-1.2236,1.9797-1.4417c.8506-.2163,3.879-.7868,3.879-.7868l18.2816-6.9511c-.42019-.6636-.8449-1.2348-1.26719-1.7249-.51461-.597-1.02911-1.0728-1.54151-1.4459-1.7942-1.3041-3.5747-1.3336-5.2933-.794-2.6173,.8224-12.59719-1.1605-12.59719-1.1605,0,0-3.28811,.1521-4.56021-2.7076-.4776-1.0715-2.709-1.7531-3.5704-1.5514-1.7581,.4093-2.3091,1.7565-1.95439,3.4173l.41429,1.9285-4.0767,.9035s-4.6358-.3617-3.7578,1.3682c.5014,.9873,2.9086,5.3174,4.7083,8.7943,.4203,.8102,.8164,1.5774,1.164,2.2504l.0022-.0001c.7724,1.4935,1.305,2.5189,1.305,2.5189Z" style="fill:#263238;"></path><g style="opacity:.7;"><path d="M376.143,327.8376l-18.28131,6.9509s-3.0285,.5706-3.8791,.7869c-.85259,.2181-1.97959,1.4417-1.97959,1.4417l-6.88481,2.6171s-.5325-1.0254-1.3049-2.5189l31.06271-11.0027c.42229,.4901,.847,1.0613,1.267,1.725Z" style="fill:#fff;"></path></g><path d="M360.16889,323.0599c-.1145-.0458-.2485-.0045-.3237,.0946-.3456,.4547-.5741,.9982-.6423,1.5966-.0358,.3155,.4712,.414,.5074,.0954,.0605-.5318,.259-1.011,.5605-1.4089,.1006-.1331,.0565-.3146-.097-.3758l-.0049-.0019Z" style="fill:#fff;"></path><path d="M358.408,322.8089c-.11441-.0457-.24841-.0044-.32371,.0948-.3455,.4546-.5741,.9981-.64229,1.5965-.03581,.3153,.47109,.4139,.50739,.0954,.0607-.5318,.2591-1.011,.5605-1.4088,.1007-.1331,.0565-.3147-.0968-.3759l-.00509-.002Z" style="fill:#fff;"></path><path d="M356.62189,322.6286c-.1143-.0456-.2485-.0043-.3237,.0949-.3455,.4546-.5741,.9983-.64219,1.5966-.03591,.3155,.47109,.4139,.50739,.0953,.0603-.5317,.2589-1.0108,.5604-1.4088,.1008-.1332,.0565-.3147-.097-.3759l-.0049-.0021Z" style="fill:#fff;"></path></g><polygon points="324.503 308.5142 338.82039 298.5718 340.38279 301.6716 326.84769 311.3646 324.503 308.5142" style="fill:#7E57C2;"></polygon><polygon points="327.51319 312.3693 340.88529 302.6755 341.44739 303.7983 328.51189 313.6244 327.51319 312.3693" style="fill:#7E57C2;"></polygon></g><path d="M306.85719,230.0368c-19.5774-12.4988-74.25719-23.7015-77.1077-24.5777-3.6439-1.1116-14.1344-5.5903-14.1344-5.5903l-12.9064,10.1596,21.293,24.723,12.5542,4.2318,.0499,.0563c1.0773,.1516,11.2738,3.726,22.4167,5.7017,14.5729,2.5903,28.9313,9.5764,32.8614,10.5854l37.3888,63.3533,19.6057-11.0942s-33.6292-72.1912-42.0212-77.5489Z" style="fill:#263238;"></path></g><path d="M171.4341,160.5724c-4.969,12.5532-5.473,26.6567-2.5055,39.7514,2.9398,12.9721,9.6446,25.3385,19.221,34.6075,11.0381,10.6838,25.5906,16.6026,40.293,20.262,14.3375,3.5685,29.082,5.1985,43.3723,8.9744,3.4323,.907,6.8353,1.9302,10.1812,3.1182,1.6593,.5892,3.2963,1.2305,4.92691,1.8941,.64239,.2614-.57121-.2423-.55371-.2334,.1784,.0908,.3722,.1608,.55571,.241,.36949,.1616,.73779,.3258,1.105,.4925,.85429,.3881,1.70209,.7903,2.54249,1.2076,3.0974,1.5381,6.0947,3.2826,8.9269,5.2689,.3255,.2284,.6488,.4598,.9698,.6945,.1861,.136,1.236,.9413,.4844,.3493-.7524-.5927,.2876,.2304,.4661,.3743,.4135,.3335,.82231,.6727,1.2262,1.0176,1.3195,1.1269,2.5863,2.3152,3.7918,3.5634,.5611,.581,1.1092,1.1744,1.6421,1.7812,.2665,.3033,.529,.6099,.7877,.9198,.1292,.1549,.2578,.3104,.3852,.4668,.1341,.1648,.8711,1.1071,.2647,.3201-.5777-.7497,.2274,.3142,.362,.4991,.2374,.3259,.47061,.6547,.6999,.9863,.535,.7737,1.0478,1.5624,1.5384,2.365,.8762,1.4333,1.6812,2.9101,2.4124,4.4225,.20491,.4237,.4036,.8502,.59691,1.2793,.09549,.2119,.63359,1.4438,.24809,.553-.385-.8896,.131,.3491,.2154,.5671,.17,.439,.33451,.8802,.4928,1.3237,1.1784,3.3022,1.9989,6.705,2.533,10.1681,.0625,.4053,.02,1.1211-.0601-.4525,.0102,.1995,.0481,.4026,.0703,.6012,.0448,.4011,.085,.8026,.1206,1.2045,.0771,.8707,.13291,1.7432,.1663,2.6167,.0669,1.7458,.0459,3.4954-.0651,5.2391-.0555,.8716-.1339,1.7417-.2347,2.6092-.0232,.1994-.0577,.4003-.073,.6003-.0024,.0318,.20541-1.3543,.0831-.6542-.081,.4632-.1451,.9295-.2278,1.3926-.3033,1.6979-.6967,3.3799-1.1801,5.0356-.4612,1.5799-1.0152,3.1245-1.6195,4.6545-.4188,1.0605,.5114-1.1247,.0358-.0885-.1845,.4019-.3626,.8065-.5517,1.2063-.3512,.7425-.7201,1.4765-1.1068,2.201-.7737,1.4497-1.6172,2.8622-2.525,4.2319-.4542,.6852-.9247,1.3595-1.4105,2.0226-.1382,.1888-.9205,1.216-.313,.4319,.6055-.7817-.2926,.3586-.4576,.5603-2.08349,2.5457-4.4034,4.8985-6.92049,7.0164-.29031,.2443-.58341,.4855-.87891,.7235-.1477,.1189-.2982,.2347-.4454,.3543-.52569,.4272,.5387-.4118,.5079-.3916-.7375,.4825-1.4253,1.0533-2.1549,1.5505-1.3574,.9252-2.759,1.7861-4.199,2.5767-.6645,.3648-1.3373,.7145-2.0175,1.0491-.3968,.1952-.7965,.3845-1.1985,.5689-.1723,.0791-.3458,.1554-.518,.2345-.7595,.3489,.1916-.0821,.44031-.1763-1.52591,.5782-3.03231,1.174-4.59481,1.6526-6.1855,1.8946-12.6248,2.7698-19.001,3.7522-6.2255,.9593-12.5368,1.965-18.4477,4.2233-6.9794,2.6665-12.9026,6.6573-17.39549,12.6909-4.99331,6.7056-6.57741,15.3984-5.40261,23.5445,1.0527,7.2995,5.2713,14.3674,11.0254,18.9505,3.2263,2.5697,6.62721,4.5049,10.5637,5.8037,3.0898,1.0195,6.9263-1.1807,7.6462-4.3414,.7794-3.4223-1.0332-6.5546-4.3414-7.6462-.3612-.1191-.7211-.2412-1.07729-.3747-.17781-.0667-.353-.1411-.53091-.2071-.6357-.236,.6378,.2736,.6107,.2557-.7211-.4787-1.6074-.7755-2.3619-1.2165-.6558-.3832-1.2946-.7964-1.9135-1.2367-.1547-.1101-.305-.227-.46039-.3361-.54881-.3856,.52469,.411,.50629,.3908-.2898-.3171-.6925-.5729-1.0148-.8603-.615-.5482-1.2046-1.125-1.7652-1.7287-.2588-.2786-.5116-.5629-.7579-.8525-.1229-.1444-.23839-.2971-.3643-.4388-.5277-.5941,.7263,1.0097,.2717,.3581-.9474-1.3576-1.8329-2.7225-2.5481-4.221-.0776-.1626-.1401-.3673-.24-.5165-.0185-.0276,.4929,1.2467,.255,.6113-.1332-.3559-.2758-.7075-.4013-1.0665-.28-.8012-.5178-1.6171-.7105-2.4437-.1072-.4599-.19989-.9231-.28-1.3885-.0336-.1956-.0466-.4075-.0962-.5993-.0042-.0159,.13531,1.3476,.0967,.6488-.04839-.8774-.1378-1.7448-.1381-2.6256-.0004-.8097,.0378-1.62,.1135-2.4261,.019-.2017,.0456-.4026,.0647-.6042,.08-.8449-.2234,1.2801-.0522,.4491,.0953-.463,.1655-.9305,.2676-1.3926,.1748-.791,.3864-1.5745,.6338-2.346,.1236-.3856,.25631-.7686,.3978-1.148,.0708-.1896,.1502-.3764,.2197-.5663,.28181-.7698-.52519,1.0963-.1491,.3683,.8164-1.5801,1.6411-3.0662,2.6672-4.523,.3894-.5528-.3516,.459-.3508,.4584,.1397-.1038,.2618-.3163,.3758-.45,.2334-.2738,.4723-.5426,.7165-.8067,.5599-.6055,1.14721-1.185,1.7599-1.7368,.2591-.2333,.5226-.4615,.7904-.6847,.1308-.1091,.2816-.2105,.4026-.33,.04531-.0447-1.1162,.82-.5748,.4417,.6124-.4279,1.2082-.8733,1.8384-1.2762,1.2576-.8039,2.5745-1.5137,3.9284-2.1412,.3141-.1455,.63831-.2731,.9496-.4242,.0668-.0324-1.3144,.531-.6821,.2916,.163-.0617,.3237-.1303,.486-.1938,.7634-.2985,1.5354-.5748,2.3135-.8322,1.4132-.4677,2.8469-.8721,4.2912-1.2319,3.0973-.7718,6.2417-1.3384,9.3914-1.8481,6.2759-1.0157,12.6108-1.7865,18.7823-3.3538,6.6398-1.6863,13.0643-4.4792,18.6772-8.4258,11.6709-8.2063,20.6005-20.4893,23.7141-34.529,3.2549-14.6773,.6065-30.5887-7.3474-43.3706-8.0521-12.9395-20.87049-21.2892-34.859-26.6622-13.4176-5.1537-27.654-7.294-41.70549-9.9481-7.28531-1.376-14.55831-2.906-21.65241-5.0817-1.7871-.5481-3.5618-1.1372-5.3187-1.7755-.8078-.2936-1.61189-.5974-2.4115-.9124-.3993-.1573-.79639-.3198-1.19439-.4802-.338-.1363-.97931-.5335,.29849,.1296-.2512-.1303-.527-.2269-.7862-.3409-3.3344-1.4657-6.5747-3.1503-9.6584-5.0905-1.5201-.9564-2.978-1.991-4.4275-3.0497-.5443-.3975,.57561,.4507,.53561,.4164-.138-.1179-.28661-.2257-.42851-.339-.28449-.2271-.5668-.457-.8469-.6896-.606-.5033-1.2018-1.0191-1.7865-1.5472-2.3347-2.1084-4.4954-4.4087-6.4654-6.8611-.1136-.1414-.2241-.2855-.3388-.426-.426-.5219,.447,.5862,.4151,.5416-.2104-.2953-.4387-.5789-.654-.8708-.4669-.6332-.9216-1.2755-1.3642-1.9259-.8861-1.3021-1.723-2.6373-2.5099-4.0015-.7879-1.366-1.5255-2.7607-2.2118-4.1804-.3171-.6557-.6232-1.3167-.9183-1.9826-.0981-.2214-.5993-1.3871-.1913-.4285,.409,.9607-.1398-.3596-.2374-.607-1.1598-2.9389-2.11-5.9606-2.8419-9.034-.3518-1.4773-.6529-2.9666-.9027-4.4645-.0699-.4193-.133-.8394-.1979-1.2595-.1754-1.1362,.161,1.3504,.0261,.2089-.0925-.7835-.1804-1.567-.2495-2.3529-.2704-3.0778-.322-6.1753-.1434-9.2599,.0455-.7853,.1061-1.5696,.1816-2.3525,.0348-.3612,.0728-.7221,.114-1.0827,.0207-.1803,.043-.3603,.064-.5406,.1011-.867-.0399,.3622-.0789,.5733,.2861-1.548,.5015-3.1011,.846-4.6398,.6631-2.961,1.5645-5.8608,2.6811-8.6817,.5564-1.4055,.1041-3.541-.6266-4.7897-.7545-1.2894-2.2329-2.519-3.7147-2.8565-3.5817-.8158-6.3616,1.096-7.6462,4.3413h0Z" style="fill:#7E57C2;"></path><g style="opacity:.3;"><path d="M171.4341,160.5724c-4.969,12.5532-5.473,26.6567-2.5055,39.7514,2.9398,12.9721,9.6446,25.3385,19.221,34.6075,11.0381,10.6838,25.5906,16.6026,40.293,20.262,14.3375,3.5685,29.082,5.1985,43.3723,8.9744,3.4323,.907,6.8353,1.9302,10.1812,3.1182,1.6593,.5892,3.2963,1.2305,4.92691,1.8941,.64239,.2614-.57121-.2423-.55371-.2334,.1784,.0908,.3722,.1608,.55571,.241,.36949,.1616,.73779,.3258,1.105,.4925,.85429,.3881,1.70209,.7903,2.54249,1.2076,3.0974,1.5381,6.0947,3.2826,8.9269,5.2689,.3255,.2284,.6488,.4598,.9698,.6945,.1861,.136,1.236,.9413,.4844,.3493-.7524-.5927,.2876,.2304,.4661,.3743,.4135,.3335,.82231,.6727,1.2262,1.0176,1.3195,1.1269,2.5863,2.3152,3.7918,3.5634,.5611,.581,1.1092,1.1744,1.6421,1.7812,.2665,.3033,.529,.6099,.7877,.9198,.1292,.1549,.2578,.3104,.3852,.4668,.1341,.1648,.8711,1.1071,.2647,.3201-.5777-.7497,.2274,.3142,.362,.4991,.2374,.3259,.47061,.6547,.6999,.9863,.535,.7737,1.0478,1.5624,1.5384,2.365,.8762,1.4333,1.6812,2.9101,2.4124,4.4225,.20491,.4237,.4036,.8502,.59691,1.2793,.09549,.2119,.63359,1.4438,.24809,.553-.385-.8896,.131,.3491,.2154,.5671,.17,.439,.33451,.8802,.4928,1.3237,1.1784,3.3022,1.9989,6.705,2.533,10.1681,.0625,.4053,.02,1.1211-.0601-.4525,.0102,.1995,.0481,.4026,.0703,.6012,.0448,.4011,.085,.8026,.1206,1.2045,.0771,.8707,.13291,1.7432,.1663,2.6167,.0669,1.7458,.0459,3.4954-.0651,5.2391-.0555,.8716-.1339,1.7417-.2347,2.6092-.0232,.1994-.0577,.4003-.073,.6003-.0024,.0318,.20541-1.3543,.0831-.6542-.081,.4632-.1451,.9295-.2278,1.3926-.3033,1.6979-.6967,3.3799-1.1801,5.0356-.4612,1.5799-1.0152,3.1245-1.6195,4.6545-.4188,1.0605,.5114-1.1247,.0358-.0885-.1845,.4019-.3626,.8065-.5517,1.2063-.3512,.7425-.7201,1.4765-1.1068,2.201-.7737,1.4497-1.6172,2.8622-2.525,4.2319-.4542,.6852-.9247,1.3595-1.4105,2.0226-.1382,.1888-.9205,1.216-.313,.4319,.6055-.7817-.2926,.3586-.4576,.5603-2.08349,2.5457-4.4034,4.8985-6.92049,7.0164-.29031,.2443-.58341,.4855-.87891,.7235-.1477,.1189-.2982,.2347-.4454,.3543-.52569,.4272,.5387-.4118,.5079-.3916-.7375,.4825-1.4253,1.0533-2.1549,1.5505-1.3574,.9252-2.759,1.7861-4.199,2.5767-.6645,.3648-1.3373,.7145-2.0175,1.0491-.3968,.1952-.7965,.3845-1.1985,.5689-.1723,.0791-.3458,.1554-.518,.2345-.7595,.3489,.1916-.0821,.44031-.1763-1.52591,.5782-3.03231,1.174-4.59481,1.6526-6.1855,1.8946-12.6248,2.7698-19.001,3.7522-6.2255,.9593-12.5368,1.965-18.4477,4.2233-6.9794,2.6665-12.9026,6.6573-17.39549,12.6909-4.99331,6.7056-6.57741,15.3984-5.40261,23.5445,1.0527,7.2995,5.2713,14.3674,11.0254,18.9505,3.2263,2.5697,6.62721,4.5049,10.5637,5.8037,3.0898,1.0195,6.9263-1.1807,7.6462-4.3414,.7794-3.4223-1.0332-6.5546-4.3414-7.6462-.3612-.1191-.7211-.2412-1.07729-.3747-.17781-.0667-.353-.1411-.53091-.2071-.6357-.236,.6378,.2736,.6107,.2557-.7211-.4787-1.6074-.7755-2.3619-1.2165-.6558-.3832-1.2946-.7964-1.9135-1.2367-.1547-.1101-.305-.227-.46039-.3361-.54881-.3856,.52469,.411,.50629,.3908-.2898-.3171-.6925-.5729-1.0148-.8603-.615-.5482-1.2046-1.125-1.7652-1.7287-.2588-.2786-.5116-.5629-.7579-.8525-.1229-.1444-.23839-.2971-.3643-.4388-.5277-.5941,.7263,1.0097,.2717,.3581-.9474-1.3576-1.8329-2.7225-2.5481-4.221-.0776-.1626-.1401-.3673-.24-.5165-.0185-.0276,.4929,1.2467,.255,.6113-.1332-.3559-.2758-.7075-.4013-1.0665-.28-.8012-.5178-1.6171-.7105-2.4437-.1072-.4599-.19989-.9231-.28-1.3885-.0336-.1956-.0466-.4075-.0962-.5993-.0042-.0159,.13531,1.3476,.0967,.6488-.04839-.8774-.1378-1.7448-.1381-2.6256-.0004-.8097,.0378-1.62,.1135-2.4261,.019-.2017,.0456-.4026,.0647-.6042,.08-.8449-.2234,1.2801-.0522,.4491,.0953-.463,.1655-.9305,.2676-1.3926,.1748-.791,.3864-1.5745,.6338-2.346,.1236-.3856,.25631-.7686,.3978-1.148,.0708-.1896,.1502-.3764,.2197-.5663,.28181-.7698-.52519,1.0963-.1491,.3683,.8164-1.5801,1.6411-3.0662,2.6672-4.523,.3894-.5528-.3516,.459-.3508,.4584,.1397-.1038,.2618-.3163,.3758-.45,.2334-.2738,.4723-.5426,.7165-.8067,.5599-.6055,1.14721-1.185,1.7599-1.7368,.2591-.2333,.5226-.4615,.7904-.6847,.1308-.1091,.2816-.2105,.4026-.33,.04531-.0447-1.1162,.82-.5748,.4417,.6124-.4279,1.2082-.8733,1.8384-1.2762,1.2576-.8039,2.5745-1.5137,3.9284-2.1412,.3141-.1455,.63831-.2731,.9496-.4242,.0668-.0324-1.3144,.531-.6821,.2916,.163-.0617,.3237-.1303,.486-.1938,.7634-.2985,1.5354-.5748,2.3135-.8322,1.4132-.4677,2.8469-.8721,4.2912-1.2319,3.0973-.7718,6.2417-1.3384,9.3914-1.8481,6.2759-1.0157,12.6108-1.7865,18.7823-3.3538,6.6398-1.6863,13.0643-4.4792,18.6772-8.4258,11.6709-8.2063,20.6005-20.4893,23.7141-34.529,3.2549-14.6773,.6065-30.5887-7.3474-43.3706-8.0521-12.9395-20.87049-21.2892-34.859-26.6622-13.4176-5.1537-27.654-7.294-41.70549-9.9481-7.28531-1.376-14.55831-2.906-21.65241-5.0817-1.7871-.5481-3.5618-1.1372-5.3187-1.7755-.8078-.2936-1.61189-.5974-2.4115-.9124-.3993-.1573-.79639-.3198-1.19439-.4802-.338-.1363-.97931-.5335,.29849,.1296-.2512-.1303-.527-.2269-.7862-.3409-3.3344-1.4657-6.5747-3.1503-9.6584-5.0905-1.5201-.9564-2.978-1.991-4.4275-3.0497-.5443-.3975,.57561,.4507,.53561,.4164-.138-.1179-.28661-.2257-.42851-.339-.28449-.2271-.5668-.457-.8469-.6896-.606-.5033-1.2018-1.0191-1.7865-1.5472-2.3347-2.1084-4.4954-4.4087-6.4654-6.8611-.1136-.1414-.2241-.2855-.3388-.426-.426-.5219,.447,.5862,.4151,.5416-.2104-.2953-.4387-.5789-.654-.8708-.4669-.6332-.9216-1.2755-1.3642-1.9259-.8861-1.3021-1.723-2.6373-2.5099-4.0015-.7879-1.366-1.5255-2.7607-2.2118-4.1804-.3171-.6557-.6232-1.3167-.9183-1.9826-.0981-.2214-.5993-1.3871-.1913-.4285,.409,.9607-.1398-.3596-.2374-.607-1.1598-2.9389-2.11-5.9606-2.8419-9.034-.3518-1.4773-.6529-2.9666-.9027-4.4645-.0699-.4193-.133-.8394-.1979-1.2595-.1754-1.1362,.161,1.3504,.0261,.2089-.0925-.7835-.1804-1.567-.2495-2.3529-.2704-3.0778-.322-6.1753-.1434-9.2599,.0455-.7853,.1061-1.5696,.1816-2.3525,.0348-.3612,.0728-.7221,.114-1.0827,.0207-.1803,.043-.3603,.064-.5406,.1011-.867-.0399,.3622-.0789,.5733,.2861-1.548,.5015-3.1011,.846-4.6398,.6631-2.961,1.5645-5.8608,2.6811-8.6817,.5564-1.4055,.1041-3.541-.6266-4.7897-.7545-1.2894-2.2329-2.519-3.7147-2.8565-3.5817-.8158-6.3616,1.096-7.6462,4.3413h0Z"></path></g><g><path d="M177.379,141.1404s-1.4142-6.5596-6.5769-10.1459c-5.1626-3.5861-12.9528-2.0976-14.4847,.1698-1.5319,2.2673,.7707,4.1826,.7707,4.1826,0,0-2.6314,.8216-2.874,2.3905-.2426,1.569,1.3927,5.9043,4.4895,7.2053,3.0968,1.3011,17.5581-1.6504,17.8614-1.7169,.3033-.0665,.814-2.0854,.814-2.0854Z" style="fill:#7E57C2;"></path><path d="M177.379,141.1404s-1.4142-6.5596-6.5769-10.1459c-5.1626-3.5861-12.9528-2.0976-14.4847,.1698-1.5319,2.2673,.7707,4.1826,.7707,4.1826,0,0-2.6314,.8216-2.874,2.3905-.2426,1.569,1.3927,5.9043,4.4895,7.2053,3.0968,1.3011,17.5581-1.6504,17.8614-1.7169,.3033-.0665,.814-2.0854,.814-2.0854Z" style="fill:#fff; opacity:.4;"></path><path d="M178.6976,142.7366s6.4771-1.7543,9.7892-7.0968c3.3121-5.3426,1.4195-13.0446-.9246-14.4562s-4.1368,.9877-4.1368,.9877c0,0-.9576-2.585-2.5371-2.7455s-5.5838,1.7956-6.9615,4.8591c-5.0195,11.1612,2.5636,17.4482,2.6458,17.7477,.0823,.2992,2.125,.704,2.125,.704Z" style="fill:#7E57C2;"></path><path d="M178.6976,142.7366s6.4771-1.7543,9.7892-7.0968c3.3121-5.3426,1.4195-13.0446-.9246-14.4562s-4.1368,.9877-4.1368,.9877c0,0-.9576-2.585-2.5371-2.7455s-5.5838,1.7956-6.9615,4.8591c-5.0195,11.1612,2.5636,17.4482,2.6458,17.7477,.0823,.2992,2.125,.704,2.125,.704Z" style="fill:#fff; opacity:.4;"></path><path d="M174.747,141.9438s-11.7732-.6206-15.559,7.4218c-3.7858,8.0423-2.1151,8.9717-.194,9.2593,1.9211,.2877,3.2044,.7885,3.2044,.7885,0,0-.9,3.2533,2.461,3.6408,3.3609,.3875,5.873-1.3124,9.729-4.7985,3.8561-3.486,3.4881-13.9076,2.9252-15.3101,0,0,.7061-1.1483-2.5666-1.0018Z" style="fill:#7E57C2;"></path><path d="M174.747,141.9438s-11.7732-.6206-15.559,7.4218c-3.7858,8.0423-2.1151,8.9717-.194,9.2593,1.9211,.2877,3.2044,.7885,3.2044,.7885,0,0-.9,3.2533,2.461,3.6408,3.3609,.3875,5.873-1.3124,9.729-4.7985,3.8561-3.486,3.4881-13.9076,2.9252-15.3101,0,0,.7061-1.1483-2.5666-1.0018Z" style="fill:#fff; opacity:.4;"></path><path d="M179.2692,143.1228s3.5685-5.6828,9.6452-7.2913c6.0767-1.6084,12.8909,2.4499,13.5567,5.104,.666,2.654-2.1522,3.6683-2.1522,3.6683,0,0,2.193,1.6704,1.8854,3.228s-3.3245,5.0743-6.6794,5.24c-3.355,.1658-15.9401-7.5449-16.2025-7.7109-.2623-.1661-.0532-2.2381-.0532-2.2381Z" style="fill:#7E57C2;"></path><path d="M179.2692,143.1228s3.5685-5.6828,9.6452-7.2913c6.0767-1.6084,12.8909,2.4499,13.5567,5.104,.666,2.654-2.1522,3.6683-2.1522,3.6683,0,0,2.193,1.6704,1.8854,3.228s-3.3245,5.0743-6.6794,5.24c-3.355,.1658-15.9401-7.5449-16.2025-7.7109-.2623-.1661-.0532-2.2381-.0532-2.2381Z" style="fill:#fff; opacity:.4;"></path><path d="M180.9517,145.0638s11.2779,3.4355,12.091,12.2871-1.0745,9.1548-2.9784,8.7694-3.2811-.3527-3.2811-.3527c0,0-.2646,3.3651-3.5559,2.5821-3.2914-.7831-5.0723-3.2385-7.5067-7.8314-2.4344-4.593,1.4689-14.263,2.4767-15.3891,0,0-.2716-1.3203,2.7544-.0654Z" style="fill:#7E57C2;"></path><path d="M180.9517,145.0638s11.2779,3.4355,12.091,12.2871-1.0745,9.1548-2.9784,8.7694-3.2811-.3527-3.2811-.3527c0,0-.2646,3.3651-3.5559,2.5821-3.2914-.7831-5.0723-3.2385-7.5067-7.8314-2.4344-4.593,1.4689-14.263,2.4767-15.3891,0,0-.2716-1.3203,2.7544-.0654Z" style="fill:#fff; opacity:.4;"></path><path d="M184.1272,143.958c-.6477,3.467-4.509,5.1606-7.4983,3.2891-1.6606-1.0396-2.555-3.0787-2.1952-5.0045,.6477-3.467,4.5091-5.1606,7.4984-3.2891,1.6605,1.0395,2.5549,3.0787,2.1951,5.0045Z" style="fill:#7E57C2;"></path><path d="M186.23549,147.53951c3.67654,1.83997,6.20346,6.05532,6.07986,10.16667-1.33133-3.89349-3.27542-7.15485-6.07986-10.16667h0Z" style="fill:#fff; opacity:.2;"></path><path d="M188.3586,124.2142c1.91561,3.6377,1.51288,8.53592-.98334,11.80511,1.18689-3.93994,1.50736-7.72327,.98334-11.80511h0Z" style="fill:#fff; opacity:.2;"></path><path d="M166.4729,129.8819c4.08407,.47184,7.90008,3.56894,9.18994,7.47465-2.58253-3.20342-5.52469-5.60339-9.18994-7.47465h0Z" style="fill:#fff; opacity:.2;"></path><path d="M159.26469,150.12959c1.53666-3.81325,5.53389-6.6728,9.64176-6.88204-3.77308,1.64178-6.86658,3.84328-9.64176,6.88204h0Z" style="fill:#fff; opacity:.2;"></path></g><g><path d="M149.519,212.4619s-4.7076-5.8722-11.6852-6.882c-6.9775-1.0096-14.0472,4.3895-14.4473,7.4323-.4003,3.0428,2.8702,3.8101,2.8702,3.8101,0,0-2.2282,2.1435-1.685,3.8393s4.3575,5.2255,8.1167,4.9782c3.7594-.2472,16.7885-10.4588,17.0595-10.6775,.2709-.2188-.2289-2.5004-.2289-2.5004Z" style="fill:#7E57C2;"></path><path d="M149.519,212.4619s-4.7076-5.8722-11.6852-6.882c-6.9775-1.0096-14.0472,4.3895-14.4473,7.4323-.4003,3.0428,2.8702,3.8101,2.8702,3.8101,0,0-2.2282,2.1435-1.685,3.8393s4.3575,5.2255,8.1167,4.9782c3.7594-.2472,16.7885-10.4588,17.0595-10.6775,.2709-.2188-.2289-2.5004-.2289-2.5004Z" style="fill:#fff; opacity:.4;"></path><path d="M151.6423,213.4023s5.6189-5.0074,6.2634-12.0281-5.1158-13.7992-8.1754-14.0403c-3.0595-.241-3.6552,3.065-3.6552,3.065,0,0-2.2567-2.1134-3.9219-1.4825-1.6652,.6308-4.702,4.6009-4.5483,8.3652,.5597,13.7146,11.3198,16.2204,11.5524,16.4797,.2326,.259,2.485-.359,2.485-.359Z" style="fill:#7E57C2;"></path><path d="M151.6423,213.4023s5.6189-5.0074,6.2634-12.0281-5.1158-13.7992-8.1754-14.0403c-3.0595-.241-3.6552,3.065-3.6552,3.065,0,0-2.2567-2.1134-3.9219-1.4825-1.6652,.6308-4.702,4.6009-4.5483,8.3652,.5597,13.7146,11.3198,16.2204,11.5524,16.4797,.2326,.259,2.485-.359,2.485-.359Z" style="fill:#fff; opacity:.4;"></path><path d="M147.2811,214.5875s-12.1231,5.2799-11.8892,15.2468c.2337,9.9669,2.3758,10.0617,4.4475,9.3871,2.0717-.6745,3.6103-.8154,3.6103-.8154,0,0,.7281,3.7153,4.2944,2.419,3.5663-1.2962,5.2344-4.2612,7.3554-9.692s-3.4731-15.7023-4.741-16.8272c0,0,.1327-1.5061-3.0774,.2817Z" style="fill:#7E57C2;"></path><path d="M147.2811,214.5875s-12.1231,5.2799-11.8892,15.2468c.2337,9.9669,2.3758,10.0617,4.4475,9.3871,2.0717-.6745,3.6103-.8154,3.6103-.8154,0,0,.7281,3.7153,4.2944,2.419,3.5663-1.2962,5.2344-4.2612,7.3554-9.692s-3.4731-15.7023-4.741-16.8272c0,0,.1327-1.5061-3.0774,.2817Z" style="fill:#fff; opacity:.4;"></path><path d="M152.4094,213.5032s.7311-7.4907,6.0214-12.1511c5.2903-4.6603,14.1616-4.0049,16.1603-1.6759,1.9988,2.329-.3201,4.7594-.3201,4.7594,0,0,3.0376,.5766,3.5099,2.2934,.4724,1.717-.7914,6.7578-4.0743,8.6061-3.2829,1.8484-19.7753,.4218-20.1218,.3868-.3464-.0351-1.1754-2.2187-1.1754-2.2187Z" style="fill:#7E57C2;"></path><path d="M152.4094,213.5032s.7311-7.4907,6.0214-12.1511c5.2903-4.6603,14.1616-4.0049,16.1603-1.6759,1.9988,2.329-.3201,4.7594-.3201,4.7594,0,0,3.0376,.5766,3.5099,2.2934,.4724,1.717-.7914,6.7578-4.0743,8.6061-3.2829,1.8484-19.7753,.4218-20.1218,.3868-.3464-.0351-1.1754-2.2187-1.1754-2.2187Z" style="fill:#fff; opacity:.4;"></path><path d="M155.0706,214.607s13.0375-2.2074,18.291,6.2658c5.2535,8.4731,3.5118,9.7236,1.4084,10.2915-2.1035,.5678-3.4688,1.2911-3.4688,1.2911,0,0,1.4217,3.5089-2.2731,4.3734s-6.7125-.7062-11.4577-4.0938c-4.7452-3.3875-5.6771-15.0463-5.2306-16.6815,0,0-.9345-1.1884,2.7308-1.4465Z" style="fill:#7E57C2;"></path><path d="M155.0706,214.607s13.0375-2.2074,18.291,6.2658c5.2535,8.4731,3.5118,9.7236,1.4084,10.2915-2.1035,.5678-3.4688,1.2911-3.4688,1.2911,0,0,1.4217,3.5089-2.2731,4.3734s-6.7125-.7062-11.4577-4.0938c-4.7452-3.3875-5.6771-15.0463-5.2306-16.6815,0,0-.9345-1.1884,2.7308-1.4465Z" style="fill:#fff; opacity:.4;"></path><path d="M157.9028,212.9719c.2779,3.034-1.9564,5.7187-4.9904,5.9965-3.0339,.2778-5.7187-1.9565-5.9965-4.9905s1.9565-5.7186,4.9905-5.9965c3.0339-.2777,5.7187,1.9566,5.9964,4.9905Z" style="fill:#7E57C2;"></path><path d="M161.61301,214.4418c4.59609,.09052,9.18605,3.01615,11.19703,7.15205-3.21515-3.29068-6.85718-5.62335-11.19703-7.15205h0Z" style="fill:#fff; opacity:.2;"></path><path d="M152.0488,189.9753c3.68248,2.75171,5.70779,7.804,4.93196,12.33698-.69532-4.54779-2.29574-8.5658-4.93196-12.33698h0Z" style="fill:#fff; opacity:.2;"></path><path d="M132.9325,206.63409c4.34998-1.48661,9.66367-.30698,12.96771,2.89194-4.14659-1.99284-8.36675-2.93946-12.96771-2.89194h0Z" style="fill:#fff; opacity:.2;"></path><path d="M135.85179,230.56239c-.28144-4.58839,2.26345-9.39993,6.22326-11.73872-3.01999,3.47069-5.05051,7.28946-6.22326,11.73872h0Z" style="fill:#fff; opacity:.2;"></path></g><g><path d="M199.07659,153.4797l-16.0424,40.7119,11.3671,34.9546-10.004,.486s-17.1675-31.4723-16.4496-36.1644c.7178-4.6922,13.6454-43.6854,13.6454-43.6854l17.4835,3.6973Z" style="fill:#895555;"></path><path d="M192.227,226.0007s3.7556,.4482,5.6607,2.9285c1.9051,2.4802,4.0862,3.9537,5.3752,5.8955,1.2887,1.9416-1.7411,1.0957-3.2617,.3194-1.5205-.7764-3.2521-1.6408-3.65019-.4043-.3985,1.2363,1.919,12.1658,1.1715,13.8172-.7473,1.6515-1.6751,.0009-1.6751,.0009,0,0,.4914,2.6695-.5132,3.1523-.2608,.1254-1.0709-.0062-1.4857-1.1877-.9326-2.658-2.6028-8.3371-2.6028-8.3371,.1024,.324,1.6634,7.4812,1.7573,8.5836,.1227,1.4409-.5544,2.183-1.392,2.2266-1.1923,.0625-3.4301-8.7454-3.7842-9.0508,0,0,1.4579,5.0277,.3661,6.1142-1.092,1.0867-2.1823-2.0282-2.6221-4.9573-.4032-2.6851-1.8971-7.8471-2.0422-10.6165-.1786-3.4126,.4679-5.744,3.3122-7.2199,2.8445-1.4758,5.3862-1.2646,5.3862-1.2646Z" style="fill:#895555;"></path><g><polygon points="218.51489 357.5477 227.309 330.5074 244.16359 337.5943 227.78569 366.5945 218.51489 357.5477" style="fill:#7E57C2;"></polygon><polygon points="218.51489 357.5477 227.309 330.5074 244.16359 337.5943 227.78569 366.5945 218.51489 357.5477" style="fill:#fff; opacity:.7;"></polygon><g><path d="M212.15379,369.6416l8.7097,4.0731s1.6597-.1139,2.429,.3138c.7663,.4276,3.358,2.095,3.358,2.095l17.6959,7.4808c.151-.7708,.2353-1.4776,.2654-2.1238,.0367-.7873-.01-1.4865-.1256-2.1098-.4066-2.1805-1.3198-3.3881-2.9389-4.1775-2.4662-1.202-8.35129-9.5024-8.35129-9.5024,0,0-2.49261-2.1497-1.45071-5.1011,.38971-1.1065-.7624-3.1353-1.5266-3.581-1.5582-.9114-2.8844-.3116-3.7685,1.1383l-1.0248,1.6854-3.5818-2.146s-3.1182-3.4494-3.6699-1.5896c-.3144,1.0617-3.4531,4.6199-4.5362,8.3824-.2516,.8773-.4914,1.7068-.7014,2.4345l.0015,.0013c-.46559,1.6157-.7838,2.7266-.7838,2.7266Z" style="fill:#263238;"></path><path d="M244.34619,383.6043l-17.6956-7.4809s-2.5918-1.6673-3.3581-2.0949c-.7693-.4278-2.4289-.3138-2.4289-.3138l-8.7099-4.0732s.31831-1.1108,.7839-2.7265l31.6742,14.5655c-.0301,.6462-.1144,1.353-.2656,2.1238Z" style="fill:#fff; opacity:.7;"></path><path d="M236.38859,369.1913c-.0517-.1118-.1775-.1741-.3002-.1538-.5635,.0927-1.103,.3303-1.564,.7182-.2429,.2044,.0577,.6243,.303,.418,.4094-.3447,.883-.5562,1.37561-.6381,.16449-.0274,.25719-.1896,.18779-.3395l-.0022-.0048Z" style="fill:#fff;"></path><path d="M235.28229,367.7986c-.0518-.1118-.1774-.174-.3004-.1537-.5634,.0927-1.1031,.3303-1.5638,.718-.2429,.2044,.0576,.6244,.30291,.4181,.40959-.3445,.883-.5561,1.37549-.6379,.1646-.0275,.2574-.1897,.188-.3396l-.0022-.0049Z" style="fill:#fff;"></path><path d="M234.10889,366.4399c-.0517-.1118-.1775-.174-.3002-.1536-.5635,.0927-1.1031,.3303-1.564,.718-.2429,.2045,.0576,.6245,.303,.418,.40931-.3446,.8829-.5561,1.3754-.6377,.1648-.0277,.2574-.1898,.188-.3399l-.0022-.0048Z" style="fill:#fff;"></path></g><polygon points="225.68429 335.2104 241.92769 341.5343 240.22889 344.5615 224.62919 338.7472 225.68429 335.2104" style="fill:#7E57C2;"></polygon><polygon points="224.16749 339.8604 239.67669 345.539 239.05939 346.6323 223.68419 341.3898 224.16749 339.8604" style="fill:#7E57C2;"></polygon></g><path d="M252.19439,236.7057l6.3551-26.903c-2.17549-3.1274-7.6484-13.1353-7.6484-13.1353l-46.651,8.5074s-1.7617,7.5719-1.3386,13.9276c1.60151,23.845,34.9702,55.1247,36.2884,63.752-4.869,19.8138-21.55489,66.5673-21.55489,66.5673l21.04839,7.2516s26.7039-55.3708,27.5818-70.8187c.8779-15.448-16.6745-46.1846-16.6745-46.1846l2.5937-2.9643Z" style="fill:#263238;"></path><path d="M227.22429,140.5248c2.5165,3.6674,6.4665,7.6665,14.4291,3.7366,5.3574-2.6441,12.5223-10.3519,22.3224-18.6098l-14.9487-12.7522c-5.9379,4.9694-9.80509,7.7379-17.7636,14.6796-10.43649,10.792-4.0392,12.9458-4.0392,12.9458Z" style="fill:#7E57C2;"></path><g><path d="M248.65219,151.7856c-1.4735-4.9892-3.5629-11.174-5.291-16.1309-1.8565-5.3253-6.31319-9.1199-11.952-9.0204-8.6505,.1528-17.7527,.1705-32.3386,4.0742l-3.1824,25.3739,7.8757,40.4751s-.0474,9.8259-2.0911,18.7435c21.0993,6.4494,47.0685,5.0074,59.7753-3.599,0,0-9.83309-49.885-12.7959-59.9164Z" style="fill:#7E57C2;"></path><path d="M207.88939,128.7148s6.611,7.2954,16.3449,5.0905,7.4914-7.1724,7.4914-7.1724c0,0-1.0259,.0215-2.6391,.0331-4.4387,.032-13.7052,.2826-21.1972,2.0488Z" style="fill:#263238; opacity:.7;"></path><path d="M199.38419,130.7215s-8.3441-.7177-12.5714,7.8213c-3.8926,7.863-13.5195,25.0817-13.5195,25.0817l20.0655,8.5038,11.1398-19.8226-5.1144-21.5842Z" style="fill:#7E57C2;"></path></g><g><path d="M210.59019,129.3913c4.9531-4.7431,3.962-17.6145,2.6413-24.2621l15.5901,12.0142c-.3147,.7782-.5753,1.5774-.7801,2.3914-.4208,1.4573-.4591,2.9984-.1116,4.4748,.3382,1.2153,1.9094,4.5658,1.9094,4.5658,0,0,.9659,3.7922-9.1451,4.1926-4.4171,.6542-10.104-3.3767-10.104-3.3767Z" style="fill:#895555;"></path><g><g><path d="M210.34979,99.4338c2.366,9.1345,3.5107,14.3338,9.2327,18.1326,8.6073,5.7141,19.3034-.57,19.7967-10.2517,.44381-8.7142-3.5-22.1883-13.5266-24.0301-9.8785-1.8147-17.8687,7.0145-15.5028,16.1492Z" style="fill:#895555;"></path><path d="M206.35959,87.0014c.347-5.7044,14.3795-8.3969,18.8378-6.3513,.6663,.3056-6.8695,5.9239-6.3996,5.6506l-3.66279,2.0499c-.62841-.017-1.68121,.89-1.94421,2.8254,0,0,3.3637,15.059-.2092,20.2706-3.8743-1.016-5.2382-6.9788-7.0462-10.3426-2.6941-5.0117-6.2057-12.4337,.4242-14.1026Z" style="fill:#263238;"></path><path d="M208.07619,107.8445c1.2193,2.2376,3.3939,3.7013,5.4575,4.2582,3.1042,.8378,3.5819-2.3771,2.7514-5.239-.7474-2.576-2.1504-5.6216-5.2815-5.1978-3.0847,.4178-4.3215,3.6205-2.9274,6.1786Z" style="fill:#895555;"></path><path d="M223.27539,99.1551c.1824,.9461,.8459,1.611,1.4825,1.4854,.6362-.1255,1.0045-.9943,.82211-1.9404-.18211-.9459-.84581-1.611-1.482-1.4854-.63641,.1256-1.00471,.9943-.82261,1.9404Z" style="fill:#263238;"></path><path d="M232.89139,98.0444c.182,.9461,.8457,1.6111,1.4821,1.4855s1.00451-.9943,.8223-1.9404c-.1821-.9461-.84579-1.6111-1.482-1.4854-.6364,.1256-1.0047,.9943-.8224,1.9403Z" style="fill:#263238;"></path><path d="M230.86489,98.0002s3.989,4.1224,5.346,5.851c-1.1265,1.4436-3.5672,1.3331-3.5672,1.3331l-1.7788-7.1841Z" style="fill:#6d3939;"></path><path d="M221.24669,95.5361c.1582,.0307,.3298-.0199,.4454-.1482,1.3747-1.5213,3.0692-1.3206,3.0862-1.3186,.2536,.0328,.4902-.1401,.528-.3862,.0375-.2461-.1385-.4724-.3906-.5057-.0894-.012-2.2131-.2642-3.9182,1.6239-.1704,.1883-.1528,.4726,.0389,.6345,.0621,.0528,.1345,.0857,.2103,.1003Z" style="fill:#263238;"></path></g><path d="M214.63672,107.08496c-.10596,0-.20459-.06787-.23828-.1748-.2334-.7373-.66357-1.40479-1.24463-1.92969-.37695-.34033-.97656-.75391-1.69238-.78906-.64307-.0249-1.2583,.30176-1.47559,.79102-.05615,.12646-.20312,.18311-.33008,.12695-.12598-.05615-.18311-.2041-.12695-.33008,.30273-.68115,1.09521-1.13379,1.95703-1.08691,.86328,.04199,1.56592,.52197,2.00293,.91699,.64697,.58447,1.12646,1.32812,1.38623,2.15039,.0415,.13135-.03125,.27197-.16309,.31348-.0249,.00781-.05029,.01172-.0752,.01172Z" style="opacity:.2;"></path></g><path d="M237.519,93.1591c.08129-.0336,.15369-.0902,.20639-.1676,.1425-.2087,.0872-.4897-.12439-.6271-2.12121-1.3779-4.08171-.5519-4.17441-.526-.2348,.1004-.3448,.367-.24559,.596,.09889,.2282,.36759,.3326,.60169,.2354,.08031-.0376,1.5989-.6549,3.3015,.4511,.1332,.0867,.2967,.0956,.43481,.0382Z" style="fill:#263238;"></path><g><path d="M232.47219,108.3678c-.7367,1.0724-1.3948,2.1967-1.9689,3.3643-.2179-.0659-.4425-.1278-.65729-.2043-2.969-.9393-4.04141-2.3512-4.31321-3.6403-.1223-.6327-.0942-1.2851,.08221-1.9049,.091-.3516,.23039-.6889,.41419-1.0021,1.2776,1.4397,3.9699,2.5272,5.4377,3.0469,.6427,.1944,1.0053,.3404,1.0053,.3404Z" style="fill:#263238;"></path><path d="M231.50109,108.008l-.6089,.9772c-2.7873-.8892-4.6314-1.8809-5.24319-3.022,.09109-.3516,.23039-.6889,.41429-1.002,1.2854,1.4533,3.97,2.5271,5.4378,3.0468Z" style="fill:#fff;"></path><path d="M229.88,111.5084c-2.96891-.9393-4.04131-2.3512-4.313-3.6403,1.12139,.3774,2.16739,.9501,3.08949,1.6919,.6007,.5063,1.0286,1.1874,1.22351,1.9484Z" style="fill:#c15854;"></path></g><path d="M210.88269,85.4227s4.30331-14.092,17.2079-13.7599c-1.16359,.4838-2.224,1.1854-3.1243,2.0672,0,0,10.6665-2.9445,15.4485,4.0482l-2.3034-.8255s3.9165,5.7893,1.44861,10.5463l-.98381-1.9779s-3.4248,6.3159-10.34419,5.9778l2.07539-1.594s-11.4723,1.7526-14.7791-.6219c-1.6887-1.1081-3.2471-2.403-4.6456-3.8603Z" style="fill:#263238;"></path></g></g><rect x="186.9552" y="389.7534" width="115.3378" height="18.9667" style="fill:#263238;"></rect><path d="M194.5875,402.3964c-1.5379-.9314,11.1415,64.1704,11.1415,64.1704h77.17949l11.7911-64.1803-100.1121,.0099Z" style="fill:#263238;"></path><g><g><path d="M250.37929,114.053l19.729-15.4876,6.89871-31.5173,7.79249,4.0703s-.96049,31.4532-3.586,34.6885c-2.6254,3.2353-18.7227,18.5779-18.7227,18.5779l-12.1115-10.3318Z" style="fill:#895555;"></path><path d="M284.51679,79.2863l.6659-11.1229s1.5831-1.7724,2.39831-3.2846c.81509-1.5121,1.75139-3.483,1.07209-6.2558s-1.981-1.1085-1.981-1.1085c-1.0603-2.6849-3.2997-1.6069-3.2997-1.6069-.867-2.3684-3.3409-1.4369-3.3409-1.4369,0,0-2.9429,.6383-3.9747,1.5583-1.032,.9201-1.3322,5.8848-1.3322,5.8848l2.28241,5.1343-1.77211,10.9616c.1964,.0207,9.2819,1.2766,9.2819,1.2766Z" style="fill:#895555;"></path><path d="M288.32849,61.2638c-.00411,.48877-.37446,.95322-.87719,.99599-.53716,.0457-.98631-.35017-1.07402-.86602-.09871-.58063,.09651-1.20931,.15601-1.78664,.0687-.6667,.08148-1.33694,.0454-2.00602-.01553-.28804-.46563-.28987-.45,0,.0459,.85134,.01179,1.70504-.11416,2.54859-.10067,.67421-.24339,1.43918,.22143,2.01748,.37173,.46249,1.03868,.67201,1.60078,.46249,.56438-.21037,.93674-.76916,.94175-1.36585,.00244-.28964-.44756-.28991-.45,0h0Z" style="opacity:.3;"></path><path d="M285.58809,60.5335c-.39864,.44816-.97644,.80654-1.59985,.72702-.57752-.07366-1.06166-.52002-1.0746-1.11611-.00744-.34242,.10232-.68217,.16336-1.01614,.06015-.32912,.10352-.66224,.12874-.99588,.05442-.71999,.01637-1.43872-.09208-2.1519-.04339-.28537-.47707-.16413-.43393,.11963,.13309,.87524,.13932,1.774,.00656,2.64983-.10605,.69967-.41797,1.47482-.02611,2.14113,.29585,.50306,.87105,.81235,1.44851,.82902,.69739,.02014,1.34599-.3607,1.7976-.8684,.19191-.21575-.12525-.53512-.3182-.3182h0Z" style="opacity:.3;"></path><path d="M281.98539,59.2729c-.41072,.35001-1.04602,.43709-1.53,.19059-.48738-.24823-.78893-.77251-.7743-1.31629,.00779-.28968-.44221-.28949-.45,0-.01893,.70359,.39066,1.41663,1.03244,1.72228,.67207,.32008,1.47644,.20192,2.04006-.27838,.22075-.18812-.09885-.50512-.3182-.3182h0Z" style="opacity:.3;"></path></g><g><polygon points="246.45869 58.0188 254.005 83.9234 280.10209 76.8813 271.21229 50.9027 246.45869 58.0188" style="fill:#7E57C2;"></polygon><path d="M239.494,65.149l.11109-4.6234s-4.31409,4.2053-5.5959,8.9511l4.4367-1.9505,16.1523,13.2902-1.0466-8.4963-14.05759-7.1711Z" style="fill:#7E57C2;"></path><path d="M253.5786,59.12612c-.61168-3.01462-1.27884-6.23719-.28973-9.24708,.80151-2.43904,2.73724-4.47866,5.42944-4.56113,2.78626-.08535,5.16192,1.63926,6.56752,3.94089,1.58954,2.60282,1.95102,5.68925,1.98676,8.68079,.01153,.96454,1.51156,.96714,1.5,0-.05897-4.93533-1.30412-10.85783-6.19323-13.25013-2.21563-1.08414-4.92972-1.23045-7.11161,.02269-1.95726,1.12413-3.22523,3.18962-3.79131,5.33153-.825,3.12166-.17185,6.38815,.45574,9.48119,.19181,.94533,1.63796,.54522,1.44642-.39876h0Z" style="fill:#7E57C2;"></path><path d="M270.80102,55.41883c1.82009-1.48365,4.35834-2.03032,6.58222-1.18889,2.16909,.8207,3.65021,2.78251,3.91577,5.07118,.55659,4.79684-2.2857,10.4958-7.0112,12.05657-.91234,.30133-.52153,1.75038,.39876,1.44642,2.80396-.92611,5.03454-2.987,6.39561-5.58841,1.39316-2.66274,2.21625-6.04796,1.54323-9.02814-.58563-2.59319-2.5866-4.67044-5.09718-5.49279-2.70341-.88551-5.62997-.09562-7.78787,1.6634-.74856,.61019,.31824,1.66584,1.06066,1.06066h0Z" style="fill:#7E57C2;"></path></g><path d="M277.73659,65.932c3.7679-1.4131,2.9423-5.7662,1.3666-6.4556,.1994-.9024,.24181-1.1289,.4412-2.0312,.5812-.0146,1.739-.6845,2.2779-.9024,.539-.2179,.9233-.6725,.67571-1.2838-.21831-.5388-.37911-.6557-5.67971,.3717" style="fill:#895555;"></path></g><g><path d="M346.40389,225.4945c-9.3051,1.4036-18.47589,4.955-25.4168,11.3094-6.46609,5.9197-10.6963,16.3809-10.6294,25.1035,5.691,1.7759,9.975,3.7847,15.8781,4.6167,5.9308,.8358,13.4624-1.4749,19.0938-3.5142,7.6216-2.76,13.6951-8.7689,18.1843-15.5182,4.48911-6.7494,7.6009-14.2975,11.0307-21.642-9.3411-1.1403-18.83559-1.7587-28.1407-.3552Z" style="fill:#7E57C2;"></path><g><path d="M304.18442,267.22993c13.98322-12.19176,30.07309-21.89248,47.38725-28.55712,.8916-.3432,.50435-1.79405-.39876-1.44642-13.67828,5.2651-26.6228,12.36168-38.37231,21.1283-3.32441,2.48043-6.55057,5.08884-9.67683,7.81458-.72895,.63556,.33563,1.6928,1.06066,1.06066h0Z" style="fill:#7E57C2;"></path><path d="M304.18442,267.22993c13.98322-12.19176,30.07309-21.89248,47.38725-28.55712,.8916-.3432,.50435-1.79405-.39876-1.44642-13.67828,5.2651-26.6228,12.36168-38.37231,21.1283-3.32441,2.48043-6.55057,5.08884-9.67683,7.81458-.72895,.63556,.33563,1.6928,1.06066,1.06066h0Z" style="opacity:.3;"></path></g></g><g><path d="M287.14,215.927c-3.45281,6.2735-5.54511,13.4587-4.91231,20.5916,.5894,6.6449,4.9576,14.0376,10.2612,18.029,3.70411-2.6192,6.8986-4.2802,10.13011-7.4639,3.24669-3.1987,5.33129-8.8196,6.70169-13.1663,1.8546-5.8829,1.0297-12.3317-.975-18.1651-2.0048-5.8334-5.1292-11.2034-7.9834-16.6716-5.0071,5.1194-9.7696,10.5728-13.22229,16.8463Z" style="fill:#7E57C2;"></path><g><path d="M289.9948,265.49428c4.60351-12.61483,6.96851-25.97687,6.99129-39.40498,.00164-.96525-1.49836-.9667-1.5,0-.02257,13.30418-2.377,26.50869-6.93771,39.00622-.33145,.90826,1.11761,1.29979,1.44642,.39876h0Z" style="fill:#7E57C2;"></path><path d="M289.9948,265.49428c4.60351-12.61483,6.96851-25.97687,6.99129-39.40498,.00164-.96525-1.49836-.9667-1.5,0-.02257,13.30418-2.377,26.50869-6.93771,39.00622-.33145,.90826,1.11761,1.29979,1.44642,.39876h0Z" style="opacity:.3;"></path></g></g><g><path d="M299.55959,317.8348c-1.4092-5.4291-5.1565-10.0015-9.5164-13.5303-3.4804-2.8169-7.3681-5.062-11.2563-7.2965-1.4568-.8372-3.3145,.0006-3.6324,1.6505-1.0183,5.2853-1.6729,10.6489-1.3711,16.0126,.3658,6.5013,2.2201,13.0489,6.1494,18.2412,3.6606,4.8371,10.5944,8.4273,16.608,8.9447,1.59121-3.806,1.8554-7.7013,2.8099-11.7144,.9589-4.032,1.2501-8.2964,.2089-12.3078Z" style="fill:#7E57C2;"></path><g><path d="M301.2101,355.53432c-2.30211-13.22731-6.92006-25.98549-13.59941-37.63166-.48016-.83722-1.77674-.08254-1.29521,.75708,6.61915,11.54121,11.16702,24.16635,13.44819,37.27334,.16521,.94924,1.611,.54687,1.44642-.39876h0Z" style="fill:#7E57C2;"></path><path d="M301.2101,355.53432c-2.30211-13.22731-6.92006-25.98549-13.59941-37.63166-.48016-.83722-1.77674-.08254-1.29521,.75708,6.61915,11.54121,11.16702,24.16635,13.44819,37.27334,.16521,.94924,1.611,.54687,1.44642-.39876h0Z" style="opacity:.3;"></path></g></g><g><path d="M341.15049,355.4439c-6.25-1.2722-12.9146-1.1459-18.8119,1.2837-5.4939,2.2634-10.2257,6.6945-12.2132,12.2626,3.2095,2.4551,6.4381,4.919,10.0022,6.8225,3.5808,1.9124,7.5483,3.25,11.6077,3.2625,5.4941,.0169,10.7588-2.3947,15.1874-5.6463,4.4285-3.2517,8.1661-7.3324,12.0589-11.2095-5.681-2.8999-11.581-5.5033-17.8311-6.7755Z" style="fill:#7E57C2;"></path><g><path d="M334.54609,367.6956c-13.22702,1.41126-26.61286,.51577-39.52852-2.67051-.93716-.2312-1.33699,1.21496-.39876,1.44642,13.03903,3.21672,26.57238,4.14899,39.92728,2.72409,.94993-.10135,.9603-1.60246,0-1.5h0Z" style="fill:#7E57C2;"></path><path d="M334.54609,367.6956c-13.22702,1.41126-26.61286,.51577-39.52852-2.67051-.93716-.2312-1.33699,1.21496-.39876,1.44642,13.03903,3.21672,26.57238,4.14899,39.92728,2.72409,.94993-.10135,.9603-1.60246,0-1.5h0Z" style="opacity:.3;"></path></g></g><g><path d="M292.05039,263.3155s-.9189-4.5424-4.4526-7.0644c-3.5336-2.5219-8.9265-1.5625-10.0043-.0102-1.0779,1.5523,.4954,2.8952,.4954,2.8952,0,0-1.8244,.5442-2.0057,1.6256-.1814,1.0814,.90981,4.0897,3.0369,5.0153,2.1272,.9258,12.1398-.9853,12.34991-1.0285,.21-.0433,.58039-1.433,.58039-1.433Z" style="fill:#7E57C2;"></path><path d="M292.05039,263.3155s-.9189-4.5424-4.4526-7.0644c-3.5336-2.5219-8.9265-1.5625-10.0043-.0102-1.0779,1.5523,.4954,2.8952,.4954,2.8952,0,0-1.8244,.5442-2.0057,1.6256-.1814,1.0814,.90981,4.0897,3.0369,5.0153,2.1272,.9258,12.1398-.9853,12.34991-1.0285,.21-.0433,.58039-1.433,.58039-1.433Z" style="fill:#fff; opacity:.4;"></path><path d="M292.947,264.4294s4.48839-1.1545,6.82269-4.8148c2.3342-3.6603,1.095-8.9958-.5114-9.9913-1.6064-.9954-2.8655,.6457-2.8655,.6457,0,0-.6385-1.7936-1.7279-1.9183s-3.8718,1.1909-4.8502,3.2943c-3.5646,7.6636,1.6169,12.072,1.671,12.2795,.0542,.2074,1.46131,.5049,1.46131,.5049Z" style="fill:#7E57C2;"></path><path d="M292.947,264.4294s4.48839-1.1545,6.82269-4.8148c2.3342-3.6603,1.095-8.9958-.5114-9.9913-1.6064-.9954-2.8655,.6457-2.8655,.6457,0,0-.6385-1.7936-1.7279-1.9183s-3.8718,1.1909-4.8502,3.2943c-3.5646,7.6636,1.6169,12.072,1.671,12.2795,.0542,.2074,1.46131,.5049,1.46131,.5049Z" style="fill:#fff; opacity:.4;"></path><path d="M290.22579,263.8472s-8.1249-.5322-10.81,4.9884c-2.6852,5.5206-1.5397,6.1771-.2155,6.3926,1.3242,.2156,2.206,.5728,2.206,.5728,0,0-.6502,2.2387,1.6674,2.5359s4.0674-.8547,6.761-3.2282c2.6935-2.3735,2.5311-9.5736,2.1547-10.5472,0,0,.4977-.7867-1.7636-.7143Z" style="fill:#7E57C2;"></path><path d="M290.22579,263.8472s-8.1249-.5322-10.81,4.9884c-2.6852,5.5206-1.5397,6.1771-.2155,6.3926,1.3242,.2156,2.206,.5728,2.206,.5728,0,0-.6502,2.2387,1.6674,2.5359s4.0674-.8547,6.761-3.2282c2.6935-2.3735,2.5311-9.5736,2.1547-10.5472,0,0,.4977-.7867-1.7636-.7143Z" style="fill:#fff; opacity:.4;"></path><path d="M293.33839,264.7011s2.5143-3.893,6.7249-4.9504c4.2106-1.0572,8.8806,1.8053,9.3171,3.644s-1.5185,2.5143-1.5185,2.5143c0,0,1.4997,1.1729,1.2735,2.2458-.226,1.073-2.34039,3.475-4.6587,3.5599-2.3184,.085-10.9415-5.3506-11.1213-5.4675-.1797-.117-.017-1.5461-.017-1.5461Z" style="fill:#7E57C2;"></path><path d="M293.33839,264.7011s2.5143-3.893,6.7249-4.9504c4.2106-1.0572,8.8806,1.8053,9.3171,3.644s-1.5185,2.5143-1.5185,2.5143c0,0,1.4997,1.1729,1.2735,2.2458-.226,1.073-2.34039,3.475-4.6587,3.5599-2.3184,.085-10.9415-5.3506-11.1213-5.4675-.1797-.117-.017-1.5461-.017-1.5461Z" style="fill:#fff; opacity:.4;"></path><path d="M294.48319,266.0563s7.7581,2.4718,8.2417,8.5917-.8225,6.3127-2.134,6.0297c-1.3114-.2829-2.2627-.2724-2.2627-.2724,0,0-.2124,2.3216-2.4784,1.7518-2.2661-.5697-3.4743-2.281-5.1151-5.4742s1.1399-9.8368,1.8458-10.6056c0,0-.176-.9142,1.9027-.021Z" style="fill:#7E57C2;"></path><path d="M294.48319,266.0563s7.7581,2.4718,8.2417,8.5917-.8225,6.3127-2.134,6.0297c-1.3114-.2829-2.2627-.2724-2.2627-.2724,0,0-.2124,2.3216-2.4784,1.7518-2.2661-.5697-3.4743-2.281-5.1151-5.4742s1.1399-9.8368,1.8458-10.6056c0,0-.176-.9142,1.9027-.021Z" style="fill:#fff; opacity:.4;"></path><path d="M296.49469,265.9609c-.7043,1.7388-2.6848,2.5775-4.4236,1.8732s-2.5775-2.6848-1.8732-4.4236c.7043-1.7389,2.6848-2.5775,4.4237-1.8732,1.7388,.7043,2.57741,2.6848,1.8731,4.4236Z" style="fill:#7E57C2;"></path><path d="M298.11029,267.8125c2.65865,1.12209,4.45679,4.20737,4.10915,7.07437-1.10951-2.66736-2.3376-4.79218-4.10915-7.07437h0Z" style="fill:#fff; opacity:.2;"></path><path d="M299.78159,251.72321c1.50692,2.46112,1.1703,6.01628-.78284,8.14371,.65262-2.81428,.89281-5.25668,.78284-8.14371h0Z" style="fill:#fff; opacity:.2;"></path><path d="M284.61789,255.4447c2.88216,.14523,5.62684,2.42966,6.28074,5.24266-1.95487-2.12707-3.83549-3.70388-6.28074-5.24266h0Z" style="fill:#fff; opacity:.2;"></path><path d="M279.46201,269.36389c.90344-2.7407,3.83321-4.78243,6.71896-4.66784-2.5689,1.32162-4.58746,2.71751-6.71896,4.66784h0Z" style="fill:#fff; opacity:.2;"></path></g><g><path d="M311.67669,331.4404s-2.0598-2.5694-5.1129-3.0112-6.1464,1.9206-6.3215,3.252c-.1752,1.3314,1.2558,1.6671,1.2558,1.6671,0,0-.9749,.9379-.7372,1.6799s1.9066,2.2865,3.5515,2.1783,7.3459-4.5763,7.4645-4.672c.1185-.0958-.1002-1.0941-.1002-1.0941Z" style="fill:#7E57C2;"></path><path d="M311.67669,331.4404s-2.0598-2.5694-5.1129-3.0112-6.1464,1.9206-6.3215,3.252c-.1752,1.3314,1.2558,1.6671,1.2558,1.6671,0,0-.9749,.9379-.7372,1.6799s1.9066,2.2865,3.5515,2.1783,7.3459-4.5763,7.4645-4.672c.1185-.0958-.1002-1.0941-.1002-1.0941Z" style="fill:#fff; opacity:.4;"></path><path d="M312.60579,331.8519s2.4585-2.191,2.7405-5.263c.282-3.0719-2.2384-6.0379-3.5771-6.1434-1.3388-.1054-1.5994,1.3411-1.5994,1.3411,0,0-.9875-.9247-1.7161-.6486-.7286,.276-2.0573,2.0131-1.9901,3.6602,.2449,6.0009,4.953,7.0973,5.0548,7.2108,.1018,.1133,1.0874-.1571,1.0874-.1571Z" style="fill:#7E57C2;"></path><path d="M312.60579,331.8519s2.4585-2.191,2.7405-5.263c.282-3.0719-2.2384-6.0379-3.5771-6.1434-1.3388-.1054-1.5994,1.3411-1.5994,1.3411,0,0-.9875-.9247-1.7161-.6486-.7286,.276-2.0573,2.0131-1.9901,3.6602,.2449,6.0009,4.953,7.0973,5.0548,7.2108,.1018,.1133,1.0874-.1571,1.0874-.1571Z" style="fill:#fff; opacity:.4;"></path><path d="M310.69749,332.3705s-5.30449,2.3103-5.2022,6.6713c.1023,4.3611,1.0396,4.4026,1.946,4.1074,.9065-.2951,1.5798-.3568,1.5798-.3568,0,0,.3185,1.6257,1.879,1.0585,1.5604-.5672,2.2903-1.8646,3.2184-4.2408,.928-2.3763-1.5197-6.8707-2.07449-7.3629,0,0,.05809-.659-1.34651,.1233Z" style="fill:#7E57C2;"></path><path d="M310.69749,332.3705s-5.30449,2.3103-5.2022,6.6713c.1023,4.3611,1.0396,4.4026,1.946,4.1074,.9065-.2951,1.5798-.3568,1.5798-.3568,0,0,.3185,1.6257,1.879,1.0585,1.5604-.5672,2.2903-1.8646,3.2184-4.2408,.928-2.3763-1.5197-6.8707-2.07449-7.3629,0,0,.05809-.659-1.34651,.1233Z" style="fill:#fff; opacity:.4;"></path><path d="M312.94139,331.896s.3199-3.2775,2.6347-5.3167c2.3148-2.0391,6.1965-1.7524,7.071-.7333,.8746,1.019-.14,2.0825-.14,2.0825,0,0,1.3291,.2523,1.5357,1.0035,.2067,.7512-.3462,2.9569-1.7827,3.7656-1.4364,.8088-8.6528,.1846-8.8044,.1693-.1516-.0154-.5143-.9709-.5143-.9709Z" style="fill:#7E57C2;"></path><path d="M312.94139,331.896s.3199-3.2775,2.6347-5.3167c2.3148-2.0391,6.1965-1.7524,7.071-.7333,.8746,1.019-.14,2.0825-.14,2.0825,0,0,1.3291,.2523,1.5357,1.0035,.2067,.7512-.3462,2.9569-1.7827,3.7656-1.4364,.8088-8.6528,.1846-8.8044,.1693-.1516-.0154-.5143-.9709-.5143-.9709Z" style="fill:#fff; opacity:.4;"></path><path d="M314.10579,332.379s5.7046-.9658,8.0033,2.7416c2.2988,3.7075,1.5367,4.2547,.6163,4.5032-.92039,.2484-1.5178,.5649-1.5178,.5649,0,0,.6221,1.5353-.99459,1.9136-1.61671,.3782-2.93711-.309-5.01341-1.7912-2.0763-1.4823-2.484-6.5837-2.28859-7.2991,0,0-.40891-.5201,1.19479-.633Z" style="fill:#7E57C2;"></path><path d="M314.10579,332.379s5.7046-.9658,8.0033,2.7416c2.2988,3.7075,1.5367,4.2547,.6163,4.5032-.92039,.2484-1.5178,.5649-1.5178,.5649,0,0,.6221,1.5353-.99459,1.9136-1.61671,.3782-2.93711-.309-5.01341-1.7912-2.0763-1.4823-2.484-6.5837-2.28859-7.2991,0,0-.40891-.5201,1.19479-.633Z" style="fill:#fff; opacity:.4;"></path><path d="M315.34509,331.6636c.1216,1.3275-.85609,2.5022-2.1836,2.6238-1.32749,.1215-2.5023-.8561-2.6238-2.1836-.1216-1.3276,.8561-2.5023,2.1836-2.6238,1.3275-.1216,2.5023,.8561,2.6238,2.1836Z" style="fill:#7E57C2;"></path><path d="M316.96851,332.3067c2.07955-.36607,4.36083,1.08507,4.89932,3.12944-1.74107-1.19884-3.07704-2.05849-4.89932-3.12944h0Z" style="fill:#fff; opacity:.2;"></path><path d="M312.7836,321.60129c1.90337,.9142,2.91179,3.4229,2.15804,5.39808-.71629-1.98883-1.30108-3.46592-2.15804-5.39808h0Z" style="fill:#fff; opacity:.2;"></path><path d="M304.41919,328.89041c1.82899-1.05521,4.46892-.47156,5.67412,1.26532-2.04608-.53107-3.59546-.88216-5.67412-1.26532h0Z" style="fill:#fff; opacity:.2;"></path><path d="M305.6965,339.36041c-.53304-2.04316,.72886-4.43437,2.72303-5.13635-1.05422,1.83228-1.80299,3.23341-2.72303,5.13635h0Z" style="fill:#fff; opacity:.2;"></path></g><g><path d="M278.023,346.4146s-1.36521-1.703-3.38881-1.9958c-2.0235-.2928-4.0738,1.273-4.1898,2.1554-.1161,.8824,.8324,1.1049,.8324,1.1049,0,0-.6462,.6217-.4887,1.1135s1.2637,1.5154,2.35391,1.4437c1.09019-.0717,4.86879-3.0331,4.94739-3.0966,.0785-.0634-.06639-.7251-.06639-.7251Z" style="fill:#7E57C2;"></path><path d="M278.023,346.4146s-1.36521-1.703-3.38881-1.9958c-2.0235-.2928-4.0738,1.273-4.1898,2.1554-.1161,.8824,.8324,1.1049,.8324,1.1049,0,0-.6462,.6217-.4887,1.1135s1.2637,1.5154,2.35391,1.4437c1.09019-.0717,4.86879-3.0331,4.94739-3.0966,.0785-.0634-.06639-.7251-.06639-.7251Z" style="fill:#fff; opacity:.4;"></path><path d="M278.63879,346.6873s1.6295-1.4521,1.8164-3.4882c.1869-2.036-1.4836-4.0019-2.3709-4.0718-.88729-.0699-1.0601,.8889-1.0601,.8889,0,0-.6544-.6129-1.1373-.4299-.483,.1829-1.3636,1.3342-1.3191,2.4259,.1623,3.9774,3.2828,4.7041,3.3503,4.7792,.0674,.0752,.7207-.1041,.7207-.1041Z" style="fill:#7E57C2;"></path><path d="M278.63879,346.6873s1.6295-1.4521,1.8164-3.4882c.1869-2.036-1.4836-4.0019-2.3709-4.0718-.88729-.0699-1.0601,.8889-1.0601,.8889,0,0-.6544-.6129-1.1373-.4299-.483,.1829-1.3636,1.3342-1.3191,2.4259,.1623,3.9774,3.2828,4.7041,3.3503,4.7792,.0674,.0752,.7207-.1041,.7207-.1041Z" style="fill:#fff; opacity:.4;"></path><path d="M277.374,347.0311s-3.51581,1.5312-3.448,4.4216c.06779,2.8905,.689,2.918,1.28979,2.7224,.6008-.1956,1.0471-.2365,1.0471-.2365,0,0,.21111,1.0774,1.2454,.7015,1.0342-.3759,1.518-1.2358,2.1331-2.8107,.6151-1.575-1.0072-4.5538-1.3749-4.88,0,0,.0384-.4368-.89249,.0817Z" style="fill:#7E57C2;"></path><path d="M277.374,347.0311s-3.51581,1.5312-3.448,4.4216c.06779,2.8905,.689,2.918,1.28979,2.7224,.6008-.1956,1.0471-.2365,1.0471-.2365,0,0,.21111,1.0774,1.2454,.7015,1.0342-.3759,1.518-1.2358,2.1331-2.8107,.6151-1.575-1.0072-4.5538-1.3749-4.88,0,0,.0384-.4368-.89249,.0817Z" style="fill:#fff; opacity:.4;"></path><path d="M278.86119,346.7166s.2121-2.1724,1.7463-3.5239,4.1069-1.1614,4.6866-.486c.5796,.6754-.0929,1.3802-.0929,1.3802,0,0,.881,.1672,1.0179,.6651,.137,.498-.2295,1.9598-1.1815,2.4959-.9521,.536-5.735,.1223-5.8355,.1122-.1005-.0102-.3409-.6435-.3409-.6435Z" style="fill:#7E57C2;"></path><path d="M278.86119,346.7166s.2121-2.1724,1.7463-3.5239,4.1069-1.1614,4.6866-.486c.5796,.6754-.0929,1.3802-.0929,1.3802,0,0,.881,.1672,1.0179,.6651,.137,.498-.2295,1.9598-1.1815,2.4959-.9521,.536-5.735,.1223-5.8355,.1122-.1005-.0102-.3409-.6435-.3409-.6435Z" style="fill:#fff; opacity:.4;"></path><path d="M279.633,347.0367s3.781-.6401,5.30449,1.8171c1.5236,2.4573,1.01851,2.82,.4084,2.9846-.61,.1647-1.00589,.3745-1.00589,.3745,0,0,.41229,1.0176-.65921,1.2683-1.0716,.2507-1.9467-.2048-3.32279-1.1872-1.37621-.9824-1.64641-4.3636-1.51691-4.8378,0,0-.27109-.3446,.79191-.4195Z" style="fill:#7E57C2;"></path><path d="M279.633,347.0367s3.781-.6401,5.30449,1.8171c1.5236,2.4573,1.01851,2.82,.4084,2.9846-.61,.1647-1.00589,.3745-1.00589,.3745,0,0,.41229,1.0176-.65921,1.2683-1.0716,.2507-1.9467-.2048-3.32279-1.1872-1.37621-.9824-1.64641-4.3636-1.51691-4.8378,0,0-.27109-.3446,.79191-.4195Z" style="fill:#fff; opacity:.4;"></path><path d="M280.45439,346.5625c.0805,.8799-.56739,1.6585-1.4473,1.739-.8799,.0806-1.6585-.5674-1.739-1.4472-.0806-.8799,.5674-1.6585,1.4473-1.7391,.8798-.0805,1.6584,.5675,1.739,1.4473Z" style="fill:#7E57C2;"></path><path d="M281.5303,346.9888c1.41865-.4859,3.0953,.57929,3.24722,2.07415-1.35238-.64902-2.08713-1.12454-3.24722-2.07415h0Z" style="fill:#fff; opacity:.2;"></path><path d="M278.75668,339.89331c1.43603,.43185,2.17791,2.2744,1.43026,3.57777-.72083-1.31547-1.04088-2.13005-1.43026-3.57777h0Z" style="fill:#fff; opacity:.2;"></path><path d="M273.2128,344.72449c1.16699-.94166,3.10673-.51408,3.76069,.83866-1.49278-.14737-2.34586-.34293-3.76069-.83866h0Z" style="fill:#fff; opacity:.2;"></path><path d="M274.05939,351.66391c-.59899-1.37476,.32705-3.13202,1.80476-3.40432-.53752,1.40042-.95208,2.17125-1.80476,3.40432h0Z" style="fill:#fff; opacity:.2;"></path></g><polygon points="195.157 408.7201 293.44009 408.7201 292.27369 415.5913 196.2725 415.5913 195.157 408.7201"></polygon><polygon points="197.5569 164.6581 200.20139 159.6476 199.42969 174.2831 197.5569 164.6581" style="opacity:.3;"></polygon><polygon points="245.46769 141.8237 243.73749 134.7498 247.39919 140.2638 245.46769 141.8237" style="opacity:.3;"></polygon></g></g></svg>
