<?xml version="1.0" encoding="UTF-8"?>
<svg xmlns="http://www.w3.org/2000/svg" xmlns:xlink="http://www.w3.org/1999/xlink" width="122px" height="30px" viewBox="0 0 468 95" version="1.1">
<g id="surface1">
<path style="fill:none;stroke-width:5;stroke-linecap:butt;stroke-linejoin:miter;stroke:rgb(41.960784%,12.156863%,71.764706%);stroke-opacity:1;stroke-miterlimit:4;" d="M 123.498731 63 C 123.498731 96.41176 96.413946 123.497615 63.000551 123.497615 C 29.587156 123.497615 2.50237 96.41176 2.50237 63 C 2.50237 29.58824 29.587156 2.502385 63.000551 2.502385 C 96.413946 2.502385 123.498731 29.58824 123.498731 63 Z M 123.498731 63 " transform="matrix(0.752412,0,0,0.753968,0,0)"/>
<path style="fill:none;stroke-width:5;stroke-linecap:butt;stroke-linejoin:miter;stroke:rgb(90.196078%,80.784314%,100%);stroke-opacity:1;stroke-miterlimit:4;" d="M 110.898621 63 C 110.898621 89.453783 89.451956 110.897615 63.000551 110.897615 C 36.543954 110.897615 15.097289 89.453783 15.097289 63 C 15.097289 36.546217 36.543954 15.102385 63.000551 15.102385 C 89.451956 15.102385 110.898621 36.546217 110.898621 63 Z M 110.898621 63 " transform="matrix(0.752412,0,0,0.753968,0,0)"/>
<path style="fill:none;stroke-width:5;stroke-linecap:butt;stroke-linejoin:miter;stroke:rgb(41.960784%,12.156863%,71.764706%);stroke-opacity:1;stroke-miterlimit:4;" d="M 98.298511 63 C 98.298511 82.495806 82.495159 98.297615 63.000551 98.297615 C 43.505943 98.297615 27.702591 82.495806 27.702591 63 C 27.702591 43.504194 43.505943 27.702385 63.000551 27.702385 C 82.495159 27.702385 98.298511 43.504194 98.298511 63 Z M 98.298511 63 " transform="matrix(0.752412,0,0,0.753968,0,0)"/>
<path style=" stroke:none;fill-rule:nonzero;fill:rgb(100%,100%,100%);fill-opacity:1;" d="M 120.300781 24.8125 L 128.71875 24.8125 L 143.351562 60.617188 L 143.890625 60.617188 L 158.523438 24.8125 L 166.941406 24.8125 L 166.941406 70.871094 L 160.34375 70.871094 L 160.34375 37.542969 L 159.917969 37.542969 L 146.359375 70.804688 L 140.882812 70.804688 L 127.328125 37.519531 L 126.902344 37.519531 L 126.902344 70.871094 L 120.300781 70.871094 Z M 176.484375 70.871094 L 176.484375 36.328125 L 183.195312 36.328125 L 183.195312 70.871094 Z M 179.875 30.996094 C 178.707031 30.996094 177.707031 30.609375 176.867188 29.828125 C 176.042969 29.03125 175.632812 28.089844 175.632812 26.992188 C 175.632812 25.882812 176.042969 24.941406 176.867188 24.160156 C 177.707031 23.367188 178.707031 22.96875 179.875 22.96875 C 181.042969 22.96875 182.035156 23.367188 182.859375 24.160156 C 183.699219 24.941406 184.117188 25.882812 184.117188 26.992188 C 184.117188 28.089844 183.699219 29.03125 182.859375 29.828125 C 182.035156 30.609375 181.042969 30.996094 179.875 30.996094 Z M 205.128906 71.546875 C 202.347656 71.546875 199.863281 70.835938 197.679688 69.410156 C 195.507812 67.972656 193.804688 65.925781 192.5625 63.269531 C 191.335938 60.601562 190.722656 57.402344 190.722656 53.667969 C 190.722656 49.933594 191.34375 46.742188 192.582031 44.085938 C 193.839844 41.433594 195.5625 39.402344 197.746094 37.992188 C 199.929688 36.582031 202.40625 35.878906 205.175781 35.878906 C 207.316406 35.878906 209.035156 36.238281 210.335938 36.957031 C 211.652344 37.660156 212.671875 38.488281 213.390625 39.429688 C 214.121094 40.375 214.691406 41.207031 215.09375 41.925781 L 215.5 41.925781 L 215.5 24.8125 L 222.210938 24.8125 L 222.210938 70.871094 L 215.65625 70.871094 L 215.65625 65.496094 L 215.09375 65.496094 C 214.691406 66.234375 214.109375 67.070312 213.34375 68.015625 C 212.597656 68.960938 211.5625 69.785156 210.246094 70.492188 C 208.929688 71.195312 207.226562 71.546875 205.128906 71.546875 Z M 206.613281 65.8125 C 208.542969 65.8125 210.171875 65.304688 211.503906 64.285156 C 212.851562 63.25 213.867188 61.816406 214.558594 59.988281 C 215.257812 58.160156 215.613281 56.027344 215.613281 53.601562 C 215.613281 51.203125 215.265625 49.101562 214.578125 47.304688 C 213.890625 45.503906 212.878906 44.101562 211.546875 43.097656 C 210.21875 42.09375 208.570312 41.589844 206.613281 41.589844 C 204.589844 41.589844 202.90625 42.113281 201.5625 43.164062 C 200.214844 44.214844 199.195312 45.644531 198.507812 47.460938 C 197.835938 49.273438 197.5 51.320312 197.5 53.601562 C 197.5 55.910156 197.84375 57.984375 198.53125 59.832031 C 199.21875 61.675781 200.238281 63.136719 201.582031 64.214844 C 202.945312 65.28125 204.621094 65.8125 206.613281 65.8125 Z M 244.691406 71.546875 C 241.910156 71.546875 239.425781 70.835938 237.242188 69.410156 C 235.070312 67.972656 233.367188 65.925781 232.125 63.269531 C 230.898438 60.601562 230.285156 57.402344 230.285156 53.667969 C 230.285156 49.933594 230.90625 46.742188 232.148438 44.085938 C 233.402344 41.433594 235.125 39.402344 237.308594 37.992188 C 239.492188 36.582031 241.96875 35.878906 244.738281 35.878906 C 246.878906 35.878906 248.597656 36.238281 249.902344 36.957031 C 251.21875 37.660156 252.234375 38.488281 252.953125 39.429688 C 253.6875 40.375 254.253906 41.207031 254.660156 41.925781 L 255.0625 41.925781 L 255.0625 24.8125 L 261.773438 24.8125 L 261.773438 70.871094 L 255.21875 70.871094 L 255.21875 65.496094 L 254.660156 65.496094 C 254.253906 66.234375 253.671875 67.070312 252.90625 68.015625 C 252.160156 68.960938 251.128906 69.785156 249.808594 70.492188 C 248.492188 71.195312 246.789062 71.546875 244.691406 71.546875 Z M 246.175781 65.8125 C 248.105469 65.8125 249.734375 65.304688 251.066406 64.285156 C 252.414062 63.25 253.433594 61.816406 254.121094 59.988281 C 254.824219 58.160156 255.175781 56.027344 255.175781 53.601562 C 255.175781 51.203125 254.832031 49.101562 254.140625 47.304688 C 253.453125 45.503906 252.445312 44.101562 251.113281 43.097656 C 249.78125 42.09375 248.136719 41.589844 246.175781 41.589844 C 244.15625 41.589844 242.472656 42.113281 241.125 43.164062 C 239.777344 44.214844 238.761719 45.644531 238.070312 47.460938 C 237.398438 49.273438 237.0625 51.320312 237.0625 53.601562 C 237.0625 55.910156 237.40625 57.984375 238.09375 59.832031 C 238.78125 61.675781 239.800781 63.136719 241.148438 64.214844 C 242.507812 65.28125 244.183594 65.8125 246.175781 65.8125 Z M 278.0625 24.8125 L 278.0625 70.871094 L 271.351562 70.871094 L 271.351562 24.8125 Z M 301.949219 71.570312 C 298.550781 71.570312 295.625 70.84375 293.171875 69.386719 C 290.734375 67.917969 288.847656 65.859375 287.515625 63.203125 C 286.199219 60.535156 285.542969 57.410156 285.542969 53.824219 C 285.542969 50.285156 286.199219 47.167969 287.515625 44.46875 C 288.847656 41.769531 290.703125 39.664062 293.082031 38.148438 C 295.476562 36.636719 298.273438 35.878906 301.476562 35.878906 C 303.421875 35.878906 305.308594 36.199219 307.132812 36.84375 C 308.957031 37.488281 310.597656 38.5 312.046875 39.882812 C 313.5 41.261719 314.644531 43.050781 315.480469 45.257812 C 316.320312 47.445312 316.738281 50.105469 316.738281 53.242188 L 316.738281 55.625 L 289.335938 55.625 L 289.335938 50.585938 L 310.164062 50.585938 C 310.164062 48.816406 309.804688 47.25 309.085938 45.886719 C 308.367188 44.507812 307.355469 43.417969 306.054688 42.625 C 304.769531 41.832031 303.257812 41.433594 301.523438 41.433594 C 299.636719 41.433594 297.992188 41.898438 296.585938 42.828125 C 295.191406 43.742188 294.117188 44.941406 293.351562 46.425781 C 292.605469 47.894531 292.230469 49.492188 292.230469 51.214844 L 292.230469 55.152344 C 292.230469 57.460938 292.632812 59.425781 293.441406 61.042969 C 294.265625 62.664062 295.410156 63.902344 296.875 64.753906 C 298.34375 65.59375 300.054688 66.015625 302.015625 66.015625 C 303.289062 66.015625 304.445312 65.835938 305.496094 65.476562 C 306.542969 65.101562 307.449219 64.546875 308.210938 63.8125 C 308.972656 63.078125 309.558594 62.167969 309.960938 61.089844 L 316.3125 62.238281 C 315.804688 64.109375 314.890625 65.753906 313.574219 67.160156 C 312.273438 68.554688 310.632812 69.644531 308.660156 70.421875 C 306.699219 71.1875 304.460938 71.570312 301.949219 71.570312 Z M 331.597656 70.871094 L 321.453125 36.328125 L 328.386719 36.328125 L 335.144531 61.695312 L 335.480469 61.695312 L 342.257812 36.328125 L 349.195312 36.328125 L 355.925781 61.585938 L 356.261719 61.585938 L 362.972656 36.328125 L 369.910156 36.328125 L 359.785156 70.871094 L 352.941406 70.871094 L 345.9375 45.929688 L 345.421875 45.929688 L 338.417969 70.871094 Z M 386.308594 71.636719 C 384.125 71.636719 382.152344 71.234375 380.382812 70.421875 C 378.621094 69.597656 377.21875 68.40625 376.1875 66.847656 C 375.171875 65.289062 374.660156 63.375 374.660156 61.113281 C 374.660156 59.164062 375.035156 57.558594 375.785156 56.300781 C 376.53125 55.039062 377.542969 54.042969 378.8125 53.308594 C 380.085938 52.574219 381.507812 52.019531 383.078125 51.644531 C 384.648438 51.269531 386.25 50.984375 387.882812 50.789062 C 389.945312 50.550781 391.621094 50.355469 392.910156 50.203125 C 394.195312 50.039062 395.128906 49.777344 395.714844 49.417969 C 396.296875 49.058594 396.589844 48.472656 396.589844 47.664062 L 396.589844 47.503906 C 396.589844 45.542969 396.035156 44.019531 394.929688 42.941406 C 393.835938 41.859375 392.203125 41.320312 390.035156 41.320312 C 387.777344 41.320312 385.996094 41.824219 384.695312 42.828125 C 383.40625 43.816406 382.515625 44.917969 382.023438 46.132812 L 375.714844 44.695312 C 376.464844 42.59375 377.558594 40.902344 378.992188 39.609375 C 380.445312 38.308594 382.113281 37.363281 384 36.777344 C 385.882812 36.175781 387.867188 35.878906 389.945312 35.878906 C 391.324219 35.878906 392.78125 36.042969 394.324219 36.371094 C 395.878906 36.6875 397.328125 37.273438 398.675781 38.125 C 400.039062 38.980469 401.152344 40.203125 402.019531 41.792969 C 402.886719 43.367188 403.324219 45.414062 403.324219 47.933594 L 403.324219 70.871094 L 396.769531 70.871094 L 396.769531 66.148438 L 396.5 66.148438 C 396.066406 67.019531 395.414062 67.875 394.546875 68.714844 C 393.679688 69.554688 392.566406 70.25 391.203125 70.804688 C 389.839844 71.359375 388.210938 71.636719 386.308594 71.636719 Z M 387.769531 66.238281 C 389.625 66.238281 391.210938 65.871094 392.527344 65.136719 C 393.859375 64.402344 394.867188 63.445312 395.558594 62.257812 C 396.261719 61.058594 396.613281 59.777344 396.613281 58.414062 L 396.613281 53.960938 C 396.371094 54.199219 395.910156 54.425781 395.21875 54.636719 C 394.546875 54.828125 393.777344 55.003906 392.910156 55.152344 C 392.042969 55.285156 391.195312 55.414062 390.371094 55.535156 C 389.550781 55.640625 388.863281 55.730469 388.308594 55.804688 C 387.007812 55.96875 385.816406 56.246094 384.738281 56.636719 C 383.675781 57.027344 382.824219 57.589844 382.179688 58.324219 C 381.550781 59.042969 381.238281 60.003906 381.238281 61.203125 C 381.238281 62.867188 381.851562 64.125 383.078125 64.980469 C 384.304688 65.820312 385.867188 66.238281 387.769531 66.238281 Z M 412.261719 70.871094 L 412.261719 36.328125 L 418.746094 36.328125 L 418.746094 41.816406 L 419.105469 41.816406 C 419.734375 39.957031 420.84375 38.496094 422.429688 37.429688 C 424.027344 36.351562 425.839844 35.808594 427.859375 35.808594 C 428.277344 35.808594 428.773438 35.824219 429.339844 35.855469 C 429.925781 35.886719 430.382812 35.921875 430.710938 35.96875 L 430.710938 42.398438 C 430.441406 42.324219 429.960938 42.242188 429.273438 42.152344 C 428.585938 42.046875 427.898438 41.996094 427.207031 41.996094 C 425.621094 41.996094 424.207031 42.332031 422.964844 43.007812 C 421.738281 43.667969 420.765625 44.589844 420.046875 45.773438 C 419.332031 46.941406 418.972656 48.277344 418.972656 49.777344 L 418.972656 70.871094 Z M 450.140625 71.570312 C 446.746094 71.570312 443.820312 70.84375 441.367188 69.386719 C 438.925781 67.917969 437.042969 65.859375 435.710938 63.203125 C 434.394531 60.535156 433.734375 57.410156 433.734375 53.824219 C 433.734375 50.285156 434.394531 47.167969 435.710938 44.46875 C 437.042969 41.769531 438.898438 39.664062 441.277344 38.148438 C 443.671875 36.636719 446.46875 35.878906 449.667969 35.878906 C 451.613281 35.878906 453.5 36.199219 455.324219 36.84375 C 457.152344 37.488281 458.789062 38.5 460.242188 39.882812 C 461.691406 41.261719 462.835938 43.050781 463.675781 45.257812 C 464.511719 47.445312 464.933594 50.105469 464.933594 53.242188 L 464.933594 55.625 L 437.527344 55.625 L 437.527344 50.585938 L 458.355469 50.585938 C 458.355469 48.816406 457.996094 47.25 457.277344 45.886719 C 456.558594 44.507812 455.550781 43.417969 454.25 42.625 C 452.960938 41.832031 451.449219 41.433594 449.714844 41.433594 C 447.828125 41.433594 446.183594 41.898438 444.777344 42.828125 C 443.386719 43.742188 442.308594 44.941406 441.546875 46.425781 C 440.796875 47.894531 440.421875 49.492188 440.421875 51.214844 L 440.421875 55.152344 C 440.421875 57.460938 440.828125 59.425781 441.632812 61.042969 C 442.457031 62.664062 443.601562 63.902344 445.070312 64.753906 C 446.535156 65.59375 448.25 66.015625 450.207031 66.015625 C 451.480469 66.015625 452.640625 65.835938 453.6875 65.476562 C 454.734375 65.101562 455.640625 64.546875 456.402344 63.8125 C 457.167969 63.078125 457.75 62.167969 458.152344 61.089844 L 464.503906 62.238281 C 463.996094 64.109375 463.082031 65.753906 461.765625 67.160156 C 460.464844 68.554688 458.828125 69.644531 456.851562 70.421875 C 454.890625 71.1875 452.65625 71.570312 450.140625 71.570312 Z M 450.140625 71.570312 "/>
</g>
</svg>
