<svg
                  xmlns="http://www.w3.org/2000/svg"
                  width="85"
                  height="84"
                  fill="none"
                >
                  <g filter="url(#a)">
                    <rect
                      width="48"
                      height="49"
                      x="67"
                      y="9"
                      fill="#14183B"
                      rx="24"
                      transform="rotate(90 67 9)"
                    />
                    <path
                      fill="#fff"
                      d="M26.167 33c0-8.82 7.33-16 16.333-16 9.004 0 16.334 7.18 16.334 16S51.504 49 42.5 49c-9.003 0-16.333-7.18-16.333-16Zm-4.083 0c0 11.04 9.146 20 20.416 20s20.417-8.96 20.417-20S53.77 13 42.5 13c-11.27 0-20.416 8.96-20.416 20ZM42.5 31h-6.125c-1.123 0-2.041.9-2.041 2s.918 2 2.041 2H42.5v3.58c0 .9 1.103 1.34 1.736.7l5.696-5.58a.976.976 0 0 0 0-1.42l-5.696-5.58c-.633-.62-1.736-.18-1.736.72V31Z"
                    />
                  </g>
                  <defs>
                    <filter
                      id="a"
                      width="85"
                      height="84"
                      x="0"
                      y="0"
                      colorInterpolationFilters="sRGB"
                      filterUnits="userSpaceOnUse"
                    >
                      <feFlood floodOpacity="0" result="BackgroundImageFix" />
                      <feColorMatrix
                        in="SourceAlpha"
                        result="hardAlpha"
                        values="0 0 0 0 0 0 0 0 0 0 0 0 0 0 0 0 0 0 127 0"
                      />
                      <feOffset dy="9" />
                      <feGaussianBlur stdDeviation="9" />
                      <feComposite in2="hardAlpha" operator="out" />
                      <feColorMatrix values="0 0 0 0 0 0 0 0 0 0 0 0 0 0 0 0 0 0 0.2 0" />
                      <feBlend
                        in2="BackgroundImageFix"
                        result="effect1_dropShadow_2327_9397"
                      />
                      <feBlend
                        in="SourceGraphic"
                        in2="effect1_dropShadow_2327_9397"
                        result="shape"
                      />
                    </filter>
                  </defs>
                </svg>