<svg width="400" height="400" viewBox="0 0 400 400" fill="none" xmlns="http://www.w3.org/2000/svg">
<path d="M347.407 129.289C346.325 127.021 345.197 124.789 344.025 122.595C343.503 121.617 342.281 121.266 341.312 121.804L325.575 130.545C324.612 131.079 324.264 132.29 324.781 133.263C325.698 134.99 326.584 136.744 327.437 138.524C327.915 139.52 329.102 139.957 330.104 139.493L346.442 131.938C347.445 131.475 347.883 130.286 347.407 129.289Z" fill="#39D353"/>
<path d="M59.8179 278.168L75.5473 269.416C76.5138 268.878 76.859 267.659 76.333 266.686C75.2389 264.662 74.1885 262.601 73.1834 260.505C72.7059 259.509 71.5186 259.071 70.5161 259.535L54.1783 267.09C53.1758 267.553 52.7377 268.742 53.2134 269.739C54.4529 272.337 55.7525 274.888 57.1099 277.389C57.6361 278.359 58.8538 278.704 59.8179 278.168Z" fill="#39D353"/>
<path d="M353.047 142.455C352.169 140.101 351.241 137.779 350.266 135.489C349.832 134.47 348.645 134.013 347.633 134.464L331.189 141.789C330.183 142.237 329.73 143.413 330.159 144.427C330.922 146.228 331.65 148.053 332.344 149.901C332.732 150.935 333.876 151.475 334.916 151.101L351.854 145.009C352.893 144.636 353.434 143.489 353.047 142.455Z" fill="#0E4429"/>
<path d="M53.4993 265.513L69.9362 258.176C70.9462 257.725 71.3971 256.54 70.9586 255.525C70.0464 253.413 69.1809 251.268 68.3637 249.091C67.9755 248.057 66.8312 247.517 65.7918 247.891L48.8539 253.983C47.8145 254.356 47.2738 255.503 47.6601 256.537C48.6667 259.234 49.7375 261.889 50.87 264.5C51.3091 265.512 52.4917 265.963 53.4993 265.513Z" fill="#0E4429"/>
<path d="M170.12 39.855C167.65 40.3151 165.203 40.8289 162.78 41.395C161.701 41.647 161.047 42.7374 161.316 43.8119L165.7 61.2721C165.968 62.3398 167.048 62.9887 168.121 62.7407C170.026 62.3001 171.949 61.8968 173.889 61.5317C174.975 61.3274 175.704 60.2933 175.514 59.205L172.431 41.471C172.242 40.3828 171.206 39.6527 170.12 39.855Z" fill="#006D32"/>
<path d="M239.743 356.123L235.346 338.668C235.076 337.595 233.987 336.947 232.911 337.204C230.673 337.739 228.412 338.222 226.127 338.652C225.041 338.856 224.312 339.89 224.501 340.978L227.584 358.712C227.774 359.801 228.809 360.531 229.895 360.329C232.725 359.801 235.524 359.204 238.292 358.538C239.365 358.28 240.012 357.193 239.743 356.123Z" fill="#006D32"/>
<path d="M184.247 37.8081C181.746 38.0504 179.264 38.3481 176.801 38.7C175.704 38.8567 174.956 39.8856 175.131 40.9796L177.97 58.7564C178.144 59.8435 179.163 60.5844 180.253 60.4312C182.19 60.1589 184.141 59.9254 186.105 59.7315C187.204 59.6229 188.021 58.6565 187.928 57.5559L186.408 39.6202C186.315 38.5195 185.347 37.7017 184.247 37.8081Z" fill="#26A641"/>
<path d="M225.933 358.954L223.08 341.181C222.905 340.089 221.877 339.348 220.783 339.51C218.507 339.847 216.211 340.131 213.898 340.359C212.799 340.468 211.982 341.434 212.075 342.535L213.595 360.47C213.688 361.571 214.656 362.389 215.755 362.282C218.62 362.005 221.461 361.655 224.276 361.233C225.368 361.07 226.108 360.044 225.933 358.954Z" fill="#26A641"/>
<path d="M254.375 46.1404C252.006 45.3021 249.63 44.5219 247.25 43.799C246.189 43.4771 245.077 44.0932 244.772 45.1584L239.827 62.4678C239.524 63.5263 240.134 64.6288 241.187 64.951C243.057 65.5236 244.924 66.1371 246.786 66.792C247.828 67.1586 248.977 66.6283 249.358 65.5916L255.566 48.6963C255.947 47.6595 255.416 46.5089 254.375 46.1404Z" fill="#0E4429"/>
<path d="M156.32 354.779L161.252 337.468C161.555 336.404 160.937 335.298 159.877 334.982C157.672 334.324 155.472 333.61 153.279 332.839C152.237 332.472 151.088 333.002 150.707 334.039L144.498 350.934C144.117 351.971 144.649 353.122 145.69 353.49C148.403 354.451 151.126 355.335 153.855 356.144C154.913 356.457 156.018 355.84 156.32 354.779Z" fill="#0E4429"/>
<path d="M267.628 51.4407C265.342 50.3984 263.043 49.4133 260.735 48.4849C259.707 48.0715 258.545 48.5878 258.148 49.6224L251.707 66.4327C251.313 67.4607 251.825 68.6123 252.845 69.0254C254.658 69.7594 256.464 70.5339 258.261 71.3492C259.267 71.8055 260.458 71.3778 260.928 70.3783L268.591 54.091C269.062 53.0915 268.633 51.8989 267.628 51.4407Z" fill="#39D353"/>
<path d="M142.947 350.317L149.375 333.504C149.77 332.471 149.251 331.314 148.222 330.907C146.084 330.059 143.955 329.155 141.837 328.195C140.831 327.739 139.64 328.166 139.17 329.166L131.507 345.453C131.037 346.453 131.465 347.645 132.47 348.103C135.09 349.297 137.724 350.416 140.372 351.461C141.398 351.866 142.553 351.348 142.947 350.317Z" fill="#39D353"/>
<path d="M280.186 57.7777C277.998 56.5421 275.793 55.3626 273.573 54.2387C272.585 53.7382 271.382 54.1524 270.898 55.149L263.032 71.3414C262.551 72.3316 262.961 73.5231 263.942 74.0226C265.685 74.9102 267.418 75.8374 269.138 76.8046C270.101 77.3459 271.324 77.0225 271.879 76.0673L280.917 60.5012C281.472 59.5459 281.148 58.3208 280.186 57.7777Z" fill="#26A641"/>
<path d="M130.205 344.794L138.059 328.597C138.541 327.602 138.124 326.405 137.134 325.911C135.076 324.882 133.033 323.798 131.007 322.658C130.044 322.117 128.821 322.44 128.266 323.396L119.227 338.962C118.673 339.917 118.997 341.142 119.959 341.685C122.465 343.101 124.993 344.443 127.541 345.711C128.529 346.203 129.724 345.787 130.205 344.794Z" fill="#26A641"/>
<path d="M212.612 37.4405C210.107 37.2455 207.61 37.1084 205.123 37.0279C204.016 36.9921 203.101 37.8758 203.084 38.9835L202.798 56.9833C202.781 58.0841 203.656 58.9905 204.756 59.0286C206.711 59.0962 208.673 59.2045 210.641 59.3539C211.742 59.4376 212.714 58.6274 212.813 57.5273L214.426 39.5997C214.525 38.4996 213.713 37.5263 212.612 37.4405Z" fill="#39D353"/>
<path d="M197.992 360.951L198.264 342.952C198.28 341.846 197.396 340.938 196.291 340.908C193.991 340.846 191.681 340.727 189.363 340.551C188.261 340.467 187.289 341.277 187.19 342.377L185.578 360.305C185.479 361.405 186.29 362.378 187.392 362.464C190.261 362.687 193.12 362.835 195.965 362.908C197.068 362.937 197.975 362.054 197.992 360.951Z" fill="#39D353"/>
<path d="M198.611 37.0039C196.099 37.0247 193.599 37.1024 191.115 37.2357C190.008 37.2951 189.173 38.2541 189.251 39.3592L190.511 57.3171C190.589 58.4153 191.539 59.2432 192.638 59.1867C194.591 59.0863 196.555 59.0256 198.529 59.0056C199.633 58.9944 200.532 58.1038 200.536 56.9992L200.604 38.9994C200.608 37.8948 199.716 36.9948 198.611 37.0039Z" fill="#39D353"/>
<path d="M211.82 360.575L210.545 342.62C210.467 341.516 209.508 340.688 208.404 340.752C206.107 340.887 203.796 340.967 201.471 340.991C200.366 341.002 199.468 341.893 199.463 342.997L199.396 360.997C199.392 362.102 200.284 363.002 201.388 362.993C204.267 362.969 207.128 362.87 209.969 362.699C211.07 362.633 211.898 361.675 211.82 360.575Z" fill="#39D353"/>
<path d="M226.787 39.1206C224.309 38.7071 221.834 38.3521 219.364 38.0544C218.264 37.9218 217.275 38.7221 217.161 39.824L215.301 57.7299C215.188 58.8248 215.98 59.8043 217.073 59.9385C219.015 60.177 220.959 60.4564 222.907 60.7775C223.997 60.9572 225.036 60.2352 225.231 59.1479L228.405 41.4302C228.6 40.3429 227.877 39.3023 226.787 39.1206Z" fill="#39D353"/>
<path d="M183.92 360.111L185.765 342.206C185.879 341.105 185.077 340.124 183.979 339.997C181.693 339.733 179.403 339.413 177.109 339.034C176.019 338.855 174.98 339.577 174.785 340.664L171.61 358.382C171.415 359.469 172.138 360.51 173.228 360.691C176.067 361.165 178.902 361.562 181.73 361.884C182.826 362.009 183.807 361.209 183.92 360.111Z" fill="#39D353"/>
<path d="M240.88 42.0644C238.448 41.4339 236.014 40.8618 233.58 40.3473C232.496 40.1183 231.44 40.8282 231.229 41.9157L227.797 59.5877C227.587 60.6684 228.291 61.714 229.367 61.9441C231.28 62.3529 233.193 62.8028 235.104 63.2945C236.174 63.5696 237.273 62.9421 237.563 61.8763L242.288 44.5077C242.578 43.4419 241.95 42.3416 240.88 42.0644Z" fill="#006D32"/>
<path d="M169.859 358.021L173.277 340.348C173.487 339.262 172.776 338.213 171.692 337.99C169.439 337.526 167.186 337.005 164.934 336.425C163.864 336.15 162.765 336.778 162.475 337.844L157.75 355.212C157.46 356.278 158.088 357.378 159.158 357.655C161.944 358.378 164.733 359.023 167.521 359.593C168.602 359.814 169.65 359.104 169.859 358.021Z" fill="#006D32"/>
<path d="M292.323 65.2916C290.252 63.8693 288.159 62.5014 286.046 61.1876C285.105 60.6026 283.871 60.91 283.301 61.8604L274.048 77.3025C273.482 78.2468 273.787 79.4696 274.72 80.053C276.379 81.0897 278.024 82.1649 279.653 83.2789C280.565 83.9024 281.812 83.6873 282.448 82.7842L292.813 68.0686C293.449 67.1655 293.234 65.9168 292.323 65.2916Z" fill="#006D32"/>
<path d="M117.807 338.086L127.047 322.638C127.615 321.689 127.304 320.46 126.362 319.881C124.402 318.676 122.461 317.418 120.542 316.105C119.63 315.482 118.383 315.697 117.747 316.6L107.381 331.316C106.745 332.219 106.961 333.467 107.872 334.093C110.245 335.722 112.646 337.28 115.073 338.767C116.014 339.343 117.241 339.033 117.807 338.086Z" fill="#006D32"/>
<path d="M303.927 73.978C301.99 72.3774 300.026 70.829 298.039 69.3326C297.153 68.6663 295.897 68.8629 295.245 69.7589L284.657 84.318C284.01 85.2084 284.204 86.4534 285.082 87.1174C286.642 88.2973 288.185 89.5144 289.709 90.7687C290.561 91.4707 291.822 91.3672 292.536 90.5242L304.168 76.7876C304.882 75.9447 304.778 74.6817 303.927 73.978Z" fill="#0E4429"/>
<path d="M105.867 330.19L116.443 315.625C117.092 314.73 116.892 313.478 116.005 312.818C114.159 311.443 112.338 310.017 110.543 308.54C109.691 307.838 108.43 307.941 107.716 308.784L96.0837 322.521C95.3699 323.364 95.4738 324.627 96.3253 325.33C98.5442 327.164 100.798 328.929 103.083 330.626C103.969 331.283 105.218 331.083 105.867 330.19Z" fill="#0E4429"/>
<path d="M314.26 83.2185C312.466 81.459 310.641 79.7494 308.788 78.0896C307.962 77.3505 306.694 77.4396 305.968 78.277L294.181 91.8838C293.461 92.7159 293.549 93.9729 294.367 94.7092C295.821 96.0174 297.255 97.3611 298.667 98.7404C299.457 99.5123 300.722 99.5163 301.505 98.737L314.262 86.0384C315.045 85.2592 315.049 83.9919 314.26 83.2185Z" fill="#0E4429"/>
<path d="M95.147 321.676L106.922 308.062C107.646 307.225 107.552 305.961 106.724 305.227C105.003 303.701 103.309 302.126 101.646 300.501C100.856 299.729 99.591 299.725 98.8081 300.504L86.051 313.203C85.2681 313.982 85.2644 315.249 86.053 316.023C88.108 318.038 90.2033 319.989 92.3362 321.873C93.1631 322.604 94.4252 322.511 95.147 321.676Z" fill="#0E4429"/>
<path d="M323.997 93.566C322.363 91.6571 320.694 89.795 318.992 87.9801C318.234 87.1719 316.963 87.1502 316.167 87.9212L303.24 100.45C302.45 101.216 302.428 102.476 303.179 103.281C304.514 104.711 305.825 106.174 307.111 107.671C307.831 108.509 309.091 108.623 309.939 107.915L323.754 96.3754C324.601 95.6673 324.715 94.4052 323.997 93.566Z" fill="#39D353"/>
<path d="M84.9509 312.037L97.867 299.499C98.6606 298.729 98.6772 297.462 97.9166 296.659C96.3343 294.988 94.7847 293.272 93.2695 291.508C92.5497 290.67 91.2896 290.556 90.4418 291.264L76.6273 302.804C75.7796 303.512 75.6655 304.774 76.3837 305.613C78.2555 307.8 80.173 309.925 82.1337 311.988C82.8937 312.788 84.1592 312.805 84.9509 312.037Z" fill="#39D353"/>
<path d="M332.804 104.73C331.342 102.686 329.842 100.685 328.305 98.7288C327.62 97.8577 326.355 97.7253 325.496 98.4241L311.526 109.779C310.672 110.473 310.54 111.726 311.219 112.593C312.424 114.134 313.602 115.706 314.753 117.31C315.397 118.207 316.642 118.43 317.549 117.799L332.316 107.507C333.222 106.876 333.446 105.628 332.804 104.73Z" fill="#39D353"/>
<path d="M75.6282 301.538L89.5877 290.173C90.4455 289.475 90.5724 288.214 89.8846 287.348C88.454 285.546 87.0599 283.701 85.7042 281.812C85.0601 280.914 83.8147 280.691 82.9084 281.322L68.1409 291.614C67.2346 292.246 67.011 293.493 67.6534 294.392C69.3275 296.733 71.0525 299.017 72.8259 301.244C73.5133 302.107 74.7725 302.234 75.6282 301.538Z" fill="#39D353"/>
<path d="M340.593 116.603C339.316 114.439 337.995 112.316 336.634 110.233C336.028 109.306 334.779 109.064 333.862 109.685L318.957 119.781C318.046 120.398 317.806 121.635 318.406 122.558C319.472 124.198 320.509 125.867 321.516 127.564C322.08 128.514 323.301 128.845 324.259 128.295L339.866 119.328C340.824 118.777 341.155 117.554 340.593 116.603Z" fill="#39D353"/>
<path d="M67.2653 290.282L82.1609 280.176C83.0762 279.555 83.3124 278.309 82.7026 277.387C81.4342 275.467 80.206 273.507 79.0198 271.508C78.4563 270.558 77.235 270.227 76.2773 270.777L60.67 279.744C59.7123 280.295 59.3809 281.518 59.9427 282.469C61.4066 284.947 62.9263 287.373 64.4992 289.745C65.1089 290.665 66.3523 290.901 67.2653 290.282Z" fill="#39D353"/>
<path d="M357.494 156.006C356.824 153.584 356.103 151.189 355.332 148.824C354.989 147.771 353.846 147.211 352.799 147.572L335.777 153.432C334.736 153.791 334.182 154.922 334.521 155.97C335.123 157.831 335.689 159.712 336.219 161.614C336.515 162.678 337.608 163.316 338.676 163.034L356.081 158.446C357.149 158.165 357.788 157.07 357.494 156.006Z" fill="#26A641"/>
<path d="M48.336 252.411L65.3513 246.538C66.3969 246.177 66.9496 245.037 66.6015 243.987C65.8774 241.803 65.2027 239.591 64.5789 237.351C64.2825 236.287 63.1899 235.649 62.1218 235.931L44.7163 240.519C43.6482 240.8 43.0094 241.895 43.3037 242.959C44.0708 245.734 44.9054 248.472 45.8054 251.172C46.1543 252.219 47.293 252.771 48.336 252.411Z" fill="#26A641"/>
<path d="M360.689 169.629C360.229 167.159 359.716 164.711 359.151 162.288C358.899 161.21 357.809 160.554 356.734 160.824L339.273 165.203C338.205 165.47 337.556 166.55 337.804 167.623C338.244 169.529 338.647 171.452 339.011 173.392C339.215 174.477 340.249 175.207 341.337 175.018L359.072 171.94C360.161 171.751 360.891 170.715 360.689 169.629Z" fill="#39D353"/>
<path d="M44.4018 239.163L61.8582 234.772C62.9308 234.502 63.5793 233.413 63.3225 232.337C62.7884 230.099 62.3059 227.837 61.8765 225.552C61.6725 224.467 60.6386 223.737 59.5503 223.926L41.8154 227.004C40.7271 227.193 39.9968 228.229 40.1987 229.315C40.725 232.145 41.3218 234.944 41.9868 237.712C42.2446 238.785 43.3318 239.433 44.4018 239.163Z" fill="#39D353"/>
<path d="M362.723 183.685C362.481 181.184 362.183 178.701 361.83 176.238C361.673 175.141 360.644 174.394 359.55 174.569L341.774 177.411C340.687 177.585 339.946 178.604 340.1 179.694C340.372 181.631 340.606 183.582 340.8 185.546C340.909 186.645 341.876 187.462 342.976 187.369L360.912 185.846C362.012 185.752 362.83 184.784 362.723 183.685Z" fill="#26A641"/>
<path d="M41.5844 225.425L59.3567 222.57C60.4488 222.394 61.1896 221.366 61.0274 220.272C60.6901 217.996 60.4063 215.701 60.1775 213.387C60.0687 212.288 59.1022 211.471 58.0016 211.565L40.0661 213.087C38.9655 213.181 38.1478 214.149 38.2545 215.248C38.5325 218.113 38.8832 220.954 39.3049 223.769C39.4683 224.86 40.495 225.601 41.5844 225.425Z" fill="#26A641"/>
<path d="M363.523 197.492C363.493 194.979 363.406 192.48 363.264 189.996C363.2 188.89 362.239 188.058 361.134 188.139L343.18 189.465C342.083 189.546 341.258 190.499 341.318 191.598C341.426 193.551 341.494 195.515 341.521 197.488C341.536 198.593 342.43 199.488 343.534 199.488L361.534 199.491C362.639 199.492 363.536 198.596 363.523 197.492Z" fill="#39D353"/>
<path d="M40.0011 211.86L57.9516 210.521C59.0546 210.439 59.8799 209.477 59.8111 208.373C59.6679 206.077 59.5797 203.766 59.5478 201.441C59.5326 200.336 58.6388 199.441 57.5342 199.441L39.5342 199.438C38.4296 199.437 37.5328 200.333 37.5459 201.437C37.58 204.315 37.6887 207.176 37.8702 210.016C37.9406 211.117 38.9008 211.942 40.0011 211.86Z" fill="#39D353"/>
<path d="M363.153 211.262C363.336 208.755 363.46 206.258 363.528 203.771C363.558 202.663 362.67 201.753 361.562 201.741L343.561 201.546C342.461 201.534 341.559 202.414 341.526 203.514C341.468 205.469 341.37 207.432 341.23 209.4C341.152 210.502 341.967 211.47 343.068 211.563L361.003 213.086C362.104 213.18 363.073 212.363 363.153 211.262Z" fill="#006D32"/>
<path d="M39.5738 198.264L57.5732 198.445C58.6792 198.456 59.5827 197.568 59.6074 196.462C59.6586 194.162 59.7658 191.851 59.9303 189.532C60.0084 188.43 59.1934 187.462 58.0928 187.369L40.1573 185.846C39.0567 185.753 38.0875 186.569 38.0073 187.671C37.7983 190.542 37.6651 193.401 37.6061 196.247C37.5833 197.35 38.4704 198.253 39.5738 198.264Z" fill="#006D32"/>
<path d="M361.6 225.094C361.995 222.613 362.332 220.135 362.612 217.663C362.737 216.562 361.93 215.579 360.827 215.473L342.908 213.743C341.812 213.637 340.839 214.437 340.712 215.53C340.488 217.473 340.222 219.42 339.915 221.37C339.743 222.461 340.473 223.495 341.562 223.682L359.302 226.729C360.39 226.916 361.426 226.185 361.6 225.094Z" fill="#39D353"/>
<path d="M40.3089 184.538L58.2272 186.254C59.3282 186.36 60.3043 185.551 60.4232 184.451C60.6705 182.164 60.9744 179.871 61.3361 177.575C61.508 176.484 60.7786 175.45 59.6899 175.263L41.9497 172.215C40.8611 172.028 39.8258 172.759 39.6519 173.85C39.1987 176.692 38.8221 179.53 38.5205 182.36C38.4037 183.457 39.2106 184.432 40.3089 184.538Z" fill="#39D353"/>
<path d="M358.938 238.472C359.54 236.032 360.083 233.592 360.568 231.151C360.785 230.065 360.062 229.018 358.972 228.82L341.261 225.597C340.178 225.4 339.141 226.116 338.923 227.195C338.537 229.113 338.11 231.03 337.641 232.948C337.378 234.02 338.019 235.112 339.088 235.389L356.511 239.909C357.581 240.186 358.673 239.545 358.938 238.472Z" fill="#0E4429"/>
<path d="M42.1627 171.197L59.8747 174.405C60.963 174.602 62.0033 173.878 62.2137 172.792C62.6514 170.534 63.1459 168.274 63.6984 166.016C63.9609 164.943 63.3204 163.852 62.2512 163.574L44.8279 159.055C43.7587 158.777 42.6659 159.419 42.4014 160.491C41.7122 163.286 41.0997 166.082 40.5626 168.877C40.3544 169.961 41.0769 171 42.1627 171.197Z" fill="#0E4429"/>
<path d="M354.964 252.183C355.777 249.805 356.532 247.421 357.229 245.033C357.539 243.969 356.911 242.863 355.843 242.57L338.481 237.811C337.42 237.52 336.324 238.142 336.013 239.198C335.46 241.074 334.867 242.947 334.232 244.816C333.877 245.862 334.419 247.005 335.46 247.375L352.421 253.401C353.462 253.771 354.607 253.228 354.964 252.183Z" fill="#0E4429"/>
<path d="M45.2894 157.451L62.6528 162.197C63.7197 162.488 64.8193 161.858 65.1239 160.795C65.7575 158.583 66.4478 156.376 67.1958 154.174C67.5511 153.128 67.0086 151.985 65.9677 151.615L49.0067 145.589C47.9659 145.219 46.8211 145.762 46.4638 146.807C45.5327 149.531 44.6779 152.263 43.8983 155.001C43.5961 156.062 44.225 157.16 45.2894 157.451Z" fill="#0E4429"/>
<path d="M349.707 265.722C350.728 263.426 351.692 261.119 352.599 258.802C353.003 257.77 352.476 256.613 351.438 256.226L334.569 249.94C333.537 249.556 332.39 250.078 331.986 251.102C331.269 252.922 330.511 254.734 329.713 256.539C329.266 257.549 329.704 258.736 330.708 259.197L347.065 266.71C348.069 267.171 349.258 266.731 349.707 265.722Z" fill="#26A641"/>
<path d="M49.6934 143.802L66.5655 150.074C67.6023 150.459 68.7536 149.93 69.1516 148.898C69.9796 146.751 70.8637 144.614 71.8046 142.488C72.2516 141.478 71.813 140.291 70.8092 139.83L54.4519 132.317C53.4481 131.856 52.2596 132.296 51.8106 133.305C50.6408 135.935 49.5462 138.58 48.526 141.237C48.1306 142.267 48.6592 143.417 49.6934 143.802Z" fill="#26A641"/>
<path d="M343.416 278.463C344.633 276.265 345.794 274.05 346.9 271.821C347.392 270.828 346.968 269.629 345.967 269.154L329.71 261.423C328.715 260.95 327.527 261.37 327.036 262.355C326.163 264.105 325.25 265.845 324.297 267.574C323.764 268.541 324.098 269.762 325.058 270.308L340.698 279.217C341.658 279.764 342.881 279.429 343.416 278.463Z" fill="#39D353"/>
<path d="M55.1594 130.88L71.4212 138.597C72.4204 139.072 73.6136 138.644 74.0999 137.651C75.1116 135.584 76.1785 133.532 77.301 131.496C77.8342 130.529 77.5006 129.308 76.5408 128.762L60.8999 119.853C59.9401 119.307 58.7178 119.641 58.1827 120.607C56.7882 123.125 55.4675 125.665 54.2198 128.223C53.7361 129.215 54.1626 130.406 55.1594 130.88Z" fill="#39D353"/>
<path d="M336.004 290.662C337.409 288.579 338.759 286.474 340.056 284.351C340.633 283.405 340.315 282.173 339.36 281.612L323.841 272.488C322.892 271.93 321.672 272.245 321.096 273.183C320.074 274.85 319.012 276.504 317.912 278.142C317.296 279.059 317.521 280.304 318.43 280.933L333.231 291.176C334.14 291.804 335.387 291.578 336.004 290.662Z" fill="#26A641"/>
<path d="M61.7649 118.426L77.2891 127.537C78.243 128.097 79.4689 127.775 80.0403 126.828C81.2289 124.858 82.4712 122.907 83.7675 120.977C84.3834 120.06 84.1579 118.815 83.2495 118.187L68.448 107.944C67.5397 107.315 66.2928 107.542 65.6752 108.457C64.0658 110.844 62.528 113.258 61.0612 115.697C60.4926 116.643 60.8133 117.867 61.7649 118.426Z" fill="#26A641"/>
<path d="M327.555 302.163C329.137 300.21 330.666 298.232 332.143 296.23C332.801 295.338 332.592 294.083 331.69 293.441L317.028 282.994C316.132 282.356 314.889 282.562 314.233 283.447C313.069 285.018 311.867 286.573 310.627 288.108C309.933 288.968 310.049 290.228 310.899 290.934L324.748 302.432C325.598 303.137 326.86 303.021 327.555 302.163Z" fill="#39D353"/>
<path d="M69.4307 106.601L84.0985 117.035C84.9998 117.676 86.2492 117.463 86.9012 116.57C88.2576 114.711 89.6657 112.877 91.1258 111.067C91.8195 110.208 91.7038 108.948 90.8539 108.242L77.0049 96.7441C76.1551 96.0385 74.8932 96.1547 74.1979 97.013C72.3859 99.2496 70.6428 101.52 68.9683 103.822C68.3192 104.714 68.5315 105.962 69.4307 106.601Z" fill="#39D353"/>
<path d="M318.13 312.884C319.877 311.078 321.573 309.241 323.22 307.375C323.953 306.545 323.854 305.277 323.012 304.557L309.321 292.868C308.483 292.154 307.227 292.251 306.497 293.075C305.199 294.538 303.866 295.981 302.497 297.403C301.73 298.198 301.735 299.464 302.52 300.241L315.31 312.906C316.095 313.684 317.362 313.678 318.13 312.884Z" fill="#39D353"/>
<path d="M78.1046 95.4897L91.8034 107.167C92.6452 107.884 93.9084 107.781 94.6361 106.948C96.1498 105.216 97.7131 103.511 99.3259 101.837C100.092 101.041 100.087 99.7759 99.3022 98.9987L86.5122 86.3331C85.7274 85.5558 84.4602 85.5612 83.6924 86.3553C81.6917 88.4248 79.7567 90.5341 77.8873 92.6805C77.1626 93.5125 77.2649 94.774 78.1046 95.4897Z" fill="#39D353"/>
<path d="M307.905 322.65C309.801 321.002 311.651 319.319 313.453 317.603C314.255 316.839 314.267 315.567 313.49 314.778L300.863 301.946C300.091 301.162 298.831 301.15 298.032 301.907C296.613 303.253 295.159 304.575 293.672 305.872C292.84 306.598 292.735 307.859 293.45 308.702L305.094 322.428C305.808 323.27 307.071 323.375 307.905 322.65Z" fill="#006D32"/>
<path d="M87.6224 85.2727L100.258 98.093C101.034 98.8808 102.301 98.8877 103.099 98.121C104.757 96.5261 106.462 94.9634 108.214 93.4349C109.046 92.7087 109.151 91.4477 108.436 90.6054L96.792 76.8791C96.0774 76.0367 94.8145 75.9322 93.9808 76.6568C91.8083 78.5452 89.6977 80.4788 87.6494 82.4551C86.8553 83.2212 86.8479 84.4868 87.6224 85.2727Z" fill="#006D32"/>
<path d="M296.763 331.574C298.797 330.098 300.786 328.583 302.731 327.031C303.597 326.341 303.721 325.075 303.016 324.22L291.56 310.333C290.859 309.484 289.605 309.362 288.743 310.046C287.211 311.263 285.647 312.452 284.053 313.615C283.16 314.265 282.945 315.513 283.584 316.414L293.982 331.107C294.62 332.008 295.869 332.223 296.763 331.574Z" fill="#39D353"/>
<path d="M98.093 75.8343L109.558 89.711C110.263 90.5636 111.525 90.6814 112.386 89.9874C114.177 88.5436 116.012 87.1362 117.891 85.7668C118.784 85.1162 118.998 83.8692 118.36 82.9676L107.962 68.2751C107.324 67.3735 106.075 67.1589 105.181 67.8078C102.851 69.4989 100.58 71.2404 98.3663 73.0299C97.5082 73.7237 97.3902 74.9837 98.093 75.8343Z" fill="#39D353"/>
<path d="M285.202 339.294C287.354 337.997 289.466 336.657 291.536 335.277C292.458 334.662 292.688 333.412 292.059 332.5L281.828 317.688C281.202 316.782 279.963 316.553 279.046 317.162C277.416 318.243 275.757 319.295 274.068 320.318C273.123 320.89 272.804 322.114 273.362 323.067L282.471 338.592C283.03 339.545 284.257 339.865 285.202 339.294Z" fill="#39D353"/>
<path d="M109.045 67.5571L119.286 82.3601C119.916 83.2697 121.163 83.4946 122.08 82.8764C123.988 81.5906 125.936 80.3446 127.925 79.1403C128.87 78.5682 129.19 77.344 128.631 76.3913L119.522 60.8662C118.963 59.9135 117.737 59.5933 116.791 60.1637C114.326 61.6501 111.914 63.1917 109.556 64.7862C108.642 65.4042 108.417 66.6497 109.045 67.5571Z" fill="#39D353"/>
<path d="M272.691 346.168C274.948 345.063 277.169 343.914 279.352 342.72C280.324 342.188 280.663 340.963 280.116 339.999L271.22 324.349C270.676 323.392 269.461 323.056 268.494 323.581C266.776 324.516 265.031 325.419 263.26 326.29C262.269 326.777 261.843 327.969 262.316 328.967L270.032 345.229C270.506 346.227 271.699 346.653 272.691 346.168Z" fill="#39D353"/>
<path d="M120.983 60.0609L129.89 75.7031C130.437 76.6643 131.66 76.9974 132.628 76.4619C134.641 75.3479 136.691 74.2772 138.777 73.2515C139.769 72.7642 140.194 71.5727 139.721 70.5747L132.005 54.3123C131.532 53.3143 130.338 52.8881 129.346 53.3735C126.761 54.6386 124.223 55.9633 121.735 57.3453C120.77 57.8811 120.437 59.102 120.983 60.0609Z" fill="#39D353"/>
<path d="M259.546 351.952C261.891 351.05 264.204 350.1 266.484 349.103C267.499 348.659 267.945 347.468 267.484 346.461L260.001 330.088C259.543 329.087 258.363 328.645 257.353 329.083C255.559 329.863 253.742 330.609 251.901 331.321C250.87 331.719 250.341 332.868 250.725 333.904L256.98 350.782C257.363 351.818 258.515 352.348 259.546 351.952Z" fill="#0E4429"/>
<path d="M133.609 53.6018L141.105 69.9673C141.565 70.9729 142.754 71.4124 143.765 70.9642C145.868 70.0317 148.005 69.1456 150.173 68.3075C151.204 67.9093 151.733 66.7599 151.349 65.7242L145.095 48.8457C144.711 47.81 143.56 47.2803 142.529 47.6765C139.842 48.7091 137.197 49.8053 134.597 50.963C133.589 51.4117 133.15 52.5987 133.609 53.6018Z" fill="#0E4429"/>
<path d="M246.026 356.532C248.441 355.839 250.828 355.095 253.186 354.301C254.236 353.948 254.785 352.8 254.414 351.756L248.391 334.792C248.023 333.754 246.886 333.211 245.842 333.56C243.987 334.179 242.111 334.763 240.215 335.311C239.154 335.618 238.526 336.716 238.818 337.782L243.572 355.143C243.863 356.208 244.964 356.836 246.026 356.532Z" fill="#26A641"/>
<path d="M146.674 48.3082L152.709 65.2667C153.08 66.3087 154.225 66.8505 155.272 66.4924C157.449 65.7475 159.654 65.0517 161.888 64.4066C162.949 64.1001 163.577 63.0014 163.285 61.936L158.531 44.5751C158.24 43.5097 157.139 42.8814 156.077 43.1859C153.31 43.9794 150.581 44.8401 147.889 45.7658C146.846 46.1247 146.304 47.2686 146.674 48.3082Z" fill="#26A641"/>
<path d="M93.2719 279.292C94.743 281.296 96.2598 283.247 97.8197 285.146C98.1714 285.574 98.8047 285.629 99.2286 285.272L111.473 274.967C111.894 274.612 111.949 273.984 111.6 273.559C110.321 271.996 109.074 270.392 107.864 268.746C107.536 268.301 106.912 268.201 106.464 268.524L93.4937 277.897C93.0461 278.221 92.9452 278.846 93.2719 279.292Z" fill="#39D353"/>
<path d="M301.795 114.762L289.559 125.077C289.136 125.433 289.083 126.065 289.437 126.49C290.909 128.261 292.338 130.086 293.72 131.964C294.047 132.409 294.672 132.51 295.12 132.187L308.09 122.813C308.538 122.49 308.638 121.864 308.312 121.419C306.664 119.174 304.959 116.995 303.2 114.884C302.847 114.46 302.217 114.407 301.795 114.762Z" fill="#39D353"/>
<path d="M86.7255 269.57C88.0149 271.695 89.3545 273.773 90.7418 275.8C91.0546 276.257 91.6806 276.368 92.1341 276.05L105.236 266.859C105.687 266.543 105.797 265.922 105.487 265.468C104.349 263.799 103.248 262.092 102.187 260.346C101.9 259.874 101.286 259.719 100.812 260.002L87.0688 268.2C86.5945 268.483 86.4391 269.097 86.7255 269.57Z" fill="#0E4429"/>
<path d="M308.886 123.981L295.792 133.181C295.34 133.499 295.232 134.124 295.547 134.578C296.858 136.471 298.121 138.414 299.333 140.407C299.62 140.879 300.233 141.035 300.707 140.752L314.45 132.553C314.925 132.27 315.08 131.656 314.794 131.184C313.349 128.803 311.842 126.483 310.276 124.225C309.961 123.771 309.338 123.663 308.886 123.981Z" fill="#0E4429"/>
<path d="M249.461 324.092C251.777 323.188 254.054 322.226 256.29 321.209C256.794 320.98 257.011 320.382 256.776 319.881L249.979 305.391C249.746 304.893 249.153 304.678 248.652 304.905C246.812 305.738 244.941 306.528 243.038 307.273C242.524 307.475 242.265 308.052 242.462 308.568L248.171 323.518C248.368 324.034 248.946 324.293 249.461 324.092Z" fill="#006D32"/>
<path d="M144.315 80.1742L151.122 94.6574C151.358 95.1579 151.954 95.372 152.456 95.1401C154.547 94.1746 156.679 93.2652 158.851 92.4147C159.365 92.2133 159.624 91.6357 159.427 91.1198L153.718 76.1699C153.521 75.6539 152.943 75.3951 152.428 75.5958C149.834 76.6084 147.289 77.6935 144.795 78.8478C144.294 79.0796 144.08 79.6749 144.315 80.1742Z" fill="#006D32"/>
<path d="M238.417 327.897C240.804 327.199 243.156 326.44 245.473 325.622C245.995 325.438 246.264 324.861 246.073 324.341L240.57 309.313C240.381 308.796 239.809 308.53 239.29 308.712C237.384 309.381 235.451 310.005 233.491 310.58C232.961 310.736 232.653 311.289 232.804 311.82L237.183 327.212C237.334 327.743 237.887 328.052 238.417 327.897Z" fill="#26A641"/>
<path d="M155.014 75.7149L160.529 90.7381C160.719 91.2573 161.295 91.5228 161.815 91.3357C163.982 90.5567 166.185 89.8374 168.423 89.1801C168.953 89.0245 169.262 88.4718 169.11 87.9406L164.731 72.5486C164.58 72.0174 164.027 71.7089 163.497 71.8639C160.824 72.6456 158.194 73.5039 155.608 74.4356C155.089 74.6226 154.824 75.197 155.014 75.7149Z" fill="#26A641"/>
<path d="M180.768 331.916C183.226 332.293 185.678 332.6 188.123 332.839C188.675 332.893 189.162 332.484 189.209 331.932L190.579 315.987C190.626 315.438 190.221 314.956 189.673 314.901C187.663 314.702 185.647 314.449 183.628 314.141C183.082 314.058 182.569 314.429 182.481 314.974L179.939 330.773C179.851 331.319 180.222 331.832 180.768 331.916Z" fill="#0E4429"/>
<path d="M211.852 68.1255L210.495 84.0712C210.448 84.6222 210.857 85.1062 211.408 85.1568C213.701 85.3675 216.002 85.6475 218.308 85.9984C218.854 86.0815 219.367 85.711 219.455 85.1658L221.997 69.3661C222.084 68.8209 221.713 68.3074 221.168 68.2236C218.415 67.8014 215.669 67.4667 212.932 67.2175C212.382 67.1675 211.899 67.5758 211.852 68.1255Z" fill="#0E4429"/>
<path d="M169.304 329.681C171.719 330.271 174.135 330.792 176.55 331.244C177.095 331.346 177.616 330.981 177.711 330.435L180.47 314.671C180.565 314.129 180.204 313.612 179.663 313.51C177.678 313.135 175.693 312.707 173.708 312.224C173.171 312.094 172.628 312.418 172.492 312.953L168.578 328.47C168.443 329.006 168.767 329.55 169.304 329.681Z" fill="#39D353"/>
<path d="M223.347 69.6211L220.6 85.387C220.505 85.9318 220.871 86.4498 221.415 86.5483C223.681 86.9588 225.948 87.439 228.214 87.9903C228.751 88.1209 229.295 87.7967 229.43 87.2612L233.344 71.7445C233.479 71.209 233.155 70.665 232.618 70.5339C229.913 69.8725 227.207 69.2988 224.502 68.8111C223.959 68.7131 223.442 69.0777 223.347 69.6211Z" fill="#39D353"/>
<path d="M158.239 326.506C160.595 327.302 162.957 328.029 165.324 328.687C165.858 328.836 166.408 328.518 166.55 327.982L170.658 312.514C170.799 311.982 170.484 311.437 169.954 311.288C168.009 310.744 166.068 310.146 164.132 309.494C163.608 309.318 163.039 309.594 162.858 310.115L157.621 325.237C157.44 325.759 157.716 326.329 158.239 326.506Z" fill="#26A641"/>
<path d="M234.499 72.0728L230.403 87.5432C230.262 88.0778 230.581 88.6253 231.115 88.7704C233.337 89.3747 235.554 90.0486 237.765 90.7932C238.288 90.9695 238.858 90.6934 239.038 90.1716L244.276 75.0501C244.457 74.5282 244.18 73.9583 243.657 73.7813C241.019 72.8892 238.372 72.0844 235.719 71.3653C235.187 71.2209 234.64 71.5395 234.499 72.0728Z" fill="#26A641"/>
<path d="M215.671 332.527C218.142 332.254 220.59 331.914 223.014 331.51C223.56 331.419 223.924 330.898 223.827 330.353L221.012 314.598C220.916 314.056 220.399 313.695 219.856 313.785C217.863 314.113 215.851 314.392 213.821 314.619C213.272 314.68 212.873 315.171 212.929 315.721L214.574 331.639C214.63 332.188 215.122 332.588 215.671 332.527Z" fill="#39D353"/>
<path d="M177.249 69.7051L180.076 85.4568C180.174 86.0012 180.694 86.3624 181.239 86.2684C183.509 85.8769 185.803 85.5504 188.121 85.2911C188.67 85.2297 189.069 84.7387 189.013 84.1894L187.368 68.2713C187.311 67.7219 186.82 67.3222 186.271 67.383C183.503 67.6894 180.764 68.0787 178.056 68.5481C177.513 68.6424 177.152 69.1621 177.249 69.7051Z" fill="#39D353"/>
<path d="M226.993 330.738C229.432 330.253 231.842 329.705 234.222 329.095C234.758 328.957 235.077 328.407 234.933 327.872L230.776 312.417C230.633 311.885 230.087 311.57 229.554 311.706C227.597 312.204 225.616 312.654 223.613 313.055C223.071 313.163 222.715 313.687 222.819 314.229L225.824 329.947C225.928 330.49 226.452 330.846 226.993 330.738Z" fill="#39D353"/>
<path d="M166.149 72.1852L170.318 87.6361C170.462 88.1701 171.012 88.4853 171.547 88.3448C173.774 87.76 176.032 87.2377 178.319 86.7803C178.861 86.672 179.216 86.1486 179.113 85.6061L176.108 69.8879C176.004 69.3455 175.48 68.9894 174.938 69.0971C172.207 69.6401 169.511 70.2631 166.854 70.9633C166.32 71.1038 166.006 71.6526 166.149 72.1852Z" fill="#39D353"/>
<path d="M204.018 333.343C206.504 333.287 208.972 333.163 211.422 332.972C211.974 332.93 212.383 332.442 212.333 331.891L210.908 315.95C210.859 315.402 210.376 314.997 209.827 315.038C207.813 315.192 205.784 315.293 203.742 315.342C203.19 315.355 202.749 315.809 202.758 316.361L203.003 332.362C203.011 332.914 203.466 333.356 204.018 333.343Z" fill="#39D353"/>
<path d="M188.738 68.1673L190.175 84.106C190.225 84.6567 190.712 85.0622 191.263 85.0162C193.558 84.8248 195.872 84.7002 198.204 84.6447C198.756 84.6315 199.197 84.1774 199.189 83.6252L198.943 67.6243C198.935 67.0721 198.48 66.6309 197.928 66.6434C195.144 66.7065 192.381 66.8547 189.643 67.0854C189.093 67.1317 188.688 67.6179 188.738 68.1673Z" fill="#39D353"/>
<path d="M192.239 333.13C194.72 333.294 197.19 333.388 199.647 333.414C200.2 333.42 200.65 332.971 200.65 332.417L200.637 316.413C200.636 315.863 200.191 315.417 199.64 315.41C197.621 315.385 195.591 315.307 193.552 315.175C193.001 315.139 192.522 315.553 192.482 316.104L191.314 332.064C191.274 332.615 191.688 333.094 192.239 333.13Z" fill="#006D32"/>
<path d="M200.415 67.6406L200.441 83.6439C200.441 84.1969 200.891 84.6438 201.444 84.6466C203.747 84.6584 206.063 84.7385 208.391 84.8889C208.942 84.9245 209.421 84.5111 209.461 83.9603L210.629 68.0001C210.669 67.4493 210.255 66.9698 209.704 66.9335C206.925 66.7507 204.16 66.6546 201.412 66.6427C200.86 66.6404 200.414 67.0889 200.415 67.6406Z" fill="#006D32"/>
<path d="M147.334 322.32C149.611 323.32 151.9 324.25 154.201 325.113C154.719 325.308 155.296 325.039 155.484 324.518L160.929 309.469C161.117 308.951 160.85 308.38 160.335 308.186C158.445 307.473 156.564 306.708 154.692 305.889C154.186 305.668 153.595 305.893 153.369 306.397L146.829 321.002C146.603 321.506 146.829 322.098 147.334 322.32Z" fill="#006D32"/>
<path d="M245.562 75.5347L240.128 90.5873C239.94 91.1075 240.21 91.6809 240.729 91.8722C242.89 92.6685 245.04 93.5338 247.177 94.4689C247.683 94.6904 248.274 94.4651 248.5 93.9611L255.04 79.3558C255.266 78.8518 255.04 78.2598 254.535 78.0378C251.985 76.9183 249.418 75.885 246.839 74.9366C246.321 74.7462 245.749 75.0158 245.562 75.5347Z" fill="#006D32"/>
<path d="M136.678 317.111C138.857 318.308 141.055 319.439 143.269 320.503C143.769 320.743 144.366 320.526 144.6 320.024L151.361 305.518C151.594 305.019 151.379 304.426 150.883 304.187C149.064 303.31 147.258 302.38 145.467 301.398C144.982 301.133 144.373 301.304 144.104 301.786L136.292 315.753C136.022 316.235 136.194 316.844 136.678 317.111Z" fill="#0E4429"/>
<path d="M256.44 80.027L249.691 94.5374C249.458 95.0388 249.676 95.634 250.176 95.8706C252.257 96.8557 254.322 97.9086 256.367 99.0299C256.851 99.2954 257.461 99.1236 257.73 98.6416L265.542 84.6751C265.812 84.1931 265.64 83.5834 265.156 83.3174C262.715 81.9757 260.251 80.7185 257.766 79.5447C257.267 79.3091 256.673 79.5267 256.44 80.027Z" fill="#0E4429"/>
<path d="M126.96 311.261C129.029 312.64 131.123 313.953 133.239 315.201C133.716 315.483 134.33 315.318 134.606 314.837L142.575 300.958C142.849 300.481 142.686 299.872 142.212 299.592C140.474 298.563 138.753 297.483 137.052 296.352C136.592 296.047 135.97 296.166 135.661 296.624L126.69 309.876C126.381 310.333 126.5 310.955 126.96 311.261Z" fill="#0E4429"/>
<path d="M266.433 85.2108L258.475 99.0953C258.2 99.5752 258.367 100.187 258.845 100.465C260.835 101.623 262.803 102.848 264.746 104.139C265.206 104.444 265.827 104.325 266.137 103.868L275.107 90.6155C275.417 90.1581 275.297 89.5361 274.837 89.2298C272.52 87.6857 270.171 86.2236 267.795 84.843C267.318 84.5658 266.707 84.7322 266.433 85.2108Z" fill="#0E4429"/>
<path d="M117.551 304.431C119.492 305.985 121.463 307.475 123.463 308.903C123.914 309.225 124.54 309.114 124.856 308.66L134.003 295.527C134.318 295.075 134.208 294.455 133.761 294.134C132.119 292.958 130.499 291.732 128.902 290.458C128.471 290.113 127.841 290.178 127.493 290.607L117.403 303.027C117.054 303.456 117.119 304.086 117.551 304.431Z" fill="#39D353"/>
<path d="M276.179 91.3851L267.042 104.524C266.727 104.978 266.84 105.602 267.292 105.92C269.173 107.248 271.027 108.639 272.85 110.094C273.281 110.439 273.911 110.374 274.259 109.945L284.349 97.5246C284.698 97.096 284.633 96.4659 284.201 96.1208C282.027 94.3807 279.815 92.7196 277.568 91.1373C277.117 90.8196 276.494 90.9322 276.179 91.3851Z" fill="#39D353"/>
<path d="M108.764 296.803C110.563 298.519 112.397 300.176 114.264 301.773C114.685 302.133 115.319 302.077 115.674 301.652L125.931 289.366C126.283 288.944 126.228 288.316 125.81 287.957C124.277 286.642 122.77 285.281 121.291 283.872C120.891 283.491 120.258 283.5 119.874 283.897L108.739 295.391C108.355 295.788 108.365 296.421 108.764 296.803Z" fill="#39D353"/>
<path d="M285.355 98.3909L275.109 110.683C274.754 111.108 274.813 111.739 275.235 112.096C276.994 113.583 278.719 115.13 280.408 116.739C280.808 117.12 281.441 117.11 281.825 116.713L292.96 105.219C293.344 104.822 293.334 104.189 292.935 103.808C290.92 101.885 288.861 100.037 286.76 98.2649C286.339 97.9092 285.709 97.9671 285.355 98.3909Z" fill="#39D353"/>
<path d="M100.687 288.448C102.33 290.315 104.013 292.125 105.734 293.878C106.122 294.273 106.758 294.273 107.149 293.88L118.436 282.534C118.824 282.144 118.823 281.514 118.438 281.12C117.026 279.677 115.643 278.189 114.292 276.657C113.926 276.242 113.295 276.197 112.878 276.559L100.785 287.04C100.368 287.402 100.323 288.034 100.687 288.448Z" fill="#39D353"/>
<path d="M293.877 106.158L282.599 117.513C282.209 117.905 282.212 118.539 282.602 118.931C284.225 120.565 285.809 122.256 287.351 124.006C287.717 124.42 288.348 124.466 288.765 124.104L300.858 113.622C301.275 113.261 301.32 112.629 300.956 112.214C299.116 110.123 297.225 108.103 295.287 106.155C294.898 105.764 294.265 105.767 293.877 106.158Z" fill="#39D353"/>
<path d="M81.0805 259.355C82.1792 261.586 83.3321 263.772 84.5368 265.913C84.8084 266.396 85.4224 266.561 85.9019 266.284L99.757 258.273C100.234 257.998 100.397 257.389 100.128 256.909C99.1406 255.147 98.1935 253.35 97.2887 251.519C97.044 251.023 96.4465 250.815 95.9493 251.055L81.5422 258.021C81.0449 258.262 80.8364 258.86 81.0805 259.355Z" fill="#26A641"/>
<path d="M315.116 133.742L301.268 141.762C300.79 142.04 300.627 142.652 300.901 143.133C302.042 145.133 303.13 147.179 304.163 149.27C304.408 149.766 305.006 149.974 305.503 149.734L319.91 142.768C320.407 142.527 320.616 141.929 320.372 141.434C319.141 138.935 317.842 136.492 316.479 134.106C316.205 133.627 315.594 133.465 315.116 133.742Z" fill="#26A641"/>
<path d="M76.4291 248.892C77.3324 251.208 78.2936 253.485 79.3102 255.722C79.5394 256.226 80.1369 256.444 80.6385 256.209L95.1296 249.416C95.628 249.182 95.8434 248.59 95.6165 248.088C94.7836 246.248 93.9941 244.377 93.2497 242.474C93.0484 241.96 92.4709 241.701 91.9549 241.898L77.0035 247.603C76.4875 247.799 76.2284 248.377 76.4291 248.892Z" fill="#39D353"/>
<path d="M320.376 143.814L305.891 150.618C305.391 150.853 305.176 151.449 305.408 151.951C306.373 154.042 307.282 156.174 308.132 158.346C308.333 158.861 308.911 159.119 309.427 158.923L324.378 153.218C324.894 153.021 325.153 152.443 324.952 151.928C323.941 149.334 322.856 146.789 321.703 144.294C321.471 143.793 320.876 143.579 320.376 143.814Z" fill="#39D353"/>
<path d="M72.646 237.903C73.3443 240.29 74.1036 242.642 74.9217 244.958C75.1062 245.481 75.6825 245.749 76.2026 245.559L91.23 240.053C91.7468 239.864 92.013 239.292 91.8305 238.773C91.161 236.867 90.5374 234.934 89.9614 232.974C89.8057 232.444 89.2529 232.136 88.7217 232.287L73.3304 236.669C72.7993 236.82 72.4909 237.373 72.646 237.903Z" fill="#26A641"/>
<path d="M324.813 154.457L309.791 159.974C309.272 160.165 309.007 160.741 309.194 161.261C309.973 163.428 310.693 165.631 311.35 167.869C311.506 168.399 312.059 168.707 312.59 168.556L327.981 164.174C328.513 164.023 328.821 163.469 328.666 162.939C327.884 160.267 327.025 157.637 326.093 155.051C325.906 154.532 325.331 154.267 324.813 154.457Z" fill="#26A641"/>
<path d="M69.8938 226.926C70.3873 229.363 70.9445 231.771 71.5633 234.149C71.7028 234.685 72.2543 235.001 72.7887 234.855L88.2286 230.643C88.7597 230.498 89.0733 229.952 88.9356 229.419C88.4299 227.463 87.9725 225.484 87.5647 223.482C87.4544 222.941 86.9298 222.587 86.3877 222.693L70.6804 225.754C70.1383 225.86 69.7841 226.385 69.8938 226.926Z" fill="#39D353"/>
<path d="M328.227 165.156L312.791 169.38C312.258 169.526 311.945 170.077 312.087 170.611C312.68 172.836 313.21 175.092 313.676 177.378C313.786 177.919 314.311 178.273 314.853 178.167L330.56 175.106C331.102 175.001 331.456 174.475 331.347 173.934C330.794 171.205 330.161 168.511 329.452 165.856C329.309 165.323 328.759 165.01 328.227 165.156Z" fill="#39D353"/>
<path d="M68.0848 215.8C68.3708 218.27 68.7227 220.717 69.1386 223.138C69.2323 223.684 69.7551 224.046 70.3 223.946L86.0404 221.052C86.5818 220.953 86.9405 220.434 86.8482 219.892C86.5095 217.901 86.2207 215.89 85.9834 213.861C85.9193 213.312 85.4264 212.915 84.8773 212.975L68.9676 214.699C68.4185 214.758 68.0213 215.252 68.0848 215.8Z" fill="#006D32"/>
<path d="M330.711 176.062L314.974 178.967C314.43 179.068 314.071 179.59 314.168 180.135C314.571 182.402 314.909 184.695 315.18 187.012C315.244 187.56 315.737 187.957 316.286 187.898L332.196 186.173C332.745 186.114 333.142 185.621 333.078 185.072C332.758 182.306 332.355 179.568 331.872 176.863C331.775 176.32 331.253 175.962 330.711 176.062Z" fill="#006D32"/>
<path d="M67.2205 204.443C67.2947 206.928 67.4366 209.395 67.6443 211.843C67.6912 212.395 68.1812 212.801 68.7326 212.747L84.6625 211.207C85.2104 211.154 85.612 210.668 85.5664 210.12C85.3988 208.107 85.2826 206.079 85.2193 204.037C85.2022 203.485 84.7449 203.048 84.1928 203.06L68.194 203.42C67.6419 203.433 67.204 203.891 67.2205 204.443Z" fill="#39D353"/>
<path d="M332.279 187.255L316.351 188.807C315.801 188.861 315.399 189.351 315.449 189.902C315.657 192.195 315.798 194.508 315.871 196.84C315.888 197.392 316.345 197.829 316.897 197.817L332.896 197.456C333.448 197.444 333.886 196.986 333.869 196.434C333.786 193.65 333.618 190.889 333.368 188.152C333.318 187.603 332.828 187.202 332.279 187.255Z" fill="#39D353"/>
<path d="M67.3157 193.282C67.1819 195.764 67.117 198.235 67.1194 200.692C67.1199 201.246 67.5744 201.69 68.1283 201.683L84.1312 201.481C84.6816 201.474 85.1224 201.023 85.1227 200.473C85.124 198.453 85.1778 196.422 85.2854 194.382C85.3145 193.831 84.8954 193.356 84.3442 193.323L68.3713 192.344C67.82 192.311 67.3454 192.73 67.3157 193.282Z" fill="#0E4429"/>
<path d="M332.884 198.314L316.882 198.529C316.329 198.536 315.887 198.991 315.891 199.544C315.907 201.847 315.854 204.164 315.731 206.493C315.702 207.045 316.121 207.519 316.672 207.553L332.645 208.531C333.196 208.565 333.671 208.145 333.701 207.594C333.851 204.813 333.914 202.047 333.893 199.299C333.889 198.747 333.435 198.306 332.884 198.314Z" fill="#0E4429"/>
<path d="M68.4153 181.652C68.0648 184.114 67.784 186.57 67.5714 189.017C67.5235 189.569 67.9373 190.052 68.4897 190.093L84.449 191.291C84.9979 191.332 85.4764 190.922 85.5249 190.374C85.7029 188.362 85.9342 186.344 86.2198 184.321C86.2971 183.774 85.9211 183.265 85.3749 183.183L69.5489 180.811C69.0027 180.729 68.4932 181.106 68.4153 181.652Z" fill="#0E4429"/>
<path d="M332.525 209.899L316.565 208.714C316.014 208.673 315.534 209.087 315.49 209.638C315.304 211.934 315.048 214.237 314.722 216.547C314.645 217.094 315.021 217.603 315.567 217.685L331.393 220.057C331.939 220.138 332.449 219.762 332.527 219.215C332.919 216.458 333.224 213.708 333.444 210.969C333.488 210.419 333.075 209.94 332.525 209.899Z" fill="#0E4429"/>
<path d="M70.5726 169.965C70.0044 172.385 69.5061 174.806 69.0765 177.225C68.9796 177.77 69.3488 178.288 69.8953 178.378L85.6847 180.992C86.2277 181.082 86.7408 180.716 86.838 180.174C87.1943 178.186 87.6043 176.197 88.0689 174.207C88.1945 173.67 87.8653 173.129 87.3286 172.999L71.7765 169.228C71.2398 169.097 70.6988 169.427 70.5726 169.965Z" fill="#26A641"/>
<path d="M331.119 221.608L315.329 219.007C314.783 218.917 314.269 219.287 314.175 219.832C313.785 222.102 313.326 224.373 312.796 226.645C312.67 227.182 312.999 227.723 313.536 227.853L329.088 231.624C329.625 231.755 330.166 231.425 330.292 230.887C330.928 228.176 331.477 225.465 331.94 222.756C332.033 222.212 331.664 221.698 331.119 221.608Z" fill="#26A641"/>
<path d="M73.682 158.761C72.9052 161.123 72.198 163.491 71.5593 165.864C71.4153 166.398 71.7381 166.946 72.2746 167.084L87.7764 171.063C88.3095 171.2 88.8526 170.88 88.9965 170.348C89.5247 168.399 90.1063 166.453 90.7424 164.511C90.9143 163.986 90.6335 163.419 90.1101 163.243L74.9455 158.132C74.4222 157.955 73.8546 158.236 73.682 158.761Z" fill="#39D353"/>
<path d="M328.742 232.898L313.238 228.931C312.702 228.794 312.157 229.118 312.016 229.653C311.431 231.88 310.775 234.103 310.049 236.319C309.877 236.844 310.158 237.411 310.681 237.588L325.846 242.699C326.369 242.875 326.937 242.594 327.109 242.069C327.98 239.424 328.762 236.77 329.459 234.112C329.599 233.578 329.276 233.034 328.742 232.898Z" fill="#39D353"/>
<path d="M77.7751 147.821C76.7946 150.106 75.883 152.403 75.0392 154.711C74.849 155.231 75.1225 155.805 75.645 155.989L90.7392 161.309C91.2583 161.492 91.8273 161.221 92.0171 160.704C92.7138 158.808 93.4636 156.92 94.267 155.042C94.4842 154.534 94.2541 153.945 93.7481 153.723L79.0889 147.305C78.583 147.083 77.9929 147.314 77.7751 147.821Z" fill="#26A641"/>
<path d="M325.371 243.988L310.273 238.68C309.752 238.497 309.18 238.772 308.993 239.292C308.215 241.46 307.368 243.617 306.45 245.761C306.233 246.269 306.463 246.859 306.969 247.08L321.629 253.499C322.135 253.72 322.725 253.49 322.942 252.982C324.041 250.423 325.052 247.848 325.979 245.261C326.165 244.741 325.891 244.171 325.371 243.988Z" fill="#26A641"/>
<path d="M82.8099 137.285C81.6334 139.475 80.5243 141.684 79.4819 143.909C79.2469 144.41 79.4692 145.006 79.9736 145.235L94.5447 151.855C95.0458 152.082 95.6363 151.862 95.8706 151.364C96.7304 149.536 97.6424 147.721 98.607 145.92C98.8678 145.433 98.6901 144.826 98.2055 144.561L84.1638 136.885C83.6792 136.62 83.0712 136.798 82.8099 137.285Z" fill="#39D353"/>
<path d="M321.046 254.738L306.47 248.13C305.967 247.902 305.374 248.126 305.142 248.628C304.177 250.719 303.144 252.794 302.043 254.85C301.782 255.336 301.96 255.944 302.445 256.209L316.486 263.885C316.971 264.15 317.579 263.972 317.84 263.485C319.158 261.032 320.391 258.555 321.541 256.059C321.772 255.558 321.548 254.966 321.046 254.738Z" fill="#39D353"/>
<path d="M88.7475 127.225C87.3839 129.304 86.0858 131.407 84.8528 133.533C84.5748 134.012 84.7442 134.624 85.2265 134.897L99.1626 142.766C99.6419 143.036 100.249 142.869 100.526 142.393C101.543 140.648 102.61 138.919 103.729 137.21C104.031 136.748 103.907 136.127 103.448 135.821L90.1312 126.946C89.6716 126.639 89.0504 126.763 88.7475 127.225Z" fill="#39D353"/>
<path d="M315.794 265.071L301.853 257.213C301.371 256.942 300.761 257.113 300.486 257.593C299.342 259.591 298.132 261.568 296.855 263.52C296.552 263.982 296.676 264.602 297.136 264.909L310.452 273.784C310.912 274.09 311.533 273.966 311.836 273.504C313.363 271.175 314.808 268.816 316.172 266.43C316.446 265.951 316.275 265.342 315.794 265.071Z" fill="#39D353"/>
<path d="M95.475 117.812C93.9363 119.765 92.4608 121.747 91.0483 123.758C90.7298 124.211 90.8454 124.836 91.3024 125.149L104.504 134.196C104.958 134.507 105.578 134.393 105.895 133.943C107.059 132.292 108.272 130.663 109.534 129.057C109.876 128.623 109.806 127.994 109.375 127.649L96.8777 117.653C96.4464 117.308 95.8168 117.378 95.475 117.812Z" fill="#006D32"/>
<path d="M309.721 274.815L296.513 265.779C296.057 265.466 295.434 265.584 295.119 266.038C293.806 267.93 292.429 269.794 290.988 271.628C290.646 272.062 290.716 272.691 291.147 273.036L303.644 283.032C304.076 283.377 304.705 283.307 305.047 282.873C306.77 280.686 308.415 278.461 309.98 276.202C310.294 275.748 310.177 275.127 309.721 274.815Z" fill="#006D32"/>
<path d="M103.068 108.935C101.365 110.746 99.7214 112.592 98.1384 114.471C97.7815 114.895 97.842 115.528 98.2698 115.88L110.629 126.047C111.054 126.397 111.682 126.337 112.037 125.916C113.341 124.374 114.692 122.857 116.09 121.367C116.468 120.965 116.454 120.332 116.054 119.95L104.48 108.9C104.08 108.518 103.447 108.533 103.068 108.935Z" fill="#39D353"/>
<path d="M302.757 284.081L290.391 273.923C289.963 273.572 289.332 273.635 288.979 274.06C287.505 275.83 285.97 277.566 284.374 279.267C283.996 279.67 284.01 280.302 284.41 280.684L295.985 291.734C296.384 292.116 297.017 292.101 297.396 291.699C299.304 289.671 301.137 287.598 302.893 285.485C303.246 285.06 303.184 284.431 302.757 284.081Z" fill="#39D353"/>
<path d="M111.182 100.962C109.331 102.621 107.536 104.32 105.799 106.058C105.407 106.449 105.413 107.085 105.81 107.472L117.258 118.656C117.652 119.04 118.282 119.034 118.672 118.645C120.102 117.219 121.578 115.823 123.098 114.458C123.508 114.089 123.548 113.458 123.183 113.043L112.592 101.047C112.226 100.633 111.594 100.593 111.182 100.962Z" fill="#39D353"/>
<path d="M295.222 292.485L283.766 281.311C283.37 280.925 282.736 280.933 282.347 281.327C280.728 282.964 279.051 284.564 277.316 286.122C276.905 286.491 276.865 287.123 277.231 287.537L287.822 299.534C288.187 299.948 288.819 299.987 289.231 299.619C291.305 297.76 293.307 295.851 295.238 293.895C295.626 293.503 295.617 292.87 295.222 292.485Z" fill="#39D353"/>
<path d="M120.189 93.5241C118.199 95.0149 116.263 96.5508 114.38 98.1294C113.956 98.4853 113.906 99.1192 114.267 99.5394L124.693 111.682C125.052 112.099 125.68 112.148 126.102 111.795C127.652 110.5 129.244 109.238 130.878 108.011C131.319 107.68 131.414 107.054 131.086 106.609L121.585 93.7322C121.257 93.2878 120.631 93.193 120.189 93.5241Z" fill="#39D353"/>
<path d="M286.767 300.414L276.332 288.281C275.971 287.861 275.339 287.815 274.918 288.172C273.162 289.662 271.351 291.109 269.486 292.509C269.044 292.841 268.949 293.467 269.277 293.911L278.778 306.788C279.106 307.233 279.732 307.328 280.174 306.996C282.403 305.327 284.565 303.6 286.659 301.821C287.08 301.463 287.126 300.832 286.767 300.414Z" fill="#39D353"/>
<path d="M129.872 86.8656C127.759 88.1755 125.695 89.535 123.681 90.9417C123.227 91.2589 123.122 91.8859 123.444 92.3363L132.761 105.349C133.081 105.797 133.703 105.901 134.155 105.586C135.813 104.432 137.509 103.315 139.244 102.237C139.714 101.946 139.863 101.331 139.575 100.859L131.245 87.1957C130.957 86.7242 130.342 86.5746 129.872 86.8656Z" fill="#0E4429"/>
<path d="M277.593 307.615L268.267 294.61C267.945 294.16 267.319 294.058 266.868 294.377C264.988 295.707 263.057 296.988 261.075 298.22C260.606 298.511 260.457 299.126 260.744 299.598L269.075 313.261C269.362 313.733 269.978 313.882 270.447 313.591C272.815 312.124 275.12 310.595 277.363 309.006C277.813 308.687 277.915 308.063 277.593 307.615Z" fill="#0E4429"/>
<path d="M140.042 81.117C137.822 82.2369 135.647 83.4107 133.518 84.6358C133.037 84.912 132.878 85.5275 133.16 86.0044L141.303 99.7824C141.583 100.256 142.193 100.414 142.67 100.141C144.423 99.1362 146.211 98.1719 148.033 97.2497C148.526 97.0003 148.729 96.4008 148.484 95.9059L141.38 81.5659C141.135 81.071 140.535 80.8682 140.042 81.117Z" fill="#26A641"/>
<path d="M267.884 313.943L259.731 300.172C259.449 299.697 258.835 299.54 258.357 299.819C256.368 300.978 254.332 302.086 252.251 303.139C251.758 303.388 251.556 303.988 251.801 304.483L258.904 318.823C259.149 319.318 259.749 319.521 260.242 319.272C262.729 318.017 265.159 316.695 267.532 315.309C268.009 315.031 268.165 314.418 267.884 313.943Z" fill="#26A641"/>
<path d="M99.6709 162.893C99.0185 164.648 98.4148 166.409 97.8593 168.175C97.6931 168.703 97.9937 169.264 98.5244 169.423L110.504 173.014C111.031 173.172 111.587 172.874 111.753 172.349C112.206 170.92 112.695 169.494 113.221 168.073C113.413 167.555 113.155 166.977 112.639 166.78L100.958 162.315C100.442 162.118 99.8633 162.376 99.6709 162.893Z" fill="#39D353"/>
<path d="M302.508 230.562L290.526 226.98C289.996 226.821 289.439 227.123 289.276 227.652C288.767 229.302 288.209 230.948 287.602 232.587C287.41 233.105 287.668 233.683 288.184 233.88L299.865 238.345C300.381 238.542 300.959 238.284 301.152 237.767C301.888 235.786 302.562 233.798 303.176 231.803C303.338 231.276 303.036 230.72 302.508 230.562Z" fill="#39D353"/>
<path d="M103.317 154.182C102.513 155.872 101.757 157.574 101.048 159.284C100.836 159.796 101.087 160.38 101.601 160.585L113.22 165.214C113.731 165.418 114.31 165.17 114.522 164.662C115.098 163.278 115.711 161.9 116.36 160.531C116.596 160.032 116.39 159.433 115.893 159.192L104.649 153.718C104.153 153.477 103.554 153.683 103.317 154.182Z" fill="#0E4429"/>
<path d="M299.43 239.395L287.809 234.775C287.295 234.571 286.714 234.822 286.505 235.335C285.853 236.934 285.153 238.524 284.404 240.104C284.168 240.603 284.374 241.202 284.87 241.443L296.114 246.916C296.611 247.158 297.21 246.952 297.447 246.453C298.355 244.545 299.201 242.623 299.986 240.69C300.194 240.179 299.943 239.599 299.43 239.395Z" fill="#0E4429"/>
<path d="M138.657 287.874C140.184 288.957 141.73 289.995 143.292 290.987C143.76 291.284 144.379 291.138 144.669 290.667L151.231 280.02C151.519 279.551 151.375 278.938 150.911 278.642C149.646 277.835 148.395 276.995 147.158 276.12C146.707 275.801 146.082 275.901 145.758 276.348L138.43 286.482C138.107 286.929 138.207 287.555 138.657 287.874Z" fill="#006D32"/>
<path d="M256.377 109.37L249.824 120.021C249.535 120.492 249.682 121.109 250.151 121.403C251.614 122.32 253.06 123.284 254.487 124.293C254.938 124.612 255.563 124.512 255.887 124.065L263.215 113.932C263.538 113.484 263.438 112.858 262.988 112.539C261.265 111.316 259.518 110.152 257.749 109.045C257.281 108.752 256.666 108.9 256.377 109.37Z" fill="#006D32"/>
<path d="M131.207 282.124C132.633 283.336 134.082 284.505 135.552 285.631C135.992 285.967 136.621 285.876 136.952 285.432L144.419 275.399C144.748 274.958 144.658 274.334 144.221 273.999C143.032 273.085 141.859 272.138 140.703 271.158C140.282 270.801 139.651 270.846 139.289 271.264L131.103 280.717C130.741 281.134 130.786 281.766 131.207 282.124Z" fill="#26A641"/>
<path d="M264.092 114.603L256.633 124.64C256.303 125.084 256.396 125.711 256.837 126.045C258.215 127.087 259.571 128.174 260.904 129.304C261.325 129.661 261.957 129.616 262.318 129.199L270.505 119.745C270.866 119.328 270.821 118.696 270.401 118.338C268.791 116.97 267.152 115.657 265.487 114.4C265.047 114.067 264.421 114.16 264.092 114.603Z" fill="#26A641"/>
<path d="M102.979 245.094C103.758 246.796 104.577 248.468 105.433 250.109C105.689 250.601 106.298 250.784 106.786 250.521L117.796 244.589C118.28 244.328 118.462 243.724 118.208 243.236C117.517 241.905 116.855 240.551 116.222 239.174C115.991 238.672 115.4 238.446 114.896 238.671L103.48 243.775C102.975 244 102.749 244.592 102.979 245.094Z" fill="#0E4429"/>
<path d="M294.246 149.498L283.242 155.439C282.755 155.701 282.574 156.309 282.833 156.798C283.64 158.325 284.41 159.883 285.14 161.471C285.37 161.973 285.961 162.199 286.466 161.974L297.882 156.87C298.386 156.645 298.613 156.053 298.383 155.551C297.503 153.63 296.573 151.747 295.596 149.904C295.338 149.416 294.732 149.236 294.246 149.498Z" fill="#0E4429"/>
<path d="M99.4087 236.386C100.036 238.15 100.705 239.887 101.415 241.597C101.627 242.109 102.217 242.345 102.726 242.126L114.213 237.179C114.718 236.961 114.952 236.376 114.742 235.867C114.17 234.481 113.629 233.074 113.119 231.647C112.933 231.127 112.364 230.85 111.842 231.031L100.023 235.116C99.5009 235.296 99.2235 235.866 99.4087 236.386Z" fill="#39D353"/>
<path d="M298.306 157.89L286.824 162.845C286.316 163.065 286.083 163.654 286.298 164.164C286.968 165.755 287.599 167.375 288.187 169.021C288.373 169.541 288.942 169.818 289.464 169.638L301.283 165.552C301.805 165.372 302.082 164.802 301.897 164.282C301.189 162.292 300.428 160.335 299.616 158.413C299.401 157.904 298.813 157.672 298.306 157.89Z" fill="#39D353"/>
<path d="M96.6484 227.533C97.1217 229.344 97.6386 231.132 98.1976 232.897C98.3649 233.425 98.9328 233.711 99.4586 233.537L111.329 229.599C111.851 229.425 112.135 228.863 111.97 228.338C111.519 226.907 111.101 225.459 110.716 223.993C110.576 223.459 110.033 223.134 109.497 223.269L97.3698 226.32C96.8342 226.455 96.5088 226.998 96.6484 227.533Z" fill="#26A641"/>
<path d="M301.572 166.474L289.705 170.421C289.181 170.596 288.898 171.163 289.068 171.689C289.598 173.333 290.087 175 290.531 176.691C290.671 177.225 291.214 177.55 291.75 177.416L303.877 174.364C304.413 174.23 304.738 173.686 304.599 173.152C304.065 171.108 303.475 169.092 302.832 167.108C302.662 166.583 302.095 166.3 301.572 166.474Z" fill="#26A641"/>
<path d="M118.02 268.862C119.214 270.303 120.439 271.705 121.691 273.068C122.066 273.476 122.702 273.496 123.104 273.115L132.198 264.529C132.598 264.151 132.618 263.522 132.246 263.116C131.233 262.009 130.242 260.874 129.274 259.708C128.921 259.284 128.291 259.218 127.863 259.567L118.161 267.458C117.733 267.806 117.668 268.436 118.02 268.862Z" fill="#39D353"/>
<path d="M277.935 126.914L268.848 135.507C268.447 135.887 268.43 136.52 268.806 136.925C269.982 138.191 271.129 139.496 272.247 140.84C272.6 141.265 273.229 141.33 273.658 140.982L283.359 133.091C283.787 132.742 283.853 132.112 283.5 131.687C282.152 130.06 280.766 128.483 279.344 126.956C278.968 126.552 278.336 126.535 277.935 126.914Z" fill="#39D353"/>
<path d="M124.236 275.692C125.55 277.025 126.89 278.317 128.255 279.568C128.664 279.942 129.299 279.907 129.667 279.493L137.99 270.158C138.356 269.747 138.321 269.118 137.916 268.745C136.812 267.73 135.727 266.684 134.662 265.606C134.274 265.213 133.642 265.202 133.245 265.586L124.257 274.281C123.86 274.665 123.849 275.298 124.236 275.692Z" fill="#39D353"/>
<path d="M271.374 120.539L263.059 129.88C262.691 130.293 262.729 130.926 263.139 131.297C264.419 132.457 265.674 133.658 266.902 134.902C267.291 135.295 267.923 135.306 268.32 134.922L277.308 126.227C277.705 125.843 277.716 125.21 277.329 124.816C275.846 123.311 274.329 121.859 272.782 120.46C272.372 120.09 271.741 120.127 271.374 120.539Z" fill="#39D353"/>
<path d="M112.311 261.378C113.375 262.918 114.472 264.422 115.6 265.89C115.938 266.329 116.569 266.404 117.004 266.06L126.814 258.302C127.246 257.961 127.32 257.335 126.985 256.898C126.073 255.708 125.185 254.49 124.322 253.244C124.008 252.79 123.386 252.67 122.929 252.98L112.575 259.992C112.117 260.301 111.997 260.923 112.311 261.378Z" fill="#39D353"/>
<path d="M284.031 133.965L274.228 141.73C273.795 142.073 273.723 142.703 274.062 143.139C275.123 144.503 276.151 145.903 277.147 147.34C277.461 147.794 278.082 147.914 278.54 147.605L288.894 140.593C289.352 140.283 289.472 139.661 289.158 139.207C287.957 137.468 286.715 135.776 285.432 134.13C285.092 133.695 284.464 133.623 284.031 133.965Z" fill="#39D353"/>
<path d="M107.239 253.354C108.163 254.982 109.123 256.577 110.117 258.138C110.415 258.605 111.037 258.736 111.501 258.432L121.957 251.57C122.417 251.268 122.546 250.651 122.251 250.186C121.448 248.92 120.671 247.628 119.921 246.312C119.648 245.832 119.04 245.657 118.557 245.925L107.624 251.996C107.141 252.264 106.967 252.873 107.239 253.354Z" fill="#006D32"/>
<path d="M289.531 141.589L279.081 148.458C278.619 148.762 278.492 149.383 278.792 149.848C279.728 151.3 280.629 152.785 281.493 154.304C281.767 154.784 282.375 154.959 282.858 154.691L293.791 148.62C294.274 148.352 294.448 147.743 294.175 147.262C293.133 145.425 292.044 143.629 290.912 141.877C290.612 141.413 289.992 141.286 289.531 141.589Z" fill="#006D32"/>
<path d="M94.6379 218.338C94.9509 220.184 95.3094 222.01 95.7119 223.817C95.8324 224.358 96.373 224.693 96.912 224.565L109.081 221.68C109.617 221.553 109.949 221.018 109.83 220.48C109.507 219.016 109.217 217.537 108.961 216.043C108.868 215.499 108.356 215.127 107.81 215.215L95.4626 217.193C94.9173 217.28 94.5456 217.793 94.6379 218.338Z" fill="#006D32"/>
<path d="M304.118 175.442L291.951 178.336C291.413 178.463 291.082 179.004 291.205 179.543C291.59 181.227 291.93 182.931 292.225 184.654C292.318 185.198 292.831 185.569 293.376 185.482L305.724 183.504C306.269 183.416 306.641 182.903 306.549 182.359C306.195 180.276 305.784 178.217 305.317 176.183C305.193 175.645 304.654 175.314 304.118 175.442Z" fill="#006D32"/>
<path d="M93.4275 208.858C93.5753 210.724 93.77 212.576 94.0105 214.411C94.0824 214.961 94.5912 215.342 95.1394 215.263L107.517 213.471C108.062 213.392 108.44 212.888 108.369 212.342C108.177 210.854 108.02 209.355 107.898 207.845C107.854 207.294 107.376 206.879 106.825 206.917L94.3506 207.791C93.7997 207.83 93.3839 208.308 93.4275 208.858Z" fill="#0E4429"/>
<path d="M305.89 184.741L293.514 186.542C292.967 186.622 292.589 187.131 292.664 187.679C292.898 189.39 293.085 191.118 293.226 192.86C293.27 193.41 293.748 193.826 294.299 193.787L306.773 192.914C307.324 192.875 307.74 192.397 307.696 191.846C307.53 189.74 307.303 187.653 307.018 185.586C306.943 185.039 306.436 184.662 305.89 184.741Z" fill="#0E4429"/>
<path d="M93.0622 199.726C93.051 201.598 93.0877 203.459 93.1713 205.308C93.1963 205.861 93.6709 206.285 94.2239 206.252L106.709 205.518C107.258 205.486 107.678 205.016 107.654 204.466C107.589 202.968 107.56 201.461 107.567 199.945C107.569 199.393 107.129 198.939 106.577 198.93L94.0727 198.741C93.5205 198.732 93.0656 199.173 93.0622 199.726Z" fill="#0E4429"/>
<path d="M306.805 193.748L294.322 194.491C293.77 194.524 293.35 194.999 293.378 195.551C293.465 197.276 293.506 199.013 293.497 200.761C293.495 201.313 293.935 201.768 294.487 201.776L306.991 201.966C307.544 201.974 307.999 201.533 308.002 200.981C308.015 198.868 307.966 196.769 307.858 194.685C307.83 194.134 307.356 193.715 306.805 193.748Z" fill="#0E4429"/>
<path d="M93.4953 190.368C93.3211 192.232 93.1956 194.089 93.1178 195.939C93.0946 196.492 93.5305 196.955 94.0842 196.971L106.586 197.327C107.136 197.343 107.595 196.911 107.619 196.361C107.685 194.863 107.787 193.359 107.926 191.85C107.976 191.3 107.577 190.809 107.028 190.752L94.5877 189.475C94.0383 189.418 93.5468 189.818 93.4953 190.368Z" fill="#39D353"/>
<path d="M306.947 203.026L294.446 202.68C293.893 202.664 293.433 203.1 293.413 203.653C293.35 205.379 293.239 207.113 293.079 208.854C293.028 209.404 293.427 209.895 293.977 209.951L306.417 211.229C306.966 211.285 307.458 210.886 307.509 210.336C307.706 208.232 307.84 206.137 307.914 204.052C307.934 203.5 307.498 203.041 306.947 203.026Z" fill="#39D353"/>
<path d="M94.7401 181.075C94.4041 182.917 94.1172 184.756 93.8786 186.592C93.8072 187.141 94.201 187.641 94.7513 187.705L107.174 189.149C107.721 189.212 108.216 188.822 108.288 188.276C108.484 186.79 108.716 185.3 108.986 183.809C109.085 183.266 108.73 182.742 108.187 182.638L95.9062 180.281C95.3638 180.177 94.8392 180.532 94.7401 181.075Z" fill="#39D353"/>
<path d="M306.277 212.287L293.853 210.852C293.304 210.789 292.808 211.183 292.74 211.732C292.527 213.446 292.265 215.164 291.953 216.884C291.855 217.427 292.21 217.951 292.752 218.056L305.034 220.412C305.576 220.516 306.1 220.161 306.2 219.618C306.579 217.539 306.895 215.464 307.151 213.393C307.218 212.845 306.825 212.35 306.277 212.287Z" fill="#39D353"/>
<path d="M96.7891 171.94C96.2941 173.745 95.8482 175.552 95.4507 177.361C95.3318 177.902 95.6807 178.433 96.2233 178.545L108.473 181.065C109.013 181.176 109.539 180.83 109.659 180.293C109.983 178.828 110.345 177.365 110.743 175.903C110.889 175.37 110.581 174.817 110.049 174.666L98.0199 171.25C97.4886 171.099 96.9352 171.407 96.7891 171.94Z" fill="#39D353"/>
<path d="M304.806 221.443L292.555 218.933C292.014 218.822 291.485 219.171 291.369 219.712C291.008 221.401 290.597 223.09 290.138 224.776C289.992 225.309 290.3 225.862 290.831 226.013L302.861 229.43C303.392 229.58 303.946 229.272 304.092 228.74C304.65 226.702 305.147 224.662 305.581 222.621C305.696 222.081 305.347 221.554 304.806 221.443Z" fill="#39D353"/>
<path d="M107.694 145.86C106.745 147.474 105.843 149.102 104.988 150.744C104.732 151.235 104.931 151.839 105.425 152.089L116.595 157.716C117.086 157.963 117.685 157.767 117.94 157.279C118.635 155.95 119.366 154.632 120.132 153.324C120.411 152.848 120.258 152.234 119.785 151.95L109.062 145.514C108.588 145.23 107.974 145.384 107.694 145.86Z" fill="#26A641"/>
<path d="M295.609 247.888L284.436 242.27C283.942 242.021 283.341 242.221 283.088 242.713C282.298 244.25 281.462 245.773 280.578 247.281C280.299 247.758 280.452 248.372 280.926 248.656L291.648 255.091C292.122 255.375 292.737 255.222 293.016 254.746C294.087 252.924 295.098 251.084 296.05 249.227C296.301 248.736 296.102 248.136 295.609 247.888Z" fill="#26A641"/>
<path d="M112.679 138.096C111.595 139.623 110.557 141.168 109.564 142.731C109.267 143.198 109.413 143.817 109.885 144.108L120.53 150.672C120.999 150.961 121.612 150.817 121.908 150.352C122.715 149.088 123.556 147.837 124.431 146.6C124.75 146.149 124.65 145.525 124.203 145.201L114.072 137.87C113.624 137.546 112.999 137.646 112.679 138.096Z" fill="#39D353"/>
<path d="M291.151 255.866L280.501 249.31C280.03 249.02 279.414 249.168 279.12 249.636C278.201 251.099 277.237 252.545 276.228 253.972C275.909 254.423 276.008 255.048 276.456 255.371L286.587 262.702C287.034 263.026 287.66 262.926 287.98 262.476C289.203 260.753 290.368 259.006 291.475 257.238C291.768 256.77 291.62 256.155 291.151 255.866Z" fill="#39D353"/>
<path d="M118.402 130.684C117.189 132.111 116.021 133.56 114.896 135.03C114.559 135.47 114.65 136.099 115.095 136.43L125.128 143.896C125.57 144.224 126.194 144.134 126.529 143.697C127.443 142.508 128.389 141.335 129.369 140.179C129.726 139.757 129.681 139.126 129.263 138.765L119.809 130.58C119.391 130.218 118.759 130.264 118.402 130.684Z" fill="#26A641"/>
<path d="M285.945 263.541L275.907 256.083C275.463 255.754 274.836 255.847 274.502 256.288C273.46 257.666 272.374 259.022 271.244 260.356C270.887 260.777 270.932 261.408 271.349 261.77L280.804 269.955C281.221 270.316 281.853 270.271 282.211 269.85C283.579 268.24 284.892 266.601 286.149 264.936C286.481 264.496 286.388 263.87 285.945 263.541Z" fill="#26A641"/>
<path d="M124.573 123.972C123.244 125.29 121.957 126.635 120.712 128.005C120.339 128.415 120.376 129.049 120.791 129.416L130.156 137.706C130.568 138.071 131.197 138.033 131.568 137.627C132.579 136.519 133.622 135.431 134.696 134.362C135.088 133.972 135.096 133.34 134.711 132.944L125.984 123.987C125.599 123.592 124.965 123.583 124.573 123.972Z" fill="#39D353"/>
<path d="M280.252 270.553L270.882 262.271C270.467 261.905 269.835 261.945 269.465 262.356C268.31 263.64 267.112 264.9 265.873 266.132C265.482 266.522 265.473 267.155 265.859 267.55L274.585 276.507C274.971 276.903 275.604 276.911 275.996 276.522C277.496 275.034 278.943 273.513 280.337 271.96C280.705 271.549 280.665 270.918 280.252 270.553Z" fill="#39D353"/>
<path d="M131.262 117.829C129.827 119.03 128.431 120.262 127.074 121.521C126.668 121.898 126.652 122.533 127.034 122.934L135.666 131.985C136.045 132.383 136.675 132.399 137.08 132.026C138.181 131.007 139.311 130.011 140.472 129.036C140.895 128.681 140.957 128.051 140.606 127.625L132.667 117.963C132.316 117.536 131.686 117.474 131.262 117.829Z" fill="#006D32"/>
<path d="M274.01 277.03L265.372 267.987C264.99 267.587 264.356 267.573 263.953 267.952C262.693 269.134 261.394 270.288 260.055 271.412C259.632 271.767 259.57 272.396 259.921 272.823L267.86 282.485C268.211 282.912 268.841 282.974 269.265 282.619C270.885 281.263 272.455 279.869 273.975 278.439C274.377 278.061 274.391 277.429 274.01 277.03Z" fill="#006D32"/>
<path d="M138.526 112.219C136.993 113.293 135.497 114.401 134.038 115.54C133.601 115.881 133.531 116.513 133.877 116.945L141.705 126.699C142.05 127.128 142.676 127.198 143.111 126.86C144.294 125.939 145.506 125.043 146.746 124.171C147.197 123.853 147.313 123.231 147 122.776L139.914 112.472C139.601 112.017 138.978 111.901 138.526 112.219Z" fill="#39D353"/>
<path d="M267.17 283.018L259.335 273.271C258.989 272.84 258.359 272.772 257.925 273.115C256.569 274.185 255.176 275.224 253.746 276.229C253.295 276.547 253.179 277.169 253.492 277.624L260.578 287.928C260.891 288.383 261.514 288.499 261.966 288.182C263.696 286.969 265.379 285.714 267.016 284.419C267.448 284.077 267.516 283.448 267.17 283.018Z" fill="#39D353"/>
<path d="M146.081 107.341C144.464 108.284 142.88 109.263 141.331 110.276C140.867 110.579 140.744 111.203 141.054 111.662L148.039 122.037C148.346 122.493 148.964 122.615 149.426 122.315C150.682 121.496 151.965 120.704 153.273 119.939C153.75 119.66 153.917 119.05 153.643 118.57L147.443 107.71C147.169 107.23 146.558 107.063 146.081 107.341Z" fill="#0E4429"/>
<path d="M259.996 288.298L253.003 277.93C252.694 277.471 252.072 277.351 251.611 277.656C250.17 278.609 248.695 279.528 247.186 280.411C246.71 280.69 246.542 281.3 246.816 281.78L253.016 292.64C253.29 293.119 253.901 293.287 254.378 293.009C256.203 291.944 257.986 290.835 259.725 289.681C260.184 289.376 260.304 288.755 259.996 288.298Z" fill="#0E4429"/>
<path d="M154.397 102.933C152.703 103.731 151.04 104.567 149.408 105.441C148.92 105.702 148.743 106.313 149.011 106.798L155.062 117.743C155.328 118.225 155.933 118.4 156.419 118.142C157.742 117.436 159.089 116.759 160.459 116.112C160.958 115.876 161.178 115.282 160.947 114.78L155.721 103.419C155.491 102.918 154.897 102.698 154.397 102.933Z" fill="#0E4429"/>
<path d="M252.043 293.162L245.985 282.222C245.717 281.738 245.107 281.564 244.621 281.827C243.103 282.651 241.553 283.437 239.973 284.184C239.474 284.42 239.254 285.014 239.485 285.515L244.711 296.877C244.942 297.378 245.536 297.598 246.035 297.363C247.947 296.463 249.819 295.513 251.652 294.516C252.137 294.253 252.311 293.644 252.043 293.162Z" fill="#0E4429"/>
<path d="M163.22 99.211C161.462 99.8549 159.732 100.54 158.028 101.265C157.518 101.482 157.288 102.074 157.512 102.581L162.564 114.022C162.786 114.525 163.374 114.754 163.88 114.539C165.261 113.955 166.663 113.4 168.085 112.877C168.604 112.686 168.875 112.115 168.69 111.595L164.496 99.8135C164.311 99.2932 163.739 99.0211 163.22 99.211Z" fill="#26A641"/>
<path d="M243.546 297.376L238.486 285.94C238.262 285.435 237.67 285.207 237.163 285.426C235.577 286.112 233.964 286.757 232.323 287.36C231.805 287.551 231.533 288.122 231.718 288.643L235.912 300.424C236.097 300.944 236.67 301.216 237.188 301.026C239.172 300.3 241.122 299.52 243.036 298.691C243.542 298.471 243.77 297.881 243.546 297.376Z" fill="#26A641"/>
<path d="M172.14 96.3444C170.332 96.8327 168.548 97.3645 166.788 97.9383C166.262 98.11 165.98 98.6802 166.159 99.2045L170.196 111.042C170.374 111.563 170.939 111.842 171.462 111.672C172.889 111.21 174.334 110.779 175.796 110.382C176.329 110.237 176.649 109.692 176.51 109.157L173.358 97.0556C173.219 96.5212 172.673 96.2003 172.14 96.3444Z" fill="#39D353"/>
<path d="M234.904 300.752L230.858 288.919C230.679 288.395 230.11 288.117 229.585 288.292C227.946 288.836 226.282 289.338 224.595 289.797C224.062 289.941 223.742 290.487 223.881 291.021L227.033 303.123C227.172 303.657 227.719 303.978 228.252 303.834C230.291 303.283 232.301 302.677 234.281 302.017C234.804 301.842 235.082 301.274 234.904 300.752Z" fill="#39D353"/>
<path d="M181.317 94.2569C179.474 94.5852 177.65 94.9589 175.846 95.3765C175.307 95.5015 174.977 96.0449 175.109 96.5828L178.095 108.728C178.226 109.262 178.764 109.59 179.301 109.466C180.762 109.131 182.239 108.829 183.731 108.561C184.274 108.463 184.641 107.948 184.55 107.403L182.468 95.072C182.376 94.5274 181.86 94.16 181.317 94.2569Z" fill="#26A641"/>
<path d="M225.957 303.372L222.962 291.23C222.83 290.693 222.287 290.366 221.749 290.494C220.068 290.893 218.367 291.247 216.646 291.557C216.103 291.654 215.736 292.17 215.828 292.714L217.909 305.045C218.001 305.59 218.517 305.957 219.061 305.86C221.141 305.49 223.196 305.061 225.226 304.577C225.762 304.449 226.089 303.907 225.957 303.372Z" fill="#26A641"/>
<path d="M190.638 92.9814C188.773 93.1473 186.924 93.36 185.091 93.6183C184.542 93.6956 184.166 94.208 184.251 94.7555L186.163 107.115C186.247 107.659 186.755 108.032 187.3 107.956C188.785 107.75 190.283 107.578 191.792 107.441C192.342 107.392 192.753 106.91 192.709 106.36L191.714 93.8941C191.67 93.3436 191.188 92.9324 190.638 92.9814Z" fill="#39D353"/>
<path d="M216.818 305.199L214.897 292.842C214.812 292.296 214.299 291.922 213.752 292.003C212.043 292.253 210.318 292.457 208.577 292.615C208.027 292.665 207.616 293.146 207.66 293.697L208.655 306.162C208.699 306.713 209.181 307.124 209.731 307.075C211.835 306.888 213.92 306.641 215.984 306.336C216.53 306.256 216.903 305.744 216.818 305.199Z" fill="#39D353"/>
<path d="M200.039 92.5255C198.167 92.5276 196.306 92.5777 194.458 92.6746C193.904 92.7036 193.485 93.1812 193.521 93.7339L194.345 106.213C194.381 106.763 194.854 107.179 195.404 107.151C196.901 107.075 198.408 107.035 199.924 107.031C200.476 107.03 200.927 106.586 200.932 106.034L201.031 93.5288C201.036 92.9766 200.591 92.5248 200.039 92.5255Z" fill="#39D353"/>
<path d="M207.552 306.22L206.719 293.742C206.682 293.19 206.205 292.774 205.653 292.806C203.928 292.906 202.191 292.958 200.443 292.963C199.891 292.964 199.44 293.408 199.435 293.96L199.336 306.465C199.331 307.017 199.776 307.469 200.328 307.469C202.441 307.466 204.539 307.403 206.622 307.28C207.173 307.247 207.589 306.77 207.552 306.22Z" fill="#39D353"/>
<path d="M209.355 92.8872C207.49 92.7271 205.632 92.6157 203.782 92.5521C203.228 92.533 202.768 92.9724 202.757 93.5262L202.496 106.03C202.484 106.58 202.92 107.036 203.47 107.056C204.968 107.11 206.473 107.201 207.983 107.328C208.533 107.375 209.021 106.972 209.074 106.422L210.256 93.9727C210.309 93.4229 209.905 92.9344 209.355 92.8872Z" fill="#006D32"/>
<path d="M198.321 306.429L198.572 293.926C198.583 293.373 198.144 292.916 197.591 292.9C195.864 292.85 194.129 292.753 192.388 292.606C191.837 292.559 191.349 292.962 191.297 293.512L190.114 305.961C190.062 306.511 190.465 306.999 191.015 307.047C193.12 307.227 195.217 307.346 197.302 307.404C197.854 307.419 198.31 306.98 198.321 306.429Z" fill="#006D32"/>
<path d="M218.692 94.0689C216.848 93.7462 215.007 93.4727 213.169 93.2474C212.619 93.18 212.123 93.5775 212.063 94.1282L210.709 106.561C210.65 107.108 211.043 107.6 211.59 107.668C213.078 107.854 214.569 108.075 216.062 108.334C216.606 108.429 217.127 108.07 217.228 107.527L219.495 95.2291C219.595 94.686 219.236 94.1641 218.692 94.0689Z" fill="#39D353"/>
<path d="M189.018 305.826L190.362 293.393C190.422 292.843 190.023 292.35 189.474 292.286C187.759 292.085 186.039 291.836 184.317 291.537C183.772 291.443 183.251 291.801 183.151 292.344L180.883 304.642C180.783 305.185 181.142 305.707 181.686 305.803C183.767 306.167 185.845 306.468 187.918 306.709C188.466 306.772 188.958 306.375 189.018 305.826Z" fill="#39D353"/>
<path d="M227.652 96.0014C225.843 95.5228 224.031 95.0934 222.22 94.7123C221.678 94.5983 221.149 94.9521 221.043 95.4957L218.634 107.768C218.528 108.308 218.879 108.832 219.417 108.946C220.884 109.258 222.351 109.606 223.816 109.991C224.35 110.131 224.9 109.819 225.046 109.286L228.354 97.2258C228.5 96.6932 228.186 96.1426 227.652 96.0014Z" fill="#39D353"/>
<path d="M180.043 304.46L182.442 292.187C182.548 291.644 182.193 291.119 181.652 291.008C179.959 290.662 178.267 290.267 176.577 289.822C176.042 289.682 175.492 289.995 175.346 290.527L172.039 302.588C171.893 303.12 172.206 303.671 172.74 303.812C174.783 304.352 176.828 304.83 178.872 305.246C179.413 305.356 179.937 305.002 180.043 304.46Z" fill="#39D353"/>
<path d="M236.647 98.7724C234.886 98.1373 233.119 97.551 231.348 97.013C230.818 96.852 230.261 97.1581 230.107 97.6903L226.634 109.705C226.481 110.234 226.785 110.786 227.311 110.947C228.745 111.386 230.176 111.861 231.602 112.373C232.122 112.559 232.697 112.296 232.889 111.778L237.239 100.053C237.431 99.5357 237.167 98.9597 236.647 98.7724Z" fill="#39D353"/>
<path d="M170.983 302.267L174.446 290.25C174.6 289.719 174.292 289.165 173.762 289.007C172.107 288.514 170.456 287.972 168.81 287.382C168.291 287.195 167.715 287.459 167.523 287.976L163.174 299.701C162.981 300.219 163.245 300.795 163.765 300.982C165.752 301.699 167.747 302.353 169.748 302.947C170.277 303.104 170.83 302.797 170.983 302.267Z" fill="#39D353"/>
<path d="M245.417 102.343C243.718 101.556 242.01 100.816 240.293 100.124C239.779 99.9171 239.197 100.173 238.997 100.69L234.48 112.352C234.281 112.865 234.535 113.442 235.045 113.649C236.435 114.212 237.818 114.811 239.194 115.447C239.695 115.678 240.291 115.466 240.528 114.968L245.893 103.671C246.13 103.172 245.918 102.576 245.417 102.343Z" fill="#0E4429"/>
<path d="M162.096 299.268L166.603 287.603C166.803 287.087 166.545 286.508 166.031 286.304C164.426 285.667 162.828 284.983 161.242 284.25C160.74 284.018 160.144 284.23 159.907 284.729L154.542 296.025C154.305 296.524 154.518 297.121 155.019 297.353C156.935 298.242 158.865 299.07 160.805 299.837C161.318 300.039 161.897 299.783 162.096 299.268Z" fill="#0E4429"/>
<path d="M253.789 106.645C252.166 105.712 250.529 104.825 248.879 103.986C248.385 103.735 247.783 103.939 247.539 104.436L242.019 115.658C241.776 116.152 241.978 116.749 242.468 117C243.803 117.682 245.129 118.4 246.443 119.153C246.923 119.428 247.535 119.269 247.815 118.793L254.147 108.009C254.427 107.533 254.268 106.92 253.789 106.645Z" fill="#26A641"/>
<path d="M153.559 295.525L159.07 284.299C159.314 283.803 159.108 283.203 158.614 282.955C157.07 282.18 155.539 281.358 154.022 280.489C153.543 280.215 152.93 280.373 152.651 280.85L146.318 291.633C146.039 292.109 146.198 292.723 146.677 292.998C148.508 294.051 150.358 295.044 152.224 295.978C152.717 296.225 153.316 296.02 153.559 295.525Z" fill="#26A641"/>
</svg>
